{"glyphs":{"0":{"ha":833,"x_min":43,"x_max":790,"o":"m 417 -17 l 417 -17 q 135 115 226 -17 q 43 485 43 247 l 43 485 q 135 854 43 722 q 417 986 226 986 l 417 986 q 699 854 607 986 q 790 485 790 722 l 790 485 q 699 115 790 247 q 417 -17 607 -17 z m 417 160 l 417 160 q 532 221 500 160 q 564 393 564 282 l 564 393 l 564 576 q 532 749 564 688 q 417 810 500 810 l 417 810 q 301 749 333 810 q 269 576 269 688 l 269 576 l 269 393 q 301 221 269 282 q 417 160 333 160 z "},"1":{"ha":833,"x_min":49,"x_max":806,"o":"m 806 0 l 131 0 l 131 168 l 392 168 l 392 818 l 379 818 l 182 560 l 49 664 l 281 969 l 600 969 l 600 168 l 806 168 l 806 0 z "},"2":{"ha":833,"x_min":58,"x_max":765,"o":"m 765 175 l 765 0 l 79 0 l 79 190 l 378 446 q 446 509 418 481 q 491 565 474 538 q 516 618 508 592 q 524 675 524 644 l 524 675 l 524 694 q 513 743 524 722 q 483 778 501 764 q 442 799 465 792 q 396 806 419 806 l 396 806 q 335 794 361 806 q 291 765 310 783 q 260 722 272 746 q 240 669 247 697 l 240 669 l 58 739 q 104 834 75 789 q 177 913 133 879 q 281 967 221 947 q 415 986 340 986 l 415 986 q 556 964 494 986 q 659 903 617 942 q 724 810 701 864 q 746 694 746 757 l 746 694 q 725 581 746 632 q 669 484 704 529 q 586 399 633 439 q 488 317 539 358 l 488 317 l 307 175 l 765 175 z "},"3":{"ha":833,"x_min":22,"x_max":749,"o":"m 274 586 l 364 586 q 477 616 442 586 q 513 690 513 646 l 513 690 l 513 700 q 478 785 513 753 q 382 817 444 817 l 382 817 q 272 787 324 817 q 185 701 221 757 l 185 701 l 54 824 q 114 890 82 860 q 186 941 146 919 q 276 974 226 963 q 389 986 326 986 l 389 986 q 530 968 467 986 q 638 916 593 950 q 708 835 683 882 q 732 729 732 788 l 732 729 q 717 646 732 683 q 677 581 703 608 q 618 535 651 553 q 547 511 585 518 l 547 511 l 547 503 q 627 476 590 494 q 691 428 664 457 q 733 359 718 399 q 749 269 749 319 l 749 269 q 722 151 749 204 q 647 61 696 99 q 531 3 599 24 q 381 -17 463 -17 l 381 -17 q 250 -1 307 -17 q 151 40 193 14 q 77 99 108 65 q 22 169 46 132 l 22 169 l 176 289 q 255 191 208 229 q 381 153 301 153 l 381 153 q 491 188 451 153 q 531 285 531 224 l 531 285 l 531 293 q 485 383 531 353 q 361 413 440 413 l 361 413 l 274 413 l 274 586 z "},"4":{"ha":833,"x_min":42,"x_max":789,"o":"m 667 0 l 468 0 l 468 186 l 42 186 l 42 364 l 419 969 l 667 969 l 667 347 l 789 347 l 789 186 l 667 186 l 667 0 z m 454 754 l 208 347 l 468 347 l 468 754 l 454 754 z "},"5":{"ha":833,"x_min":64,"x_max":782,"o":"m 725 969 l 725 788 l 285 788 l 264 481 l 275 481 q 306 544 289 515 q 347 592 324 572 q 404 624 371 613 q 483 635 438 635 l 483 635 q 600 614 546 635 q 694 553 654 593 q 758 456 735 514 q 782 326 782 399 l 782 326 q 758 190 782 253 q 685 81 733 126 q 568 9 638 35 q 410 -17 499 -17 l 410 -17 q 285 -1 339 -17 q 189 40 231 14 q 117 99 147 65 q 64 169 86 132 l 64 169 l 215 289 q 292 192 247 232 q 411 153 336 153 l 411 153 q 524 196 486 153 q 563 310 563 239 l 563 310 l 563 321 q 524 426 563 388 q 417 465 485 465 l 417 465 q 323 442 360 465 q 267 397 286 419 l 267 397 l 96 421 l 132 969 l 725 969 z "},"6":{"ha":833,"x_min":58,"x_max":786,"o":"m 422 -17 l 422 -17 q 268 10 336 -17 q 153 88 200 38 q 83 210 107 139 q 58 368 58 281 l 58 368 q 90 560 58 469 q 170 728 121 651 q 281 867 219 806 q 406 969 343 928 l 406 969 l 693 969 q 533 848 604 906 q 410 732 463 790 q 324 613 358 674 q 276 483 290 553 l 276 483 l 289 479 q 319 533 301 507 q 362 580 336 560 q 422 613 388 600 q 503 625 457 625 l 503 625 q 615 603 563 625 q 705 543 667 582 q 765 448 743 504 q 786 324 786 392 l 786 324 q 760 186 786 249 q 687 78 735 124 q 572 8 639 33 q 422 -17 506 -17 z m 422 146 l 422 146 q 531 184 492 146 q 569 293 569 222 l 569 293 l 569 318 q 531 427 569 389 q 422 465 492 465 l 422 465 q 314 427 353 465 q 275 318 275 389 l 275 318 l 275 293 q 314 184 275 222 q 422 146 353 146 z "},"7":{"ha":833,"x_min":76,"x_max":763,"o":"m 450 0 l 231 0 l 556 800 l 253 800 l 253 624 l 76 624 l 76 969 l 763 969 l 763 789 l 450 0 z "},"8":{"ha":833,"x_min":56,"x_max":778,"o":"m 417 -17 l 417 -17 q 263 5 331 -17 q 150 64 196 26 q 80 153 104 101 q 56 265 56 204 l 56 265 q 107 417 56 358 q 246 500 158 476 l 246 500 l 246 511 q 130 592 175 538 q 85 731 85 646 l 85 731 q 106 833 85 786 q 170 915 128 881 q 274 967 213 949 q 417 986 336 986 l 417 986 q 559 967 497 986 q 663 915 621 949 q 727 833 706 881 q 749 731 749 786 l 749 731 q 703 592 749 646 q 588 511 658 538 l 588 511 l 588 500 q 726 417 675 476 q 778 265 778 358 l 778 265 q 753 153 778 204 q 683 64 729 101 q 570 5 638 26 q 417 -17 503 -17 z m 417 143 l 417 143 q 523 176 486 143 q 560 267 560 208 l 560 267 l 560 294 q 523 385 560 353 q 417 418 486 418 l 417 418 q 310 385 347 418 q 274 294 274 353 l 274 294 l 274 267 q 310 176 274 208 q 417 143 347 143 z m 417 571 l 417 571 q 518 602 483 571 q 553 688 553 633 l 553 688 l 553 710 q 518 795 553 764 q 417 826 483 826 l 417 826 q 315 795 350 826 q 281 710 281 764 l 281 710 l 281 688 q 315 602 281 633 q 417 571 350 571 z "},"9":{"ha":833,"x_min":47,"x_max":775,"o":"m 775 601 l 775 601 q 744 408 775 499 q 663 241 713 318 q 552 103 614 164 q 428 0 490 42 l 428 0 l 140 0 q 300 122 229 64 q 423 238 371 179 q 508 356 475 296 q 557 486 542 417 l 557 486 l 544 490 q 515 436 532 463 q 472 390 497 410 q 411 357 446 369 q 331 344 376 344 l 331 344 q 219 366 271 344 q 128 426 167 388 q 69 521 90 465 q 47 646 47 576 l 47 646 q 73 783 47 721 q 147 891 99 846 q 261 961 194 936 q 411 986 328 986 l 411 986 q 565 959 497 986 q 680 881 633 932 q 751 760 726 831 q 775 601 775 689 z m 411 504 l 411 504 q 519 542 481 504 q 558 651 558 581 l 558 651 l 558 676 q 519 785 558 747 q 411 824 481 824 l 411 824 q 303 785 342 824 q 264 676 264 747 l 264 676 l 264 651 q 303 542 264 581 q 411 504 342 504 z "},"\u0000":{"ha":0,"x_min":null,"x_max":null,"o":""},"\r":{"ha":328,"x_min":null,"x_max":null,"o":""}," ":{"ha":328,"x_min":null,"x_max":null,"o":""},"a":{"ha":790,"x_min":47,"x_max":749,"o":"m 749 0 l 635 0 q 542 35 579 0 q 496 128 506 69 l 496 128 l 488 128 q 414 20 471 57 q 274 -17 357 -17 l 274 -17 q 106 42 164 -17 q 47 196 47 100 l 47 196 q 131 367 47 311 q 360 424 215 424 l 360 424 l 475 424 l 475 469 q 447 553 475 522 q 354 585 419 585 l 354 585 q 257 558 293 585 q 197 499 221 532 l 197 499 l 75 607 q 187 709 119 672 q 369 746 254 746 l 369 746 q 603 678 525 746 q 681 479 681 610 l 681 479 l 681 160 l 749 160 l 749 0 z m 350 126 l 350 126 q 438 149 401 126 q 475 221 475 171 l 475 221 l 475 307 l 375 307 q 254 225 254 307 l 254 225 l 254 204 q 279 145 254 164 q 350 126 304 126 z "},"b":{"ha":844,"x_min":96,"x_max":785,"o":"m 96 0 l 96 1028 l 301 1028 l 301 607 l 308 607 q 378 707 324 668 q 504 746 433 746 l 504 746 q 714 649 643 746 q 785 365 785 551 l 785 365 q 714 81 785 179 q 504 -17 643 -17 l 504 -17 q 436 -6 468 -17 q 378 23 404 4 q 335 67 353 42 q 308 122 317 93 l 308 122 l 301 122 l 301 0 l 96 0 z m 436 150 l 436 150 q 533 191 494 150 q 571 301 571 232 l 571 301 l 571 428 q 533 538 571 497 q 436 579 494 579 l 436 579 q 340 551 378 579 q 301 472 301 522 l 301 472 l 301 257 q 340 178 301 207 q 436 150 378 150 z "},"c":{"ha":718,"x_min":50,"x_max":686,"o":"m 390 -17 l 390 -17 q 244 10 308 -17 q 138 87 181 38 q 72 207 94 136 q 50 365 50 278 l 50 365 q 72 523 50 453 q 138 643 94 593 q 244 719 181 693 q 390 746 308 746 l 390 746 q 576 696 501 746 q 682 556 650 646 l 682 556 l 515 483 q 475 554 506 525 q 390 583 444 583 l 390 583 q 296 542 328 583 q 264 432 264 501 l 264 432 l 264 296 q 296 186 264 226 q 390 146 328 146 l 390 146 q 478 176 446 146 q 526 254 511 206 l 526 254 l 686 185 q 574 32 650 81 q 390 -17 499 -17 z "},"d":{"ha":844,"x_min":60,"x_max":749,"o":"m 543 0 l 543 122 l 536 122 q 510 67 528 93 q 466 23 492 42 q 408 -6 440 4 q 340 -17 375 -17 l 340 -17 q 131 81 201 -17 q 60 365 60 179 l 60 365 q 131 649 60 551 q 340 746 201 746 l 340 746 q 466 707 411 746 q 536 607 521 668 l 536 607 l 543 607 l 543 1028 l 749 1028 l 749 0 l 543 0 z m 408 150 l 408 150 q 505 178 467 150 q 543 257 543 207 l 543 257 l 543 472 q 505 551 543 522 q 408 579 467 579 l 408 579 q 312 538 350 579 q 274 428 274 497 l 274 428 l 274 301 q 312 191 274 232 q 408 150 350 150 z "},"e":{"ha":781,"x_min":50,"x_max":731,"o":"m 400 -17 l 400 -17 q 251 10 317 -17 q 141 87 186 38 q 73 207 96 136 q 50 365 50 278 l 50 365 q 72 522 50 451 q 138 642 94 592 q 246 719 182 692 q 392 746 310 746 l 392 746 q 547 715 482 746 q 652 633 611 685 q 712 515 693 582 q 731 374 731 447 l 731 374 l 731 313 l 263 313 l 263 301 q 301 187 263 229 q 424 144 340 144 l 424 144 q 528 170 488 144 q 603 232 568 196 l 603 232 l 706 104 q 578 15 657 47 q 400 -17 500 -17 z m 396 594 l 396 594 q 298 553 333 594 q 263 444 263 513 l 263 444 l 263 433 l 518 433 l 518 446 q 488 553 518 513 q 396 594 458 594 z "},"f":{"ha":501,"x_min":29,"x_max":483,"o":"m 132 0 l 132 569 l 29 569 l 29 729 l 132 729 l 132 815 q 188 974 132 921 q 350 1028 243 1028 l 350 1028 l 483 1028 l 483 868 l 338 868 l 338 729 l 483 729 l 483 569 l 338 569 l 338 0 l 132 0 z "},"g":{"ha":767,"x_min":31,"x_max":771,"o":"m 771 -53 l 771 -53 q 751 -156 771 -111 q 685 -231 731 -200 q 563 -278 639 -262 q 376 -294 488 -294 l 376 -294 q 216 -283 282 -294 q 109 -249 150 -271 q 49 -197 68 -228 q 31 -125 31 -165 l 31 -125 q 67 -29 31 -64 q 167 14 103 6 l 167 14 l 167 29 q 88 74 114 39 q 61 157 61 110 l 61 157 q 73 208 61 186 q 103 245 85 229 q 147 271 122 261 q 197 286 172 281 l 197 286 l 197 292 q 99 376 131 322 q 67 500 67 429 l 67 500 q 144 678 67 611 q 379 746 221 746 l 379 746 q 503 732 451 746 l 503 732 l 503 760 q 531 844 503 818 q 613 869 560 869 l 613 869 l 728 869 l 728 717 l 567 717 l 567 708 q 661 624 631 678 q 692 500 692 571 l 692 500 q 615 324 692 390 q 379 258 538 258 l 379 258 q 250 274 308 258 l 250 274 q 218 215 218 253 l 218 215 q 238 174 218 189 q 306 160 258 160 l 306 160 l 517 160 q 710 104 650 160 q 771 -53 771 49 z m 578 -81 l 578 -81 q 553 -32 578 -49 q 465 -15 528 -15 l 465 -15 l 215 -15 q 195 -47 201 -29 q 189 -81 189 -64 l 189 -81 q 224 -140 189 -121 q 342 -158 258 -158 l 342 -158 l 425 -158 q 543 -140 508 -158 q 578 -81 578 -121 z m 379 393 l 379 393 q 470 419 440 393 q 500 493 500 444 l 500 493 l 500 510 q 470 584 500 558 q 379 610 440 610 l 379 610 q 288 584 318 610 q 258 510 258 558 l 258 510 l 258 493 q 288 419 258 444 q 379 393 318 393 z "},"h":{"ha":828,"x_min":96,"x_max":740,"o":"m 96 0 l 96 1028 l 301 1028 l 301 606 l 310 606 q 378 704 329 663 q 513 746 426 746 l 513 746 q 683 671 625 746 q 740 457 740 596 l 740 457 l 740 0 l 535 0 l 535 440 q 513 545 535 511 q 433 579 490 579 l 433 579 q 385 573 408 579 q 342 553 361 567 q 313 519 324 539 q 301 472 301 499 l 301 472 l 301 0 l 96 0 z "},"i":{"ha":397,"x_min":79,"x_max":318,"o":"m 199 807 l 199 807 q 108 835 136 807 q 79 908 79 864 l 79 908 l 79 939 q 108 1012 79 983 q 199 1040 136 1040 l 199 1040 q 290 1012 261 1040 q 318 939 318 983 l 318 939 l 318 908 q 290 835 318 864 q 199 807 261 807 z m 96 0 l 96 729 l 301 729 l 301 0 l 96 0 z "},"j":{"ha":397,"x_min":-12,"x_max":318,"o":"m 96 -118 l 96 729 l 301 729 l 301 -78 q 253 -226 301 -175 q 96 -278 204 -278 l 96 -278 l -12 -278 l -12 -118 l 96 -118 z m 199 807 l 199 807 q 108 835 136 807 q 79 908 79 864 l 79 908 l 79 939 q 108 1012 79 983 q 199 1040 136 1040 l 199 1040 q 290 1012 261 1040 q 318 939 318 983 l 318 939 l 318 908 q 290 835 318 864 q 199 807 261 807 z "},"k":{"ha":801,"x_min":96,"x_max":801,"o":"m 96 0 l 96 1028 l 301 1028 l 301 421 l 310 421 l 400 556 l 546 729 l 774 729 l 531 450 l 801 0 l 557 0 l 393 308 l 301 206 l 301 0 l 96 0 z "},"l":{"ha":421,"x_min":96,"x_max":393,"o":"m 393 0 l 300 0 q 145 51 194 0 q 96 200 96 103 l 96 200 l 96 1028 l 301 1028 l 301 160 l 393 160 l 393 0 z "},"m":{"ha":1242,"x_min":96,"x_max":1154,"o":"m 301 0 l 96 0 l 96 729 l 301 729 l 301 606 l 310 606 q 376 705 329 664 q 506 746 424 746 l 506 746 q 633 708 581 746 q 710 599 686 671 l 710 599 l 714 599 q 744 656 724 629 q 793 703 764 683 q 858 734 822 722 q 936 746 894 746 l 936 746 q 1098 671 1042 746 q 1154 457 1154 596 l 1154 457 l 1154 0 l 949 0 l 949 440 q 849 579 949 579 l 849 579 q 765 553 803 579 q 728 472 728 526 l 728 472 l 728 0 l 522 0 l 522 440 q 422 579 522 579 l 422 579 q 378 573 400 579 q 340 553 357 567 q 312 519 322 539 q 301 472 301 499 l 301 472 l 301 0 z "},"n":{"ha":828,"x_min":96,"x_max":740,"o":"m 301 0 l 96 0 l 96 729 l 301 729 l 301 606 l 310 606 q 378 704 329 663 q 513 746 426 746 l 513 746 q 683 671 625 746 q 740 457 740 596 l 740 457 l 740 0 l 535 0 l 535 440 q 513 545 535 511 q 433 579 490 579 l 433 579 q 385 573 408 579 q 342 553 361 567 q 313 519 324 539 q 301 472 301 499 l 301 472 l 301 0 z "},"o":{"ha":783,"x_min":50,"x_max":733,"o":"m 392 -17 l 392 -17 q 248 10 311 -17 q 141 86 185 36 q 74 207 97 136 q 50 365 50 278 l 50 365 q 74 524 50 453 q 141 644 97 594 q 248 719 185 693 q 392 746 311 746 l 392 746 q 535 719 472 746 q 642 644 599 693 q 710 524 686 594 q 733 365 733 453 l 733 365 q 710 207 733 278 q 642 86 686 136 q 535 10 599 36 q 392 -17 472 -17 z m 392 146 l 392 146 q 486 183 453 146 q 519 290 519 221 l 519 290 l 519 439 q 486 546 519 508 q 392 583 453 583 l 392 583 q 297 546 331 583 q 264 439 264 508 l 264 439 l 264 290 q 297 183 264 221 q 392 146 331 146 z "},"p":{"ha":844,"x_min":96,"x_max":785,"o":"m 96 -278 l 96 729 l 301 729 l 301 607 l 308 607 q 378 707 324 668 q 504 746 433 746 l 504 746 q 714 649 643 746 q 785 365 785 551 l 785 365 q 714 81 785 179 q 504 -17 643 -17 l 504 -17 q 436 -6 468 -17 q 378 23 404 4 q 335 67 353 42 q 308 122 317 93 l 308 122 l 301 122 l 301 -278 l 96 -278 z m 436 150 l 436 150 q 533 191 494 150 q 571 301 571 232 l 571 301 l 571 428 q 533 538 571 497 q 436 579 494 579 l 436 579 q 340 551 378 579 q 301 472 301 522 l 301 472 l 301 257 q 340 178 301 207 q 436 150 378 150 z "},"q":{"ha":844,"x_min":60,"x_max":749,"o":"m 543 -278 l 543 122 l 536 122 q 510 67 528 93 q 466 23 492 42 q 408 -6 440 4 q 340 -17 375 -17 l 340 -17 q 131 81 201 -17 q 60 365 60 179 l 60 365 q 131 649 60 551 q 340 746 201 746 l 340 746 q 466 707 411 746 q 536 607 521 668 l 536 607 l 543 607 l 543 729 l 749 729 l 749 -278 l 543 -278 z m 408 150 l 408 150 q 505 178 467 150 q 543 257 543 207 l 543 257 l 543 472 q 505 551 543 522 q 408 579 467 579 l 408 579 q 312 538 350 579 q 274 428 274 497 l 274 428 l 274 301 q 312 191 274 232 q 408 150 350 150 z "},"r":{"ha":561,"x_min":96,"x_max":531,"o":"m 301 0 l 96 0 l 96 729 l 301 729 l 301 571 l 308 571 q 328 630 314 601 q 365 681 342 658 q 419 716 388 703 q 494 729 451 729 l 494 729 l 531 729 l 531 538 l 479 538 q 345 514 389 538 q 301 426 301 490 l 301 426 l 301 0 z "},"s":{"ha":700,"x_min":36,"x_max":656,"o":"m 343 -17 l 343 -17 q 165 17 238 -17 q 36 114 93 51 l 36 114 l 157 236 q 243 168 196 193 q 350 143 290 143 l 350 143 q 435 162 411 143 q 458 213 458 181 l 458 213 q 385 274 458 264 l 385 274 l 306 283 q 60 508 60 314 l 60 508 q 80 605 60 561 q 137 680 100 649 q 226 728 174 711 q 343 746 278 746 l 343 746 q 444 738 400 746 q 522 716 488 731 q 584 680 556 701 q 640 632 613 658 l 640 632 l 522 511 q 444 566 488 546 q 354 586 400 586 l 354 586 q 279 569 301 586 q 257 525 257 553 l 257 525 q 273 480 257 496 q 333 457 289 464 l 333 457 l 415 446 q 656 226 656 414 l 656 226 q 633 129 656 174 q 570 52 611 85 q 472 1 529 19 q 343 -17 414 -17 z "},"t":{"ha":532,"x_min":32,"x_max":485,"o":"m 474 0 l 351 0 q 190 54 244 0 q 135 213 135 108 l 135 213 l 135 569 l 32 569 l 32 729 l 83 729 q 140 749 125 729 q 156 807 156 769 l 156 807 l 156 926 l 340 926 l 340 729 l 485 729 l 485 569 l 340 569 l 340 160 l 474 160 l 474 0 z "},"u":{"ha":828,"x_min":88,"x_max":732,"o":"m 526 0 l 526 122 l 519 122 q 494 69 510 94 q 453 25 478 44 q 394 -6 428 6 q 315 -17 360 -17 l 315 -17 q 145 58 203 -17 q 88 271 88 132 l 88 271 l 88 729 l 293 729 l 293 289 q 317 186 293 222 q 397 150 340 150 l 397 150 q 444 157 421 150 q 486 177 468 164 q 515 210 504 190 q 526 256 526 229 l 526 256 l 526 729 l 732 729 l 732 0 l 526 0 z "},"v":{"ha":747,"x_min":13,"x_max":735,"o":"m 496 0 l 251 0 l 13 729 l 215 729 l 306 435 l 374 171 l 385 171 l 453 435 l 540 729 l 735 729 l 496 0 z "},"w":{"ha":1168,"x_min":26,"x_max":1142,"o":"m 231 0 l 26 729 l 225 729 l 296 435 l 346 213 l 351 213 l 410 435 l 493 729 l 681 729 l 765 435 l 825 213 l 831 213 l 881 435 l 951 729 l 1142 729 l 940 0 l 725 0 l 636 308 l 585 497 l 581 497 l 531 308 l 442 0 l 231 0 z "},"x":{"ha":778,"x_min":25,"x_max":753,"o":"m 239 0 l 25 0 l 265 371 l 28 729 l 261 729 l 397 500 l 403 500 l 535 729 l 751 729 l 510 364 l 753 0 l 519 0 l 379 238 l 374 238 l 239 0 z "},"y":{"ha":742,"x_min":8,"x_max":733,"o":"m 435 389 l 542 729 l 733 729 l 453 -112 q 374 -237 425 -197 q 229 -278 324 -278 l 229 -278 l 101 -278 l 101 -118 l 239 -118 l 264 -37 l 8 729 l 213 729 l 319 389 l 372 178 l 381 178 l 435 389 z "},"z":{"ha":719,"x_min":54,"x_max":665,"o":"m 665 0 l 54 0 l 54 163 l 417 569 l 67 569 l 67 729 l 656 729 l 656 568 l 292 160 l 665 160 l 665 0 z "},"A":{"ha":951,"x_min":28,"x_max":924,"o":"m 924 0 l 704 0 l 635 231 l 311 231 l 242 0 l 28 0 l 347 969 l 608 969 l 924 0 z m 583 410 l 475 778 l 468 778 l 361 410 l 583 410 z "},"B":{"ha":926,"x_min":107,"x_max":871,"o":"m 107 0 l 107 969 l 578 969 q 766 901 699 969 q 833 721 833 833 l 833 721 q 819 626 833 665 q 780 563 804 588 q 723 526 756 538 q 653 513 690 514 l 653 513 l 653 504 q 726 492 688 504 q 796 452 764 479 q 849 382 828 425 q 871 276 871 339 l 871 276 q 852 169 871 219 q 800 81 833 118 q 721 22 767 43 q 621 0 675 0 l 621 0 l 107 0 z m 318 400 l 318 178 l 561 178 q 627 201 603 178 q 651 265 651 224 l 651 265 l 651 313 q 627 377 651 354 q 561 400 603 400 l 561 400 l 318 400 z m 318 792 l 318 572 l 528 572 q 593 596 569 572 q 617 661 617 619 l 617 661 l 617 703 q 593 768 617 744 q 528 792 569 792 l 528 792 l 318 792 z "},"C":{"ha":904,"x_min":69,"x_max":864,"o":"m 499 -17 l 499 -17 q 321 15 400 -17 q 186 108 242 46 q 100 262 131 169 q 69 478 69 354 l 69 478 q 100 695 69 600 q 186 855 131 790 q 321 953 242 919 q 499 986 400 986 l 499 986 q 721 931 633 986 q 861 758 808 876 l 861 758 l 679 664 q 619 762 660 725 q 499 799 578 799 l 499 799 q 349 738 406 799 q 293 563 293 678 l 293 563 l 293 407 q 349 231 293 292 q 499 171 406 171 l 499 171 q 623 213 576 171 q 692 315 669 256 l 692 315 l 864 215 q 722 44 810 104 q 499 -17 633 -17 z "},"D":{"ha":968,"x_min":107,"x_max":899,"o":"m 107 0 l 107 969 l 472 969 q 647 939 568 969 q 782 848 726 908 q 868 697 838 788 q 899 485 899 606 l 899 485 q 868 273 899 364 q 782 122 838 182 q 647 31 726 61 q 472 0 568 0 l 472 0 l 107 0 z m 318 188 l 472 188 q 621 240 567 188 q 675 410 675 293 l 675 410 l 675 560 q 621 729 675 676 q 472 782 567 782 l 472 782 l 318 782 l 318 188 z "},"E":{"ha":843,"x_min":107,"x_max":767,"o":"m 767 0 l 107 0 l 107 969 l 767 969 l 767 782 l 318 782 l 318 583 l 703 583 l 703 397 l 318 397 l 318 188 l 767 188 l 767 0 z "},"F":{"ha":813,"x_min":107,"x_max":750,"o":"m 318 0 l 107 0 l 107 969 l 750 969 l 750 782 l 318 782 l 318 583 l 686 583 l 686 397 l 318 397 l 318 0 z "},"G":{"ha":999,"x_min":69,"x_max":900,"o":"m 722 0 l 722 154 l 715 154 q 640 32 704 81 q 467 -17 576 -17 l 467 -17 q 311 15 383 -17 q 185 110 239 47 q 100 265 131 172 q 69 481 69 358 l 69 481 q 101 697 69 603 q 191 856 133 792 q 329 953 249 919 q 508 986 410 986 l 508 986 q 733 930 639 986 q 882 761 828 874 l 882 761 l 710 663 q 640 759 688 719 q 508 799 593 799 l 508 799 q 351 742 410 799 q 293 563 293 685 l 293 563 l 293 407 q 351 228 293 286 q 508 171 410 171 l 508 171 q 582 180 547 171 q 643 208 617 189 q 684 253 669 226 q 699 315 699 279 l 699 315 l 699 364 l 518 364 l 518 540 l 900 540 l 900 0 l 722 0 z "},"H":{"ha":1006,"x_min":107,"x_max":899,"o":"m 688 0 l 688 397 l 318 397 l 318 0 l 107 0 l 107 969 l 318 969 l 318 583 l 688 583 l 688 969 l 899 969 l 899 0 l 688 0 z "},"I":{"ha":600,"x_min":69,"x_max":531,"o":"m 531 0 l 69 0 l 69 168 l 194 168 l 194 801 l 69 801 l 69 969 l 531 969 l 531 801 l 406 801 l 406 168 l 531 168 l 531 0 z "},"J":{"ha":776,"x_min":35,"x_max":675,"o":"m 169 969 l 675 969 l 675 281 q 653 159 675 214 q 590 66 632 104 q 490 6 549 28 q 356 -15 431 -15 l 356 -15 q 228 4 283 -15 q 134 60 174 24 q 69 146 94 96 q 35 257 44 196 l 35 257 l 232 296 q 353 169 256 169 l 353 169 q 431 199 399 169 q 464 290 464 228 l 464 290 l 464 800 l 169 800 l 169 969 z "},"K":{"ha":967,"x_min":107,"x_max":950,"o":"m 701 0 l 444 422 l 318 269 l 318 0 l 107 0 l 107 969 l 318 969 l 318 508 l 326 508 l 464 696 l 682 969 l 921 969 l 594 571 l 950 0 l 701 0 z "},"L":{"ha":736,"x_min":107,"x_max":688,"o":"m 688 0 l 107 0 l 107 969 l 318 969 l 318 188 l 688 188 l 688 0 z "},"M":{"ha":1138,"x_min":107,"x_max":1031,"o":"m 832 0 l 832 636 l 828 636 l 757 494 l 568 151 l 383 493 l 310 646 l 306 646 l 306 0 l 107 0 l 107 969 l 331 969 l 568 515 l 571 515 l 806 969 l 1031 969 l 1031 0 l 832 0 z "},"N":{"ha":1006,"x_min":107,"x_max":899,"o":"m 668 0 l 403 458 l 310 653 l 306 653 l 306 0 l 107 0 l 107 969 l 338 969 l 603 511 l 696 317 l 700 317 l 700 969 l 899 969 l 899 0 l 668 0 z "},"O":{"ha":992,"x_min":69,"x_max":922,"o":"m 496 -17 l 496 -17 q 321 15 400 -17 q 186 110 242 47 q 100 267 131 174 q 69 485 69 361 l 69 485 q 100 702 69 608 q 186 859 131 796 q 321 954 242 922 q 496 986 400 986 l 496 986 q 671 954 592 986 q 806 859 750 922 q 892 702 861 796 q 922 485 922 608 l 922 485 q 892 267 922 361 q 806 110 861 174 q 671 15 750 47 q 496 -17 592 -17 z m 496 171 l 496 171 q 645 233 592 171 q 699 413 699 296 l 699 413 l 699 557 q 645 736 699 674 q 496 799 592 799 l 496 799 q 347 736 400 799 q 293 557 293 674 l 293 557 l 293 413 q 347 233 293 296 q 496 171 400 171 z "},"P":{"ha":911,"x_min":107,"x_max":860,"o":"m 318 0 l 107 0 l 107 969 l 565 969 q 688 947 633 969 q 780 883 742 924 q 839 785 818 843 q 860 660 860 728 l 860 660 q 839 533 860 590 q 780 436 818 476 q 688 373 742 396 q 565 350 633 350 l 565 350 l 318 350 l 318 0 z m 318 786 l 318 533 l 540 533 q 615 558 588 533 q 642 629 642 582 l 642 629 l 642 690 q 615 762 642 738 q 540 786 588 786 l 540 786 l 318 786 z "},"Q":{"ha":992,"x_min":69,"x_max":922,"o":"m 753 -83 l 753 -256 l 622 -256 q 458 -203 510 -256 q 407 -50 407 -150 l 407 -50 l 407 -10 q 160 142 251 18 q 69 485 69 267 l 69 485 q 100 702 69 608 q 186 859 131 796 q 321 954 242 922 q 496 986 400 986 l 496 986 q 671 954 592 986 q 806 859 750 922 q 892 702 861 796 q 922 485 922 608 l 922 485 q 837 150 922 274 q 604 -6 751 26 l 604 -6 l 604 -83 l 753 -83 z m 496 171 l 496 171 q 645 233 592 171 q 699 413 699 296 l 699 413 l 699 557 q 645 736 699 674 q 496 799 592 799 l 496 799 q 347 736 400 799 q 293 557 293 674 l 293 557 l 293 413 q 347 233 293 296 q 496 171 400 171 z "},"R":{"ha":936,"x_min":107,"x_max":874,"o":"m 318 356 l 318 0 l 107 0 l 107 969 l 567 969 q 688 947 633 969 q 780 884 742 925 q 839 786 818 843 q 860 660 860 729 l 860 660 q 816 488 860 561 q 683 381 772 414 l 683 381 l 874 0 l 639 0 l 469 356 l 318 356 z m 318 533 l 540 533 q 615 558 588 533 q 642 629 642 582 l 642 629 l 642 690 q 615 762 642 738 q 540 786 588 786 l 540 786 l 318 786 l 318 533 z "},"S":{"ha":867,"x_min":53,"x_max":799,"o":"m 421 -17 l 421 -17 q 204 27 293 -17 q 53 140 115 71 l 53 140 l 192 281 q 435 169 290 169 l 435 169 q 550 201 513 169 q 588 286 588 233 l 588 286 q 565 353 588 326 q 475 390 543 381 l 475 390 l 379 403 q 153 496 225 422 q 82 692 82 569 l 82 692 q 107 811 82 757 q 178 904 132 865 q 292 965 225 943 q 446 986 360 986 l 446 986 q 639 951 556 986 q 782 850 722 917 l 782 850 l 642 708 q 558 774 607 749 q 433 800 508 800 l 433 800 q 328 775 363 800 q 293 706 293 750 l 293 706 q 320 633 293 656 q 408 601 347 611 l 408 601 l 504 586 q 726 494 654 563 q 799 299 799 425 l 799 299 q 774 171 799 229 q 701 71 749 113 q 582 6 653 29 q 421 -17 511 -17 z "},"T":{"ha":811,"x_min":38,"x_max":774,"o":"m 774 782 l 511 782 l 511 0 l 300 0 l 300 782 l 38 782 l 38 969 l 774 969 l 774 782 z "},"U":{"ha":964,"x_min":101,"x_max":863,"o":"m 101 969 l 307 969 l 307 375 q 347 222 307 272 q 482 171 388 171 l 482 171 q 617 222 576 171 q 657 375 657 272 l 657 375 l 657 969 l 863 969 l 863 397 q 842 212 863 290 q 776 83 822 133 q 658 8 731 32 q 482 -17 586 -17 l 482 -17 q 306 8 378 -17 q 188 83 233 32 q 122 212 142 133 q 101 397 101 290 l 101 397 l 101 969 z "},"V":{"ha":903,"x_min":19,"x_max":883,"o":"m 568 0 l 332 0 l 19 969 l 233 969 l 378 504 l 454 200 l 458 200 l 532 504 l 676 969 l 883 969 l 568 0 z "},"W":{"ha":1351,"x_min":40,"x_max":1311,"o":"m 501 0 l 260 0 l 40 969 l 249 969 l 340 504 l 392 235 l 396 235 l 457 504 l 564 969 l 794 969 l 903 504 l 963 235 l 967 235 l 1018 504 l 1111 969 l 1311 969 l 1086 0 l 846 0 l 724 525 l 676 738 l 672 738 l 624 525 l 501 0 z "},"X":{"ha":935,"x_min":22,"x_max":913,"o":"m 597 497 l 913 0 l 668 0 l 458 357 l 454 357 l 250 0 l 22 0 l 333 501 l 38 969 l 283 969 l 472 642 l 476 642 l 668 969 l 896 969 l 597 497 z "},"Y":{"ha":901,"x_min":13,"x_max":889,"o":"m 557 0 l 344 0 l 344 379 l 13 969 l 249 969 l 457 583 l 460 583 l 660 969 l 889 969 l 557 381 l 557 0 z "},"Z":{"ha":843,"x_min":54,"x_max":789,"o":"m 789 188 l 789 0 l 54 0 l 54 188 l 532 782 l 78 782 l 78 969 l 778 969 l 778 782 l 299 188 l 789 188 z "},"&":{"ha":1001,"x_min":69,"x_max":997,"o":"m 749 0 l 676 79 q 565 13 631 42 q 399 -17 500 -17 l 399 -17 q 257 3 318 -17 q 154 60 196 24 q 91 147 113 97 q 69 254 69 196 l 69 254 q 84 343 69 304 q 124 414 99 382 q 186 472 150 446 q 264 524 222 499 l 264 524 q 224 572 243 546 q 189 628 204 599 q 165 689 174 657 q 156 754 156 721 l 156 754 q 176 844 156 801 q 234 918 196 886 q 326 968 272 950 q 446 986 379 986 l 446 986 q 556 972 506 986 q 644 928 607 957 q 703 858 682 900 q 725 764 725 817 l 725 764 q 710 681 725 718 q 668 612 694 643 q 606 554 642 581 q 532 504 571 528 l 532 504 l 682 342 q 710 436 700 386 q 722 535 719 486 l 722 535 l 954 535 l 954 364 l 867 364 q 804 210 843 275 l 804 210 l 997 0 l 749 0 z m 440 829 l 440 829 q 377 808 403 829 q 351 750 351 788 l 351 750 l 351 744 q 369 690 351 717 q 431 614 388 663 l 431 614 q 504 673 479 643 q 529 744 529 703 l 529 744 l 529 750 q 503 808 529 788 q 440 829 478 829 z m 429 154 l 429 154 q 569 193 511 154 l 569 193 l 365 414 q 299 357 318 386 q 279 290 279 328 l 279 290 l 279 276 q 317 189 279 224 q 429 154 354 154 z "},"@":{"ha":1254,"x_min":85,"x_max":1175,"o":"m 933 -46 l 933 -168 l 642 -168 q 406 -126 510 -168 q 231 -9 303 -85 q 122 172 160 67 q 85 404 85 276 l 85 404 q 124 638 85 531 q 235 822 163 744 q 410 942 307 899 q 642 985 513 985 l 642 985 q 860 948 761 985 q 1028 844 958 911 q 1137 680 1099 776 q 1175 465 1175 583 l 1175 465 q 1105 206 1175 299 q 915 114 1035 114 l 915 114 q 793 150 840 114 q 742 244 746 186 l 742 244 l 735 244 q 683 151 721 186 q 575 117 644 117 l 575 117 q 422 190 483 117 q 361 404 361 263 l 361 404 q 422 619 361 546 q 575 692 483 692 l 575 692 q 669 660 633 692 q 718 583 706 629 l 718 583 l 725 583 l 725 679 l 879 679 l 879 306 q 940 236 879 236 l 940 236 q 1017 287 988 236 q 1046 444 1046 338 l 1046 444 l 1046 483 q 1016 643 1046 572 q 933 763 986 714 q 805 838 879 811 q 642 864 731 864 l 642 864 q 465 832 543 864 q 330 742 386 800 q 244 605 274 685 q 214 431 214 525 l 214 431 l 214 378 q 244 205 214 283 q 330 71 274 126 q 465 -15 386 15 q 642 -46 543 -46 l 642 -46 l 933 -46 z m 632 243 l 632 243 q 697 270 668 243 q 725 329 725 297 l 725 329 l 725 490 q 697 544 725 522 q 632 565 668 565 l 632 565 q 552 533 582 565 q 522 451 522 501 l 522 451 l 522 357 q 552 275 522 307 q 632 243 582 243 z "},"-":{"ha":560,"x_min":74,"x_max":486,"o":"m 486 324 l 74 324 l 74 524 l 486 524 l 486 324 z "},"­":{"ha":560,"x_min":74,"x_max":486,"o":"m 486 324 l 74 324 l 74 524 l 486 524 l 486 324 z "},"–":{"ha":817,"x_min":50,"x_max":767,"o":"m 767 339 l 50 339 l 50 506 l 767 506 l 767 339 z "},"—":{"ha":1083,"x_min":50,"x_max":1033,"o":"m 1033 339 l 50 339 l 50 506 l 1033 506 l 1033 339 z "},"_":{"ha":772,"x_min":42,"x_max":731,"o":"m 731 -264 l 42 -264 l 42 -93 l 731 -93 l 731 -264 z "},".":{"ha":431,"x_min":93,"x_max":338,"o":"m 215 -15 l 215 -15 q 123 16 153 -15 q 93 96 93 47 l 93 96 l 93 124 q 123 203 93 172 q 215 235 153 235 l 215 235 q 308 203 278 235 q 338 124 338 172 l 338 124 l 338 96 q 308 16 338 47 q 215 -15 278 -15 z "},"…":{"ha":1246,"x_min":93,"x_max":1153,"o":"m 215 -15 l 215 -15 q 123 16 153 -15 q 93 96 93 47 l 93 96 l 93 124 q 123 203 93 172 q 215 235 153 235 l 215 235 q 308 203 278 235 q 338 124 338 172 l 338 124 l 338 96 q 308 16 338 47 q 215 -15 278 -15 z m 622 -15 l 622 -15 q 530 16 560 -15 q 500 96 500 47 l 500 96 l 500 124 q 530 203 500 172 q 622 235 560 235 l 622 235 q 715 203 685 235 q 744 124 744 172 l 744 124 l 744 96 q 715 16 744 47 q 622 -15 685 -15 z m 1031 -15 l 1031 -15 q 938 16 968 -15 q 908 96 908 47 l 908 96 l 908 124 q 938 203 908 172 q 1031 235 968 235 l 1031 235 q 1123 203 1093 235 q 1153 124 1153 172 l 1153 124 l 1153 96 q 1123 16 1153 47 q 1031 -15 1093 -15 z "},":":{"ha":458,"x_min":107,"x_max":351,"o":"m 229 -15 l 229 -15 q 137 16 167 -15 q 107 96 107 47 l 107 96 l 107 124 q 137 203 107 172 q 229 235 167 235 l 229 235 q 322 203 292 235 q 351 124 351 172 l 351 124 l 351 96 q 322 16 351 47 q 229 -15 292 -15 z m 229 494 l 229 494 q 137 526 167 494 q 107 606 107 557 l 107 606 l 107 633 q 137 713 107 682 q 229 744 167 744 l 229 744 q 322 713 292 744 q 351 633 351 682 l 351 633 l 351 606 q 322 526 351 557 q 229 494 292 494 z "},",":{"ha":431,"x_min":53,"x_max":340,"o":"m 218 235 l 218 235 q 310 203 281 235 q 340 124 340 172 l 340 124 l 340 96 q 299 -71 340 11 q 192 -204 258 -153 l 192 -204 l 53 -204 q 136 -113 101 -158 q 189 -12 171 -68 l 189 -12 q 118 26 140 -4 q 96 96 96 56 l 96 96 l 96 124 q 126 203 96 172 q 218 235 156 235 z "},";":{"ha":458,"x_min":67,"x_max":354,"o":"m 232 235 l 232 235 q 324 203 294 235 q 354 124 354 172 l 354 124 l 354 96 q 313 -71 354 11 q 206 -204 272 -153 l 206 -204 l 67 -204 q 150 -113 115 -158 q 203 -12 185 -68 l 203 -12 q 132 26 154 -4 q 110 96 110 56 l 110 96 l 110 124 q 140 203 110 172 q 232 235 169 235 z m 229 494 l 229 494 q 137 526 167 494 q 107 606 107 557 l 107 606 l 107 633 q 137 713 107 682 q 229 744 167 744 l 229 744 q 322 713 292 744 q 351 633 351 682 l 351 633 l 351 606 q 322 526 351 557 q 229 494 292 494 z "},"'":{"ha":372,"x_min":94,"x_max":278,"o":"m 278 575 l 94 575 l 94 1028 l 278 1028 l 278 575 z "},"\"":{"ha":685,"x_min":94,"x_max":590,"o":"m 278 575 l 94 575 l 94 1028 l 278 1028 l 278 575 z m 590 575 l 407 575 l 407 1028 l 590 1028 l 590 575 z "},"‘":{"ha":417,"x_min":86,"x_max":367,"o":"m 206 611 l 206 611 q 115 640 143 611 q 86 711 86 668 l 86 711 l 86 740 q 98 822 86 781 q 130 900 110 863 q 178 970 150 938 q 238 1028 206 1003 l 238 1028 l 367 1028 q 288 943 321 986 q 239 847 256 900 l 239 847 q 304 810 283 839 q 325 746 325 782 l 325 746 l 325 711 q 297 640 325 668 q 206 611 268 611 z "},"’":{"ha":417,"x_min":50,"x_max":331,"o":"m 211 1042 l 211 1042 q 302 1013 274 1042 q 331 942 331 985 l 331 942 l 331 913 q 319 831 331 872 q 287 753 307 790 q 239 683 267 715 q 179 625 211 650 l 179 625 l 50 625 q 128 710 96 667 q 178 806 161 753 l 178 806 q 113 842 133 814 q 92 907 92 871 l 92 907 l 92 942 q 120 1013 92 985 q 211 1042 149 1042 z "},"“":{"ha":743,"x_min":86,"x_max":693,"o":"m 206 611 l 206 611 q 115 640 143 611 q 86 711 86 668 l 86 711 l 86 740 q 98 822 86 781 q 130 900 110 863 q 178 970 150 938 q 238 1028 206 1003 l 238 1028 l 367 1028 q 288 943 321 986 q 239 847 256 900 l 239 847 q 304 810 283 839 q 325 746 325 782 l 325 746 l 325 711 q 297 640 325 668 q 206 611 268 611 z m 532 611 l 532 611 q 441 640 469 611 q 413 711 413 668 l 413 711 l 413 740 q 424 822 413 781 q 456 900 436 863 q 504 970 476 938 q 564 1028 532 1003 l 564 1028 l 693 1028 q 615 943 647 986 q 565 847 582 900 l 565 847 q 631 810 610 839 q 651 746 651 782 l 651 746 l 651 711 q 623 640 651 668 q 532 611 594 611 z "},"”":{"ha":743,"x_min":50,"x_max":657,"o":"m 211 1042 l 211 1042 q 302 1013 274 1042 q 331 942 331 985 l 331 942 l 331 913 q 319 831 331 872 q 287 753 307 790 q 239 683 267 715 q 179 625 211 650 l 179 625 l 50 625 q 128 710 96 667 q 178 806 161 753 l 178 806 q 113 842 133 814 q 92 907 92 871 l 92 907 l 92 942 q 120 1013 92 985 q 211 1042 149 1042 z m 538 1042 l 538 1042 q 628 1013 600 1042 q 657 942 657 985 l 657 942 l 657 913 q 645 831 657 872 q 613 753 633 790 q 565 683 593 715 q 506 625 538 650 l 506 625 l 376 625 q 455 710 422 667 q 504 806 488 753 l 504 806 q 439 842 460 814 q 418 907 418 871 l 418 907 l 418 942 q 447 1013 418 985 q 538 1042 475 1042 z "},"‚":{"ha":422,"x_min":53,"x_max":333,"o":"m 215 254 l 215 254 q 306 225 279 254 q 333 151 333 196 l 333 151 l 333 121 q 322 40 333 81 q 291 -37 311 0 q 244 -106 271 -74 q 186 -162 217 -137 l 186 -162 l 53 -162 q 133 -78 100 -121 q 183 18 167 -35 l 183 18 q 117 56 138 26 q 97 121 97 85 l 97 121 l 97 151 q 124 225 97 196 q 215 254 151 254 z "},"„":{"ha":749,"x_min":53,"x_max":660,"o":"m 215 254 l 215 254 q 306 225 279 254 q 333 151 333 196 l 333 151 l 333 121 q 322 40 333 81 q 291 -37 311 0 q 244 -106 271 -74 q 186 -162 217 -137 l 186 -162 l 53 -162 q 133 -78 100 -121 q 183 18 167 -35 l 183 18 q 117 56 138 26 q 97 121 97 85 l 97 121 l 97 151 q 124 225 97 196 q 215 254 151 254 z m 542 254 l 542 254 q 633 225 606 254 q 660 151 660 196 l 660 151 l 660 121 q 649 40 660 81 q 617 -37 638 0 q 570 -106 597 -74 q 513 -162 543 -137 l 513 -162 l 379 -162 q 460 -78 426 -121 q 510 18 493 -35 l 510 18 q 444 56 464 26 q 424 121 424 85 l 424 121 l 424 151 q 451 225 424 196 q 542 254 478 254 z "},"‹":{"ha":440,"x_min":53,"x_max":371,"o":"m 371 196 l 311 68 l 53 290 l 53 465 l 311 688 l 371 560 l 204 378 l 371 196 z "},"›":{"ha":440,"x_min":69,"x_max":388,"o":"m 129 68 l 69 196 l 236 378 l 69 560 l 129 688 l 388 465 l 388 290 l 129 68 z "},"«":{"ha":775,"x_min":53,"x_max":706,"o":"m 371 196 l 311 68 l 53 290 l 53 465 l 311 688 l 371 560 l 204 378 l 371 196 z m 706 196 l 646 68 l 388 290 l 388 465 l 646 688 l 706 560 l 539 378 l 706 196 z "},"»":{"ha":775,"x_min":69,"x_max":722,"o":"m 129 68 l 69 196 l 236 378 l 69 560 l 129 688 l 388 465 l 388 290 l 129 68 z m 464 68 l 404 196 l 571 378 l 404 560 l 464 688 l 722 465 l 722 290 l 464 68 z "},"¡":{"ha":444,"x_min":99,"x_max":346,"o":"m 331 -240 l 114 -240 l 114 29 l 178 424 l 265 424 l 331 29 l 331 -240 z m 222 501 l 222 501 q 127 532 156 501 q 99 607 99 563 l 99 607 l 99 640 q 127 715 99 685 q 222 746 156 746 l 222 746 q 317 715 289 746 q 346 640 346 685 l 346 640 l 346 607 q 317 532 346 563 q 222 501 289 501 z "},"!":{"ha":444,"x_min":99,"x_max":346,"o":"m 268 306 l 181 306 l 115 700 l 115 969 l 332 969 l 332 700 l 268 306 z m 222 -17 l 222 -17 q 127 14 156 -17 q 99 89 99 44 l 99 89 l 99 122 q 127 197 99 167 q 222 228 156 228 l 222 228 q 317 197 289 228 q 346 122 346 167 l 346 122 l 346 89 q 317 14 346 44 q 222 -17 289 -17 z "},"¿":{"ha":686,"x_min":38,"x_max":675,"o":"m 361 -257 l 361 -257 q 228 -236 288 -257 q 126 -178 169 -215 q 60 -87 83 -140 q 38 29 38 -35 l 38 29 q 57 135 38 88 q 110 217 76 182 q 188 275 143 253 q 281 306 232 297 l 281 306 l 281 406 l 475 406 l 475 193 q 310 156 365 189 q 256 46 256 124 l 256 46 l 256 26 q 287 -54 256 -26 q 368 -82 318 -82 l 368 -82 q 458 -49 422 -82 q 506 36 493 -15 l 506 36 l 675 -35 q 639 -117 663 -76 q 577 -188 615 -157 q 485 -238 539 -219 q 361 -257 432 -257 z m 375 501 l 375 501 q 280 532 308 501 q 251 607 251 563 l 251 607 l 251 640 q 280 715 251 685 q 375 746 308 746 l 375 746 q 470 715 442 746 q 499 640 499 685 l 499 640 l 499 607 q 470 532 499 563 q 375 501 442 501 z "},"?":{"ha":694,"x_min":19,"x_max":657,"o":"m 414 324 l 219 324 l 219 536 q 384 573 329 540 q 439 683 439 606 l 439 683 l 439 703 q 408 783 439 756 q 326 811 376 811 l 326 811 q 237 778 272 811 q 189 693 201 744 l 189 693 l 19 764 q 56 845 32 806 q 117 916 79 885 q 209 967 156 947 q 333 986 263 986 l 333 986 q 465 965 406 986 q 568 907 525 944 q 634 817 611 869 q 657 700 657 764 l 657 700 q 638 594 657 642 q 585 512 618 547 q 507 454 551 476 q 414 424 463 432 l 414 424 l 414 324 z m 319 -17 l 319 -17 q 224 14 253 -17 q 196 89 196 44 l 196 89 l 196 122 q 224 197 196 167 q 319 228 253 228 l 319 228 q 415 197 386 228 q 443 122 443 167 l 443 122 l 443 89 q 415 14 443 44 q 319 -17 386 -17 z "},"(":{"ha":469,"x_min":51,"x_max":488,"o":"m 51 433 l 51 433 q 70 626 51 533 q 121 799 89 719 q 197 944 153 879 q 294 1056 242 1010 l 294 1056 l 488 1056 q 310 805 375 951 q 246 481 246 658 l 246 481 l 246 383 q 311 54 246 199 q 488 -192 376 -90 l 488 -192 l 293 -192 q 199 -83 243 -149 q 122 63 154 -18 q 70 238 89 144 q 51 433 51 332 z "},")":{"ha":469,"x_min":-18,"x_max":418,"o":"m 418 433 l 418 433 q 399 238 418 332 q 348 63 381 144 q 271 -83 315 -18 q 176 -192 226 -149 l 176 -192 l -18 -192 q 158 54 93 -90 q 224 383 224 199 l 224 383 l 224 481 q 159 805 224 658 q -18 1056 94 951 l -18 1056 l 175 1056 q 272 944 228 1010 q 349 799 317 879 q 399 626 381 719 q 418 433 418 533 z "},"[":{"ha":464,"x_min":107,"x_max":394,"o":"m 394 -192 l 107 -192 l 107 1056 l 394 1056 l 394 911 l 297 911 l 297 -47 l 394 -47 l 394 -192 z "},"]":{"ha":464,"x_min":69,"x_max":357,"o":"m 69 1056 l 357 1056 l 357 -192 l 69 -192 l 69 -47 l 167 -47 l 167 911 l 69 911 l 69 1056 z "},"{":{"ha":517,"x_min":26,"x_max":447,"o":"m 447 -192 l 296 -192 q 200 -156 239 -192 q 161 -51 161 -119 l 161 -51 l 161 231 q 123 323 161 292 q 26 354 85 354 l 26 354 l 26 511 q 123 542 85 511 q 161 635 161 574 l 161 635 l 161 915 q 200 1019 161 983 q 296 1056 239 1056 l 296 1056 l 447 1056 l 447 911 l 351 911 l 351 613 q 340 549 351 579 q 308 496 328 519 q 263 456 289 472 q 207 435 236 440 l 207 435 l 207 429 q 263 408 236 424 q 308 368 289 392 q 340 315 328 344 q 351 251 351 285 l 351 251 l 351 -47 l 447 -47 l 447 -192 z "},"}":{"ha":517,"x_min":69,"x_max":490,"o":"m 69 1056 l 221 1056 q 317 1019 278 1056 q 356 915 356 983 l 356 915 l 356 635 q 394 542 356 574 q 490 511 432 511 l 490 511 l 490 354 q 394 323 432 354 q 356 231 356 292 l 356 231 l 356 -51 q 317 -156 356 -119 q 221 -192 278 -192 l 221 -192 l 69 -192 l 69 -47 l 165 -47 l 165 253 q 177 316 165 286 q 208 369 189 346 q 254 409 228 393 q 310 431 281 425 l 310 431 l 310 436 q 254 458 281 442 q 208 497 228 474 q 177 551 189 521 q 165 614 165 581 l 165 614 l 165 911 l 69 911 l 69 1056 z "},"/":{"ha":639,"x_min":4,"x_max":588,"o":"m 174 -210 l 4 -210 l 418 1028 l 588 1028 l 174 -210 z "},"\\":{"ha":639,"x_min":50,"x_max":633,"o":"m 633 -210 l 464 -210 l 50 1028 l 219 1028 l 633 -210 z "},"⁄":{"ha":204,"x_min":-340,"x_max":544,"o":"m -190 0 l -340 0 l 394 969 l 544 969 l -190 0 z "},"∕":{"ha":204,"x_min":-340,"x_max":544,"o":"m -190 0 l -340 0 l 394 969 l 544 969 l -190 0 z "},"%":{"ha":1353,"x_min":69,"x_max":1283,"o":"m 432 0 l 249 0 l 921 969 l 1104 969 l 432 0 z m 319 436 l 319 436 q 133 506 197 436 q 69 711 69 575 l 69 711 q 133 917 69 847 q 319 986 197 986 l 319 986 q 506 917 442 986 q 569 711 569 847 l 569 711 q 506 506 569 575 q 319 436 442 436 z m 319 556 l 319 556 q 374 584 356 556 q 392 675 392 613 l 392 675 l 392 747 q 374 838 392 810 q 319 867 356 867 l 319 867 q 265 838 283 867 q 247 747 247 810 l 247 747 l 247 675 q 265 584 247 613 q 319 556 283 556 z m 1033 -17 l 1033 -17 q 847 53 911 -17 q 783 258 783 122 l 783 258 q 847 464 783 394 q 1033 533 911 533 l 1033 533 q 1219 464 1156 533 q 1283 258 1283 394 l 1283 258 q 1219 53 1283 122 q 1033 -17 1156 -17 z m 1033 103 l 1033 103 q 1088 131 1069 103 q 1106 222 1106 160 l 1106 222 l 1106 294 q 1088 385 1106 357 q 1033 414 1069 414 l 1033 414 q 979 385 997 414 q 961 294 961 357 l 961 294 l 961 222 q 979 131 961 160 q 1033 103 997 103 z "},"‰":{"ha":1919,"x_min":69,"x_max":1850,"o":"m 432 0 l 249 0 l 921 969 l 1104 969 l 432 0 z m 319 436 l 319 436 q 133 506 197 436 q 69 711 69 575 l 69 711 q 133 917 69 847 q 319 986 197 986 l 319 986 q 506 917 442 986 q 569 711 569 847 l 569 711 q 506 506 569 575 q 319 436 442 436 z m 319 556 l 319 556 q 374 584 356 556 q 392 675 392 613 l 392 675 l 392 747 q 374 838 392 810 q 319 867 356 867 l 319 867 q 265 838 283 867 q 247 747 247 810 l 247 747 l 247 675 q 265 584 247 613 q 319 556 283 556 z m 1033 -17 l 1033 -17 q 847 53 911 -17 q 783 258 783 122 l 783 258 q 847 464 783 394 q 1033 533 911 533 l 1033 533 q 1219 464 1156 533 q 1283 258 1283 394 l 1283 258 q 1219 53 1283 122 q 1033 -17 1156 -17 z m 1033 103 l 1033 103 q 1088 131 1069 103 q 1106 222 1106 160 l 1106 222 l 1106 294 q 1088 385 1106 357 q 1033 414 1069 414 l 1033 414 q 979 385 997 414 q 961 294 961 357 l 961 294 l 961 222 q 979 131 961 160 q 1033 103 997 103 z m 1600 -17 l 1600 -17 q 1414 53 1478 -17 q 1350 258 1350 122 l 1350 258 q 1414 464 1350 394 q 1600 533 1478 533 l 1600 533 q 1786 464 1722 533 q 1850 258 1850 394 l 1850 258 q 1786 53 1850 122 q 1600 -17 1722 -17 z m 1600 103 l 1600 103 q 1654 131 1636 103 q 1672 222 1672 160 l 1672 222 l 1672 294 q 1654 385 1672 357 q 1600 414 1636 414 l 1600 414 q 1546 385 1564 414 q 1528 294 1528 357 l 1528 294 l 1528 222 q 1546 131 1528 160 q 1600 103 1564 103 z "},"|":{"ha":558,"x_min":192,"x_max":367,"o":"m 367 -192 l 192 -192 l 192 1056 l 367 1056 l 367 -192 z "},"¦":{"ha":558,"x_min":192,"x_max":367,"o":"m 367 557 l 192 557 l 192 1056 l 367 1056 l 367 557 z m 367 -192 l 192 -192 l 192 307 l 367 307 l 367 -192 z "},"§":{"ha":790,"x_min":69,"x_max":721,"o":"m 678 18 l 678 18 q 656 -83 678 -39 q 594 -159 633 -128 q 499 -207 554 -190 q 376 -224 443 -224 l 376 -224 q 232 -201 304 -224 q 100 -124 160 -179 l 100 -124 l 200 -1 q 281 -58 236 -37 q 379 -78 325 -78 l 379 -78 q 471 -56 436 -78 q 506 10 506 -33 l 506 10 q 476 70 506 49 q 385 108 447 92 l 385 108 l 278 138 q 179 176 219 154 q 115 226 139 199 q 80 283 90 253 q 69 343 69 313 l 69 343 q 106 453 69 403 q 218 535 142 503 l 218 535 l 218 558 q 140 638 169 590 q 111 751 111 686 l 111 751 q 133 852 111 808 q 195 926 156 896 q 290 971 235 956 q 411 986 346 986 l 411 986 q 558 965 486 986 q 690 886 629 943 l 690 886 l 589 764 q 510 820 553 800 q 407 840 468 840 l 407 840 q 319 822 354 840 q 283 758 283 803 l 283 758 q 313 701 283 722 q 404 664 342 681 l 404 664 l 511 635 q 610 595 569 618 q 675 545 650 572 q 710 488 700 518 q 721 426 721 457 l 721 426 q 685 317 721 367 q 571 235 649 267 l 571 235 l 571 213 q 649 133 619 181 q 678 18 678 85 z m 550 364 l 550 364 q 528 430 550 400 q 439 479 506 460 l 439 479 l 333 508 q 289 522 308 515 l 289 522 q 252 466 265 494 q 239 406 239 438 l 239 406 q 261 342 239 371 q 350 293 283 313 l 350 293 l 456 264 q 478 257 467 261 q 501 249 490 253 l 501 249 q 538 304 525 276 q 550 364 550 332 z "},"¶":{"ha":940,"x_min":43,"x_max":867,"o":"m 336 -207 l 336 361 q 222 385 275 361 q 128 451 168 410 q 66 547 89 492 q 43 665 43 603 l 43 665 q 66 783 43 728 q 128 880 89 839 q 222 945 168 921 q 336 969 275 969 l 336 969 l 867 969 l 867 822 l 775 822 l 775 -207 l 624 -207 l 624 822 l 488 822 l 488 -207 l 336 -207 z "},"©":{"ha":1100,"x_min":67,"x_max":1033,"o":"m 550 -17 l 550 -17 q 356 18 444 -17 q 203 118 267 53 q 103 276 139 183 q 67 485 67 368 l 67 485 q 103 694 67 601 q 203 851 139 786 q 356 951 267 917 q 550 986 444 986 l 550 986 q 744 951 656 986 q 897 851 833 917 q 997 694 961 786 q 1033 485 1033 601 l 1033 485 q 997 276 1033 368 q 897 118 961 183 q 744 18 833 53 q 550 -17 656 -17 z m 550 72 l 550 72 q 703 101 633 72 q 823 178 772 129 q 902 293 874 226 q 931 438 931 360 l 931 438 l 931 532 q 902 676 931 608 q 823 792 874 743 q 703 869 772 840 q 550 897 633 897 l 550 897 q 397 869 467 897 q 277 792 328 840 q 198 676 226 743 q 169 532 169 608 l 169 532 l 169 438 q 198 293 169 360 q 277 178 226 226 q 397 101 328 129 q 550 72 467 72 z m 560 186 l 560 186 q 438 208 492 186 q 347 268 385 229 q 290 362 310 307 q 271 485 271 417 l 271 485 q 290 608 271 553 q 347 701 310 663 q 438 762 385 740 q 560 783 492 783 l 560 783 q 722 740 661 783 q 811 626 783 697 l 811 626 l 672 560 q 631 618 656 596 q 560 640 606 640 l 560 640 q 488 613 514 640 q 461 540 461 586 l 461 540 l 461 429 q 488 356 461 383 q 560 329 514 329 l 560 329 q 635 352 606 329 q 682 410 664 375 l 682 410 l 822 344 q 785 284 807 313 q 732 233 764 256 q 658 199 700 211 q 560 186 615 186 z "},"®":{"ha":644,"x_min":42,"x_max":603,"o":"m 322 414 l 322 414 q 213 435 264 414 q 123 495 161 457 q 63 586 85 533 q 42 700 42 639 l 42 700 q 63 814 42 761 q 123 905 85 867 q 213 965 161 943 q 322 986 264 986 l 322 986 q 432 965 381 986 q 522 905 483 943 q 581 814 560 867 q 603 700 603 761 l 603 700 q 581 586 603 639 q 522 495 560 533 q 432 435 483 457 q 322 414 381 414 z m 322 479 l 322 479 q 401 492 364 479 q 467 531 439 506 q 511 594 494 557 q 528 678 528 631 l 528 678 l 528 722 q 511 806 528 769 q 467 869 494 843 q 401 908 439 894 q 322 921 364 921 l 322 921 q 243 908 281 921 q 178 869 206 894 q 133 806 150 843 q 117 722 117 769 l 117 722 l 117 678 q 133 594 117 631 q 178 531 150 557 q 243 492 206 506 q 322 479 281 479 z m 290 640 l 290 556 l 201 556 l 201 846 l 343 846 q 428 818 401 846 q 454 749 454 790 l 454 749 q 440 691 454 714 q 403 657 426 668 l 403 657 l 463 556 l 367 556 l 322 640 l 290 640 z m 290 706 l 325 706 q 364 738 364 706 l 364 738 l 364 747 q 325 779 364 779 l 325 779 l 290 779 l 290 706 z "},"™":{"ha":853,"x_min":33,"x_max":781,"o":"m 246 568 l 126 568 l 126 885 l 33 885 l 33 969 l 338 969 l 338 885 l 246 885 l 246 568 z m 479 568 l 379 568 l 379 969 l 504 969 l 581 821 l 589 821 l 664 969 l 781 969 l 781 568 l 682 568 l 682 700 l 693 831 l 688 831 l 581 629 l 472 831 l 467 831 l 479 700 l 479 568 z "},"ª":{"ha":624,"x_min":64,"x_max":563,"o":"m 563 563 l 563 458 l 479 458 q 415 477 444 458 q 378 547 385 496 l 378 547 l 372 547 q 319 474 358 499 q 222 450 279 450 l 222 450 q 108 490 151 450 q 64 601 64 529 l 64 601 q 121 718 64 681 q 286 756 178 756 l 286 756 l 364 756 l 364 782 q 344 850 364 828 q 276 872 325 872 l 276 872 q 203 855 232 872 q 156 810 175 838 l 156 810 l 78 879 q 156 951 103 924 q 293 978 210 978 l 293 978 q 451 931 393 978 q 508 788 508 883 l 508 788 l 508 563 l 563 563 z m 364 678 l 290 678 q 204 618 204 678 l 204 618 l 204 599 q 224 558 204 571 q 278 544 244 544 l 278 544 q 339 563 314 544 q 364 617 364 581 l 364 617 l 364 678 z "},"º":{"ha":601,"x_min":53,"x_max":550,"o":"m 301 450 l 301 450 q 118 521 183 450 q 53 714 53 592 l 53 714 q 118 907 53 836 q 301 978 183 978 l 301 978 q 485 907 419 978 q 550 714 550 836 l 550 714 q 485 521 550 592 q 301 450 419 450 z m 301 558 l 301 558 q 375 587 349 558 q 401 674 401 615 l 401 674 l 401 754 q 375 841 401 813 q 301 869 349 869 l 301 869 q 228 841 254 869 q 201 754 201 813 l 201 754 l 201 674 q 228 587 201 615 q 301 558 254 558 z "},"°":{"ha":653,"x_min":69,"x_max":583,"o":"m 326 464 l 326 464 q 225 483 272 464 q 143 538 178 503 q 89 621 108 574 q 69 725 69 668 l 69 725 q 89 828 69 781 q 143 912 108 876 q 225 967 178 947 q 326 986 272 986 l 326 986 q 428 967 381 986 q 510 912 475 947 q 564 828 544 876 q 583 725 583 781 l 583 725 q 564 621 583 668 q 510 538 544 574 q 428 483 475 503 q 326 464 381 464 z m 326 596 l 326 596 q 411 633 379 596 q 443 725 443 669 l 443 725 q 411 817 443 781 q 326 854 379 854 l 326 854 q 242 817 274 854 q 210 725 210 781 l 210 725 q 242 633 210 669 q 326 596 274 596 z "},"*":{"ha":835,"x_min":44,"x_max":790,"o":"m 417 557 l 267 331 l 122 428 l 299 640 l 44 717 l 99 875 l 340 774 l 328 1038 l 507 1038 l 494 774 l 736 875 l 790 717 l 536 640 l 711 428 l 567 332 l 417 557 z "},"†":{"ha":725,"x_min":36,"x_max":689,"o":"m 450 -278 l 275 -278 l 275 567 l 36 567 l 36 717 l 275 717 l 275 1028 l 450 1028 l 450 717 l 689 717 l 689 567 l 450 567 l 450 -278 z "},"‡":{"ha":753,"x_min":50,"x_max":703,"o":"m 464 -278 l 289 -278 l 289 33 l 50 33 l 50 183 l 289 183 l 289 567 l 50 567 l 50 717 l 289 717 l 289 1028 l 464 1028 l 464 717 l 703 717 l 703 567 l 464 567 l 464 183 l 703 183 l 703 33 l 464 33 l 464 -278 z "},"#":{"ha":878,"x_min":15,"x_max":863,"o":"m 467 0 l 508 240 l 286 240 l 244 0 l 114 0 l 156 240 l 15 240 l 15 365 l 178 365 l 218 604 l 78 604 l 78 729 l 240 729 l 282 969 l 411 969 l 369 729 l 592 729 l 633 969 l 764 969 l 722 729 l 863 729 l 863 604 l 700 604 l 660 365 l 800 365 l 800 240 l 638 240 l 596 0 l 467 0 z m 307 365 l 529 365 l 571 604 l 349 604 l 307 365 z "},"^":{"ha":833,"x_min":58,"x_max":776,"o":"m 776 464 l 611 385 l 417 746 l 408 746 l 214 385 l 58 464 l 336 969 l 503 969 l 776 464 z "},"~":{"ha":833,"x_min":74,"x_max":760,"o":"m 578 294 l 578 294 q 488 308 526 294 q 403 344 449 321 l 403 344 q 329 377 365 364 q 250 390 293 390 l 250 390 q 195 381 218 390 q 142 353 172 372 l 142 353 l 74 469 q 143 531 99 506 q 256 556 188 556 l 256 556 q 346 542 307 556 q 431 506 385 529 l 431 506 q 504 473 468 486 q 583 460 540 460 l 583 460 q 638 469 615 460 q 692 497 661 478 l 692 497 l 760 381 q 690 319 735 344 q 578 294 646 294 z "},"+":{"ha":833,"x_min":93,"x_max":740,"o":"m 506 88 l 328 88 l 328 343 l 93 343 l 93 507 l 328 507 l 328 763 l 506 763 l 506 507 l 740 507 l 740 343 l 506 343 l 506 88 z "},"−":{"ha":833,"x_min":93,"x_max":740,"o":"m 740 343 l 93 343 l 93 507 l 740 507 l 740 343 z "},"±":{"ha":833,"x_min":93,"x_max":740,"o":"m 506 256 l 328 256 l 328 488 l 93 488 l 93 653 l 328 653 l 328 882 l 506 882 l 506 653 l 740 653 l 740 488 l 506 488 l 506 256 z m 740 0 l 93 0 l 93 165 l 740 165 l 740 0 z "},"×":{"ha":833,"x_min":110,"x_max":724,"o":"m 610 99 l 417 301 l 224 99 l 110 213 l 303 415 l 110 618 l 224 732 l 417 529 l 610 732 l 724 618 l 531 415 l 724 213 l 610 99 z "},"÷":{"ha":833,"x_min":93,"x_max":739,"o":"m 739 343 l 93 343 l 93 507 l 739 507 l 739 343 z m 417 39 l 417 39 q 324 67 351 39 q 296 135 296 96 l 296 135 l 296 168 q 324 235 296 207 q 417 264 351 264 l 417 264 q 510 235 482 264 q 538 168 538 207 l 538 168 l 538 135 q 510 67 538 96 q 417 39 482 39 z m 417 583 l 417 583 q 324 612 351 583 q 296 679 296 640 l 296 679 l 296 713 q 324 780 296 751 q 417 808 351 808 l 417 808 q 510 780 482 808 q 538 713 538 751 l 538 713 l 538 679 q 510 612 538 640 q 417 583 482 583 z "},"=":{"ha":833,"x_min":93,"x_max":740,"o":"m 740 503 l 93 503 l 93 667 l 740 667 l 740 503 z m 740 181 l 93 181 l 93 344 l 740 344 l 740 181 z "},"≈":{"ha":833,"x_min":78,"x_max":764,"o":"m 582 456 l 582 456 q 492 469 531 456 q 407 506 453 482 l 407 506 q 333 538 369 525 q 254 551 297 551 l 254 551 q 199 542 222 551 q 146 514 176 533 l 146 514 l 78 631 q 147 692 103 667 q 260 717 192 717 l 260 717 q 350 703 311 717 q 435 667 389 690 l 435 667 q 508 634 472 647 q 588 621 544 621 l 588 621 q 642 630 619 621 q 696 658 665 639 l 696 658 l 764 542 q 694 481 739 506 q 582 456 650 456 z m 582 133 l 582 133 q 492 147 531 133 q 407 183 453 160 l 407 183 q 333 216 369 203 q 254 229 297 229 l 254 229 q 199 220 222 229 q 146 192 176 211 l 146 192 l 78 308 q 147 369 103 344 q 260 394 192 394 l 260 394 q 350 381 311 394 q 435 344 389 368 l 435 344 q 508 312 472 325 q 588 299 544 299 l 588 299 q 642 308 619 299 q 696 336 665 317 l 696 336 l 764 219 q 694 158 739 183 q 582 133 650 133 z "},"≠":{"ha":833,"x_min":93,"x_max":740,"o":"m 303 51 l 129 51 l 199 181 l 93 181 l 93 342 l 285 342 l 369 506 l 93 506 l 93 667 l 454 667 l 525 799 l 700 799 l 629 667 l 740 667 l 740 506 l 544 506 l 458 342 l 740 342 l 740 181 l 372 181 l 303 51 z "},"<":{"ha":833,"x_min":143,"x_max":690,"o":"m 690 -3 l 143 358 l 143 479 l 690 839 l 690 632 l 360 424 l 360 414 l 690 206 l 690 -3 z "},">":{"ha":833,"x_min":143,"x_max":690,"o":"m 143 -3 l 143 206 l 474 414 l 474 424 l 143 632 l 143 839 l 690 481 l 690 360 l 143 -3 z "},"≤":{"ha":833,"x_min":143,"x_max":690,"o":"m 690 0 l 143 0 l 143 161 l 690 161 l 690 0 z m 690 846 l 690 656 l 388 524 l 388 514 l 690 383 l 690 193 l 143 456 l 143 581 l 690 846 z "},"≥":{"ha":833,"x_min":143,"x_max":690,"o":"m 143 193 l 143 383 l 446 515 l 446 525 l 143 656 l 143 846 l 690 583 l 690 458 l 143 193 z m 143 0 l 143 161 l 690 161 l 690 0 l 143 0 z "},"·":{"ha":497,"x_min":126,"x_max":371,"o":"m 249 296 l 249 296 q 156 327 186 296 q 126 407 126 358 l 126 407 l 126 435 q 156 515 126 483 q 249 546 186 546 l 249 546 q 341 515 311 546 q 371 435 371 483 l 371 435 l 371 407 q 341 327 371 358 q 249 296 311 296 z "},"•":{"ha":597,"x_min":86,"x_max":511,"o":"m 299 208 l 299 208 q 200 222 240 208 q 135 260 160 236 q 98 318 110 285 q 86 390 86 351 l 86 390 l 86 440 q 98 513 86 479 q 135 570 110 546 q 200 608 160 594 q 299 622 240 622 l 299 622 q 397 608 357 622 q 463 570 438 594 q 499 513 488 546 q 511 440 511 479 l 511 440 l 511 390 q 499 318 511 351 q 463 260 488 285 q 397 222 438 236 q 299 208 357 208 z "},"◊":{"ha":833,"x_min":74,"x_max":760,"o":"m 475 0 l 358 0 l 74 485 l 358 969 l 475 969 l 760 485 l 475 0 z m 413 199 l 421 199 l 578 485 l 421 771 l 413 771 l 256 485 l 413 199 z "},"¬":{"ha":833,"x_min":72,"x_max":740,"o":"m 740 108 l 572 108 l 572 343 l 72 343 l 72 507 l 740 507 l 740 108 z "},"√":{"ha":833,"x_min":19,"x_max":813,"o":"m 532 0 l 288 0 l 125 557 l 19 557 l 19 729 l 256 729 l 344 415 l 407 171 l 418 171 l 481 415 l 642 969 l 813 969 l 532 0 z "},"∫":{"ha":622,"x_min":49,"x_max":574,"o":"m 49 -278 l 49 -118 l 208 -118 l 208 819 q 222 903 208 865 q 262 969 235 942 q 330 1013 289 997 q 426 1028 371 1028 l 426 1028 l 574 1028 l 574 868 l 414 868 l 414 -69 q 401 -153 414 -115 q 360 -219 388 -192 q 292 -262 333 -247 q 196 -278 251 -278 l 196 -278 l 49 -278 z "},"∞":{"ha":1100,"x_min":31,"x_max":1069,"o":"m 310 118 l 310 118 q 105 193 179 118 q 31 403 31 268 l 31 403 q 105 613 31 538 q 310 688 179 688 l 310 688 q 474 645 403 688 q 579 499 544 603 l 579 499 l 588 499 q 609 575 590 540 q 657 635 628 610 q 721 674 686 660 q 790 688 756 688 l 790 688 q 995 613 921 688 q 1069 403 1069 538 l 1069 403 q 995 193 1069 268 q 790 118 921 118 l 790 118 q 626 160 697 118 q 521 307 556 203 l 521 307 l 513 307 q 491 231 510 265 q 443 171 472 196 q 379 132 414 146 q 310 118 344 118 z m 310 275 l 310 275 q 413 309 369 275 q 472 386 457 343 l 472 386 q 446 440 461 414 q 410 487 431 467 q 365 519 390 507 q 310 531 339 531 l 310 531 q 236 501 263 531 q 210 415 210 472 l 210 415 l 210 390 q 236 304 210 333 q 310 275 263 275 z m 790 275 l 790 275 q 864 304 838 275 q 890 390 890 333 l 890 390 l 890 415 q 864 501 890 472 q 790 531 838 531 l 790 531 q 687 497 731 531 q 628 419 643 463 l 628 419 q 653 365 638 392 q 690 319 669 339 q 735 287 710 299 q 790 275 761 275 z "},"℮":{"ha":992,"x_min":42,"x_max":950,"o":"m 297 485 l 297 122 q 386 83 338 97 q 496 68 435 68 l 496 68 q 703 125 621 68 q 835 275 785 182 l 835 275 l 911 231 q 843 133 883 178 q 750 54 803 88 q 633 2 697 21 q 496 -17 569 -17 l 496 -17 q 315 19 397 -17 q 171 119 232 54 q 76 277 110 185 q 42 485 42 369 l 42 485 q 76 692 42 599 q 171 850 110 785 q 315 951 232 915 q 496 986 397 986 l 496 986 q 676 951 593 986 q 821 850 760 915 q 916 692 882 785 q 950 485 950 599 l 950 485 l 297 485 z m 297 565 l 694 565 l 694 851 q 606 890 654 875 q 496 906 557 906 l 496 906 q 386 890 435 906 q 297 851 338 875 l 297 851 l 297 565 z "},"ℓ":{"ha":768,"x_min":22,"x_max":739,"o":"m 436 -17 l 436 -17 q 332 0 381 -17 q 247 47 283 17 q 189 122 210 78 q 168 221 168 165 l 168 221 l 168 225 l 111 188 l 22 331 q 98 378 60 351 q 158 419 136 404 l 158 419 l 158 757 q 178 890 158 835 q 231 978 197 944 q 312 1028 265 1013 q 411 1044 358 1044 l 411 1044 q 598 974 533 1044 q 663 779 663 903 l 663 779 q 643 656 663 714 q 585 544 624 599 q 489 433 547 489 q 353 317 431 378 l 353 317 l 353 260 q 374 184 353 207 q 433 161 396 161 l 433 161 q 502 191 472 161 q 572 304 532 221 l 572 304 l 739 219 q 625 49 699 114 q 436 -17 551 -17 z m 417 863 l 417 863 q 373 840 393 863 q 353 764 353 818 l 353 764 l 353 525 q 440 630 406 572 q 474 763 474 688 l 474 763 l 474 776 q 457 842 474 821 q 417 863 440 863 z "},"№":{"ha":1472,"x_min":107,"x_max":1421,"o":"m 1190 497 l 1190 497 q 1020 561 1081 497 q 960 742 960 625 l 960 742 q 1020 922 960 858 q 1190 986 1081 986 l 1190 986 q 1360 922 1300 986 q 1421 742 1421 858 l 1421 742 q 1360 561 1421 625 q 1190 497 1300 497 z m 306 0 l 107 0 l 107 969 l 338 969 l 567 525 l 660 314 l 664 314 l 664 969 l 863 969 l 863 0 l 632 0 l 403 444 l 310 656 l 306 656 l 306 0 z m 1190 607 l 1190 607 q 1251 632 1229 607 q 1274 704 1274 657 l 1274 704 l 1274 779 q 1251 851 1274 826 q 1190 876 1229 876 l 1190 876 q 1129 851 1151 876 q 1107 779 1107 826 l 1107 779 l 1107 704 q 1129 632 1107 657 q 1190 607 1151 607 z m 1411 303 l 969 303 l 969 413 l 1411 413 l 1411 303 z "},"∂":{"ha":815,"x_min":53,"x_max":761,"o":"m 761 381 l 761 381 q 735 203 761 278 q 663 79 710 128 q 552 7 617 31 q 410 -17 488 -17 l 410 -17 q 260 9 326 -17 q 148 83 194 35 q 77 199 101 131 q 53 354 53 268 l 53 354 q 72 496 53 432 q 126 605 90 560 q 211 675 161 650 q 324 700 261 700 l 324 700 q 452 663 400 700 q 538 564 504 626 l 538 564 l 550 569 q 404 778 511 682 q 124 969 297 874 l 124 969 l 425 969 q 549 874 489 929 q 657 747 610 819 q 733 583 704 674 q 761 381 761 492 z m 407 136 l 407 136 q 511 179 474 136 q 549 301 549 222 l 549 301 l 549 379 q 511 501 549 458 q 407 544 474 544 l 407 544 q 303 501 340 544 q 265 379 265 458 l 265 379 l 265 301 q 303 179 265 222 q 407 136 340 136 z "},"¤":{"ha":872,"x_min":14,"x_max":858,"o":"m 436 149 l 436 149 q 336 160 383 149 q 253 190 289 171 l 253 190 l 126 63 l 14 174 l 140 300 q 96 485 96 376 l 96 485 q 140 669 96 593 l 140 669 l 14 796 l 126 907 l 253 779 q 336 810 289 799 q 436 821 383 821 l 436 821 q 536 810 489 821 q 619 779 583 799 l 619 779 l 746 907 l 858 796 l 732 669 q 776 485 776 593 l 776 485 q 732 300 776 376 l 732 300 l 858 174 l 746 63 l 619 190 q 536 160 583 171 q 436 149 489 149 z m 436 297 l 436 297 q 535 336 500 297 q 571 446 571 375 l 571 446 l 571 524 q 535 633 571 594 q 436 672 500 672 l 436 672 q 337 633 372 672 q 301 524 301 594 l 301 524 l 301 446 q 337 336 301 375 q 436 297 372 297 z "},"¢":{"ha":767,"x_min":57,"x_max":717,"o":"m 482 -158 l 329 -158 l 329 -10 q 128 111 199 15 q 57 358 57 207 l 57 358 q 128 606 57 510 q 329 726 200 703 l 329 726 l 329 875 l 482 875 l 482 728 q 621 669 567 714 q 706 558 675 625 l 706 558 l 558 478 q 523 533 544 508 q 469 571 501 558 l 469 571 l 469 144 q 530 183 506 157 q 571 240 554 208 l 571 240 l 717 158 q 627 47 685 92 q 482 -11 569 1 l 482 -11 l 482 -158 z m 253 417 l 253 300 q 276 205 253 244 q 343 147 299 165 l 343 147 l 343 569 q 276 512 299 551 q 253 417 253 472 l 253 417 z "},"€":{"ha":871,"x_min":69,"x_max":831,"o":"m 494 -17 l 494 -17 q 322 17 400 -17 q 187 115 243 51 q 100 272 131 179 q 69 485 69 365 l 69 485 q 100 697 69 603 q 187 854 131 790 q 322 952 243 918 q 494 986 400 986 l 494 986 q 615 972 564 986 q 703 934 665 957 q 767 881 740 911 q 817 819 794 850 l 817 819 l 665 710 q 595 791 635 764 q 494 818 556 818 l 494 818 q 376 775 428 818 q 303 657 324 732 l 303 657 l 622 657 l 622 532 l 292 532 l 292 438 l 622 438 l 622 313 l 303 313 q 374 192 322 233 q 494 151 425 151 l 494 151 q 679 269 613 151 l 679 269 l 831 158 q 781 95 810 126 q 712 39 753 64 q 617 -1 671 14 q 494 -17 564 -17 z "},"ƒ":{"ha":672,"x_min":7,"x_max":656,"o":"m 7 -186 l 24 -26 l 183 -26 l 222 349 l 75 349 l 92 515 l 239 515 l 264 758 q 333 910 274 850 q 503 969 392 969 l 503 969 l 656 969 l 639 810 l 474 810 l 443 515 l 617 515 l 603 349 l 426 349 l 393 24 q 325 -127 383 -68 q 154 -186 267 -186 l 154 -186 l 7 -186 z "},"£":{"ha":808,"x_min":47,"x_max":789,"o":"m 769 0 l 92 0 l 92 189 q 176 256 144 213 q 207 358 207 299 l 207 358 q 201 404 207 383 l 201 404 l 47 404 l 47 571 l 139 571 q 121 633 128 600 q 114 701 114 665 l 114 701 q 138 818 114 765 q 208 908 163 871 q 318 966 254 946 q 461 986 382 986 l 461 986 q 653 944 574 986 q 789 818 733 901 l 789 818 l 636 711 q 557 783 597 761 q 467 804 517 804 l 467 804 q 363 769 399 804 q 326 668 326 733 l 326 668 q 332 617 326 640 q 346 571 338 594 l 346 571 l 618 571 l 618 404 l 410 404 q 412 385 411 394 q 413 365 413 376 l 413 365 q 403 301 413 329 q 377 251 393 272 q 342 215 361 229 q 306 190 324 200 l 306 190 l 306 178 l 769 178 l 769 0 z "},"$":{"ha":835,"x_min":44,"x_max":776,"o":"m 506 -114 l 347 -114 l 347 14 q 169 63 242 24 q 44 160 97 101 l 44 160 l 169 274 q 258 205 210 232 q 365 169 307 178 l 365 169 l 365 419 q 140 519 208 451 q 72 689 72 588 l 72 689 q 142 868 72 799 q 347 953 213 938 l 347 953 l 347 1083 l 506 1083 l 506 953 q 651 912 589 943 q 760 828 714 881 l 760 828 l 633 714 q 574 764 608 742 q 489 797 539 786 l 489 797 l 489 567 q 706 471 636 533 q 776 301 776 408 l 776 301 q 710 121 776 199 q 506 19 644 43 l 506 19 l 506 -114 z m 264 694 l 264 694 q 288 632 264 654 q 365 594 313 610 l 365 594 l 365 800 q 288 762 313 789 q 264 694 264 735 z m 585 286 l 585 286 q 567 345 585 317 q 489 392 549 374 l 489 392 l 489 172 q 561 216 538 186 q 585 286 585 246 z "},"¥":{"ha":903,"x_min":26,"x_max":876,"o":"m 788 185 l 554 185 l 554 0 l 342 0 l 342 185 l 108 185 l 108 310 l 342 310 l 342 404 l 108 404 l 108 529 l 261 529 l 26 969 l 265 969 l 457 588 l 460 588 l 650 969 l 876 969 l 635 529 l 788 529 l 788 404 l 554 404 l 554 310 l 788 310 l 788 185 z "},"฿":{"ha":924,"x_min":107,"x_max":868,"o":"m 383 -125 l 383 28 l 107 28 l 107 942 l 383 942 l 383 1083 l 542 1083 l 542 942 l 593 942 q 769 878 706 942 q 833 703 833 815 l 833 703 q 788 567 833 611 q 656 511 743 522 l 656 511 l 656 503 q 739 487 700 500 q 806 448 778 474 q 851 384 835 422 q 868 292 868 346 l 868 292 q 850 188 868 236 q 801 103 832 139 q 726 48 769 68 q 632 28 682 28 l 632 28 l 542 28 l 542 -125 l 383 -125 z m 529 185 l 586 185 q 655 209 629 185 q 681 276 681 233 l 681 276 l 681 325 q 655 392 681 368 q 586 417 629 417 l 586 417 l 529 417 l 529 185 z m 529 557 l 550 557 q 619 580 594 557 q 644 646 644 603 l 644 646 l 644 694 q 619 760 644 738 q 550 783 594 783 l 550 783 l 529 783 l 529 557 z m 289 185 l 397 185 l 397 417 l 289 417 l 289 185 z m 289 557 l 397 557 l 397 783 l 289 783 l 289 557 z "},"₡":{"ha":857,"x_min":69,"x_max":817,"o":"m 435 -114 l 449 13 q 419 17 433 14 q 390 22 404 19 l 390 22 l 376 -114 l 279 -114 l 297 54 q 131 217 193 107 q 69 486 69 326 l 69 486 q 155 793 69 675 q 389 946 240 911 l 389 946 l 403 1083 l 500 1083 l 488 958 l 504 958 q 526 958 515 958 q 547 957 536 958 l 547 957 l 560 1083 l 657 1083 l 642 938 q 742 881 701 918 q 817 800 782 844 l 817 800 l 675 697 q 621 757 653 735 l 621 757 l 561 183 q 624 221 594 196 q 672 282 653 246 l 672 282 l 815 176 q 774 124 799 150 q 715 75 749 97 q 638 36 681 53 q 544 14 596 19 l 544 14 l 532 -114 l 435 -114 z m 481 799 l 469 799 l 406 188 q 467 172 436 174 l 467 172 l 531 794 q 506 798 521 797 q 481 799 492 799 l 481 799 z m 281 565 l 281 404 q 291 324 281 361 q 321 260 301 288 l 321 260 l 371 761 q 306 682 331 732 q 281 565 281 632 l 281 565 z "},"₤":{"ha":808,"x_min":47,"x_max":789,"o":"m 769 171 l 769 0 l 92 0 l 92 182 q 163 237 135 201 q 203 315 192 272 l 203 315 l 47 315 l 47 440 l 192 440 q 174 488 185 464 q 154 535 164 511 l 154 535 l 47 535 l 47 660 l 117 660 q 115 681 115 671 q 114 701 114 690 l 114 701 q 138 818 114 765 q 208 908 163 871 q 318 966 254 946 q 461 986 382 986 l 461 986 q 653 944 574 986 q 789 818 733 901 l 789 818 l 636 717 q 557 788 597 767 q 467 810 517 810 l 467 810 q 363 772 399 810 q 326 668 326 733 l 326 668 l 326 660 l 590 660 l 590 535 l 361 535 q 383 488 372 511 q 400 440 393 465 l 400 440 l 590 440 l 590 315 l 407 315 q 365 232 396 265 q 306 183 335 199 l 306 183 l 306 171 l 769 171 z "},"₦":{"ha":1078,"x_min":24,"x_max":1054,"o":"m 688 0 l 529 317 l 331 317 l 331 0 l 146 0 l 146 317 l 24 317 l 24 442 l 146 442 l 146 536 l 24 536 l 24 661 l 146 661 l 146 969 l 388 969 l 543 661 l 749 661 l 749 969 l 931 969 l 931 661 l 1054 661 l 1054 536 l 931 536 l 931 442 l 1054 442 l 1054 317 l 931 317 l 931 0 l 688 0 z m 331 436 l 469 436 l 335 714 l 331 714 l 331 436 z m 604 542 l 744 256 l 749 256 l 749 542 l 604 542 z "},"₨":{"ha":1240,"x_min":107,"x_max":1196,"o":"m 318 0 l 107 0 l 107 969 l 435 969 q 649 894 569 969 q 728 685 728 819 l 728 685 q 701 548 728 610 q 625 444 674 486 l 625 444 l 717 271 q 794 174 753 204 q 881 143 835 143 l 881 143 q 945 160 922 143 q 968 200 968 176 l 968 200 q 956 247 968 225 q 913 296 944 268 l 913 296 l 886 319 q 801 417 831 369 q 772 529 772 465 l 772 529 q 790 619 772 579 q 842 688 808 660 q 921 730 875 715 q 1021 744 967 744 l 1021 744 q 1111 735 1065 744 q 1196 703 1157 726 l 1196 703 l 1129 568 q 1044 593 1090 593 l 1044 593 q 990 580 1013 593 q 967 536 967 567 l 967 536 q 987 488 967 508 q 1038 439 1007 467 l 1038 439 l 1064 415 q 1146 319 1119 364 q 1172 208 1172 274 l 1172 208 q 1156 122 1172 163 q 1102 50 1139 81 q 1006 1 1065 19 q 863 -17 947 -17 l 863 -17 q 670 25 749 -17 q 543 167 592 67 l 543 167 l 438 379 l 318 379 l 318 0 z m 318 550 l 407 550 q 483 573 456 550 q 510 644 510 596 l 510 644 l 510 704 q 483 776 510 753 q 407 799 456 799 l 407 799 l 318 799 l 318 550 z "},"₩":{"ha":1421,"x_min":53,"x_max":1368,"o":"m 883 0 l 810 317 l 608 317 l 533 0 l 292 0 l 219 317 l 53 317 l 53 442 l 190 442 l 169 536 l 53 536 l 53 661 l 140 661 l 69 969 l 278 969 l 339 661 l 526 661 l 599 969 l 829 969 l 901 661 l 1089 661 l 1151 969 l 1351 969 l 1279 661 l 1368 661 l 1368 536 l 1250 536 l 1228 442 l 1368 442 l 1368 317 l 1199 317 l 1124 0 l 883 0 z m 428 229 l 489 497 l 499 542 l 363 542 l 371 496 l 424 229 l 428 229 z m 1000 229 l 1004 229 l 1056 493 l 1065 542 l 929 542 l 939 501 l 1000 229 z m 649 492 l 636 436 l 782 436 l 769 490 l 711 740 l 707 740 l 649 492 z "},"₪":{"ha":1272,"x_min":107,"x_max":1165,"o":"m 397 0 l 397 701 l 585 701 l 585 171 l 885 171 q 956 201 933 171 q 978 276 978 231 l 978 276 l 978 969 l 1165 969 l 1165 275 q 1095 68 1165 136 q 913 0 1025 0 l 913 0 l 397 0 z m 294 0 l 107 0 l 107 969 l 622 969 q 805 901 735 969 q 875 694 875 833 l 875 694 l 875 265 l 688 265 l 688 693 q 667 769 688 739 q 594 799 646 799 l 594 799 l 294 799 l 294 0 z "},"₫":{"ha":800,"x_min":50,"x_max":757,"o":"m 469 229 l 469 331 l 461 331 q 435 288 450 308 q 397 252 419 268 q 344 227 375 236 q 275 218 314 218 l 275 218 q 184 233 225 218 q 113 281 143 249 q 67 365 83 314 q 50 485 50 415 l 50 485 q 67 605 50 554 q 113 688 83 656 q 184 736 143 721 q 275 751 225 751 l 275 751 q 397 719 354 751 q 461 638 439 686 l 461 638 l 469 638 l 469 824 l 300 824 l 300 949 l 469 949 l 469 1028 l 675 1028 l 675 949 l 757 949 l 757 824 l 675 824 l 675 229 l 469 229 z m 360 363 l 360 363 q 442 386 414 363 q 469 439 469 410 l 469 439 l 469 532 q 442 585 469 561 q 360 608 414 608 l 360 608 q 278 581 306 608 q 250 508 250 553 l 250 508 l 250 463 q 278 390 250 418 q 360 363 306 363 z m 700 0 l 74 0 l 74 146 l 700 146 l 700 0 z "},"₭":{"ha":950,"x_min":8,"x_max":933,"o":"m 343 404 l 343 0 l 132 0 l 132 404 l 8 404 l 8 571 l 132 571 l 132 969 l 343 969 l 343 571 l 396 571 l 657 969 l 896 969 l 615 571 l 867 571 l 867 404 l 633 404 l 933 0 l 683 0 l 399 404 l 343 404 z "},"₮":{"ha":839,"x_min":51,"x_max":788,"o":"m 693 368 l 525 289 l 525 0 l 314 0 l 314 189 l 147 110 l 147 235 l 314 314 l 314 407 l 147 329 l 147 453 l 314 532 l 314 799 l 51 799 l 51 969 l 788 969 l 788 799 l 525 799 l 525 632 l 693 711 l 693 586 l 525 507 l 525 414 l 693 493 l 693 368 z "},"₱":{"ha":969,"x_min":22,"x_max":947,"o":"m 357 210 l 357 0 l 146 0 l 146 432 l 22 432 l 22 543 l 146 543 l 146 638 l 22 638 l 22 749 l 146 749 l 146 969 l 538 969 q 713 919 643 969 q 810 749 783 868 l 810 749 l 947 749 l 947 638 l 822 638 q 824 616 824 626 q 824 594 824 606 l 824 594 q 824 568 824 581 q 822 543 824 556 l 822 543 l 947 543 l 947 432 l 806 432 q 709 265 778 319 q 536 210 640 210 l 536 210 l 357 210 z m 357 828 l 357 740 l 610 740 q 577 804 603 781 q 511 828 551 828 l 511 828 l 357 828 z m 357 538 l 613 538 l 613 643 l 357 643 l 357 538 z m 357 349 l 511 349 q 577 373 551 349 q 610 440 603 397 l 610 440 l 357 440 l 357 349 z "},"₲":{"ha":926,"x_min":69,"x_max":854,"o":"m 433 -114 l 274 -114 l 301 44 q 134 201 199 90 q 69 483 69 311 l 69 483 q 97 679 69 593 q 176 826 125 765 q 300 919 228 886 q 461 957 372 953 l 461 957 l 482 1083 l 642 1083 l 617 939 q 838 746 764 894 l 838 746 l 675 671 q 637 735 661 707 q 575 781 613 764 l 575 781 l 533 538 l 854 538 l 854 347 q 816 192 854 256 q 719 88 778 128 q 592 29 661 47 q 463 11 524 11 l 463 11 l 456 11 l 433 -114 z m 281 558 l 281 413 q 297 296 281 343 q 344 219 314 249 l 344 219 l 446 796 q 324 720 368 782 q 281 558 281 658 l 281 558 z m 664 378 l 506 378 l 469 171 l 479 171 q 550 181 517 171 q 608 211 583 190 q 649 264 633 232 q 664 340 664 296 l 664 340 l 664 378 z "},"₴":{"ha":894,"x_min":53,"x_max":842,"o":"m 465 -17 l 465 -17 q 327 7 386 -17 q 228 71 268 31 q 169 164 189 111 q 149 276 149 217 l 149 276 q 149 297 149 288 q 151 317 150 307 l 151 317 l 53 317 l 53 442 l 203 442 l 382 536 l 53 536 l 53 661 l 551 661 q 558 706 558 682 l 558 706 q 527 792 558 765 q 439 818 496 818 l 439 818 q 344 798 389 818 q 267 742 299 778 l 267 742 l 164 871 q 284 954 208 922 q 447 986 360 986 l 447 986 q 574 965 518 986 q 667 908 629 944 q 726 825 706 872 q 746 726 746 778 l 746 726 q 744 694 746 711 q 739 661 743 678 l 739 661 l 842 661 l 842 536 l 676 536 l 504 442 l 842 442 l 842 317 l 340 317 q 336 282 336 300 l 336 282 q 373 181 336 214 q 474 147 410 147 l 474 147 q 567 169 522 147 q 661 246 611 192 l 661 246 l 767 117 q 642 21 718 58 q 465 -17 565 -17 z "},"₵":{"ha":843,"x_min":69,"x_max":803,"o":"m 436 -114 l 276 -114 l 304 50 q 133 211 196 100 q 69 485 69 322 l 69 485 q 98 676 69 590 q 178 822 126 761 q 303 917 231 882 q 463 957 375 951 l 463 957 l 485 1083 l 644 1083 l 619 942 q 728 884 685 922 q 803 800 772 846 l 803 800 l 660 697 q 576 779 628 753 l 576 779 l 471 171 l 489 171 q 658 282 599 171 l 658 282 l 801 178 q 755 119 782 149 q 690 65 728 89 q 602 26 651 40 q 489 11 553 11 l 489 11 l 457 11 l 436 -114 z m 281 565 l 281 406 q 298 303 281 347 q 347 228 315 258 l 347 228 l 447 796 q 328 721 375 781 q 281 565 281 661 l 281 565 z "},"₸":{"ha":839,"x_min":51,"x_max":788,"o":"m 788 824 l 51 824 l 51 969 l 788 969 l 788 824 z m 788 564 l 525 564 l 525 0 l 314 0 l 314 564 l 51 564 l 51 710 l 788 710 l 788 564 z "},"₹":{"ha":874,"x_min":86,"x_max":822,"o":"m 738 0 l 481 0 l 251 304 l 86 304 l 86 450 l 310 450 q 446 564 436 450 l 446 564 l 86 564 l 86 710 l 446 710 q 407 801 440 778 q 310 824 374 824 l 310 824 l 86 824 l 86 969 l 822 969 l 822 824 l 539 824 l 539 818 q 601 785 571 814 q 646 710 631 756 l 646 710 l 822 710 l 822 564 l 651 564 q 597 419 639 482 q 475 326 554 357 l 475 326 l 738 0 z "},"₺":{"ha":849,"x_min":24,"x_max":813,"o":"m 146 0 l 146 296 l 24 238 l 24 363 l 146 421 l 146 515 l 24 457 l 24 581 l 146 639 l 146 969 l 357 969 l 357 739 l 567 839 l 567 714 l 357 615 l 357 521 l 567 619 l 567 496 l 357 396 l 357 171 l 425 171 q 507 182 472 171 q 565 222 542 193 q 599 300 588 251 q 611 424 611 349 l 611 424 l 813 424 q 792 258 813 335 q 727 123 771 181 q 615 33 683 65 q 451 0 546 0 l 451 0 l 146 0 z "},"₽":{"ha":918,"x_min":22,"x_max":868,"o":"m 653 143 l 356 143 l 356 0 l 144 0 l 144 143 l 22 143 l 22 289 l 144 289 l 144 403 l 22 403 l 22 549 l 144 549 l 144 969 l 576 969 q 790 896 713 969 q 868 686 868 822 l 868 686 q 790 476 868 550 q 576 403 713 403 l 576 403 l 356 403 l 356 289 l 653 289 l 653 143 z m 356 799 l 356 549 l 550 549 q 625 574 599 549 q 651 647 651 600 l 651 647 l 651 708 q 624 777 651 756 q 550 799 597 799 l 550 799 l 356 799 z "},"₿":{"ha":924,"x_min":107,"x_max":868,"o":"m 492 -114 l 492 28 l 399 28 l 399 -114 l 246 -114 l 246 28 l 107 28 l 107 942 l 246 942 l 246 1083 l 399 1083 l 399 942 l 492 942 l 492 1083 l 644 1083 l 644 938 q 784 862 735 922 q 833 707 833 801 l 833 707 q 790 567 833 611 q 656 511 747 522 l 656 511 l 656 503 q 742 486 703 500 q 809 447 781 472 q 853 382 838 421 q 868 289 868 343 l 868 289 q 851 190 868 236 q 804 108 835 143 q 733 52 774 74 q 644 28 692 31 l 644 28 l 644 -114 l 492 -114 z m 306 774 l 306 567 l 543 567 q 606 587 583 567 q 628 647 628 607 l 628 647 l 628 693 q 606 753 628 733 q 543 774 583 774 l 543 774 l 306 774 z m 306 406 l 306 196 l 576 196 q 640 217 617 196 q 663 278 663 238 l 663 278 l 663 324 q 640 385 663 364 q 576 406 617 406 l 576 406 l 306 406 z "},"ﬁ":{"ha":899,"x_min":29,"x_max":819,"o":"m 132 0 l 132 569 l 29 569 l 29 729 l 132 729 l 132 815 q 188 974 132 921 q 350 1028 243 1028 l 350 1028 l 483 1028 l 483 868 l 338 868 l 338 729 l 803 729 l 803 0 l 597 0 l 597 569 l 338 569 l 338 0 l 132 0 z m 700 807 l 700 807 q 609 835 638 807 q 581 908 581 864 l 581 908 l 581 939 q 609 1012 581 983 q 700 1040 638 1040 l 700 1040 q 791 1012 763 1040 q 819 939 819 983 l 819 939 l 819 908 q 791 835 819 864 q 700 807 763 807 z "},"ﬂ":{"ha":922,"x_min":29,"x_max":894,"o":"m 132 0 l 132 569 l 29 569 l 29 729 l 132 729 l 132 815 q 188 974 132 921 q 350 1028 243 1028 l 350 1028 l 483 1028 l 483 868 l 338 868 l 338 729 l 483 729 l 483 569 l 338 569 l 338 0 l 132 0 z m 894 0 l 801 0 q 647 51 696 0 q 597 200 597 103 l 597 200 l 597 1028 l 803 1028 l 803 160 l 894 160 l 894 0 z "},"á":{"ha":790,"x_min":47,"x_max":749,"o":"m 749 0 l 635 0 q 542 35 579 0 q 496 128 506 69 l 496 128 l 488 128 q 414 20 471 57 q 274 -17 357 -17 l 274 -17 q 106 42 164 -17 q 47 196 47 100 l 47 196 q 131 367 47 311 q 360 424 215 424 l 360 424 l 475 424 l 475 469 q 447 553 475 522 q 354 585 419 585 l 354 585 q 257 558 293 585 q 197 499 221 532 l 197 499 l 75 607 q 187 709 119 672 q 369 746 254 746 l 369 746 q 603 678 525 746 q 681 479 681 610 l 681 479 l 681 160 l 749 160 l 749 0 z m 350 126 l 350 126 q 438 149 401 126 q 475 221 475 171 l 475 221 l 475 307 l 375 307 q 254 225 254 307 l 254 225 l 254 204 q 279 145 254 164 q 350 126 304 126 z m 582 1049 l 396 804 l 274 864 l 411 1133 l 582 1049 z "},"â":{"ha":790,"x_min":47,"x_max":749,"o":"m 749 0 l 635 0 q 542 35 579 0 q 496 128 506 69 l 496 128 l 488 128 q 414 20 471 57 q 274 -17 357 -17 l 274 -17 q 106 42 164 -17 q 47 196 47 100 l 47 196 q 131 367 47 311 q 360 424 215 424 l 360 424 l 475 424 l 475 469 q 447 553 475 522 q 354 585 419 585 l 354 585 q 257 558 293 585 q 197 499 221 532 l 197 499 l 75 607 q 187 709 119 672 q 369 746 254 746 l 369 746 q 603 678 525 746 q 681 479 681 610 l 681 479 l 681 160 l 749 160 l 749 0 z m 350 126 l 350 126 q 438 149 401 126 q 475 221 475 171 l 475 221 l 475 307 l 375 307 q 254 225 254 307 l 254 225 l 254 204 q 279 145 254 164 q 350 126 304 126 z m 288 1104 l 460 1104 l 643 883 l 542 803 l 374 963 l 206 803 l 104 883 l 288 1104 z "},"ä":{"ha":790,"x_min":47,"x_max":749,"o":"m 749 0 l 635 0 q 542 35 579 0 q 496 128 506 69 l 496 128 l 488 128 q 414 20 471 57 q 274 -17 357 -17 l 274 -17 q 106 42 164 -17 q 47 196 47 100 l 47 196 q 131 367 47 311 q 360 424 215 424 l 360 424 l 475 424 l 475 469 q 447 553 475 522 q 354 585 419 585 l 354 585 q 257 558 293 585 q 197 499 221 532 l 197 499 l 75 607 q 187 709 119 672 q 369 746 254 746 l 369 746 q 603 678 525 746 q 681 479 681 610 l 681 479 l 681 160 l 749 160 l 749 0 z m 350 126 l 350 126 q 438 149 401 126 q 475 221 475 171 l 475 221 l 475 307 l 375 307 q 254 225 254 307 l 254 225 l 254 204 q 279 145 254 164 q 350 126 304 126 z m 221 833 l 221 833 q 134 859 158 833 q 110 921 110 885 l 110 921 l 110 956 q 134 1017 110 992 q 221 1043 158 1043 l 221 1043 q 308 1017 283 1043 q 332 956 332 992 l 332 956 l 332 921 q 308 859 332 885 q 221 833 283 833 z m 526 833 l 526 833 q 440 859 464 833 q 415 921 415 885 l 415 921 l 415 956 q 440 1017 415 992 q 526 1043 464 1043 l 526 1043 q 613 1017 589 1043 q 638 956 638 992 l 638 956 l 638 921 q 613 859 638 885 q 526 833 589 833 z "},"à":{"ha":790,"x_min":47,"x_max":749,"o":"m 749 0 l 635 0 q 542 35 579 0 q 496 128 506 69 l 496 128 l 488 128 q 414 20 471 57 q 274 -17 357 -17 l 274 -17 q 106 42 164 -17 q 47 196 47 100 l 47 196 q 131 367 47 311 q 360 424 215 424 l 360 424 l 475 424 l 475 469 q 447 553 475 522 q 354 585 419 585 l 354 585 q 257 558 293 585 q 197 499 221 532 l 197 499 l 75 607 q 187 709 119 672 q 369 746 254 746 l 369 746 q 603 678 525 746 q 681 479 681 610 l 681 479 l 681 160 l 749 160 l 749 0 z m 350 126 l 350 126 q 438 149 401 126 q 475 221 475 171 l 475 221 l 475 307 l 375 307 q 254 225 254 307 l 254 225 l 254 204 q 279 145 254 164 q 350 126 304 126 z m 351 804 l 165 1049 l 336 1133 l 474 864 l 351 804 z "},"å":{"ha":790,"x_min":47,"x_max":749,"o":"m 749 0 l 635 0 q 542 35 579 0 q 496 128 506 69 l 496 128 l 488 128 q 414 20 471 57 q 274 -17 357 -17 l 274 -17 q 106 42 164 -17 q 47 196 47 100 l 47 196 q 131 367 47 311 q 360 424 215 424 l 360 424 l 475 424 l 475 469 q 447 553 475 522 q 354 585 419 585 l 354 585 q 257 558 293 585 q 197 499 221 532 l 197 499 l 75 607 q 187 709 119 672 q 369 746 254 746 l 369 746 q 603 678 525 746 q 681 479 681 610 l 681 479 l 681 160 l 749 160 l 749 0 z m 350 126 l 350 126 q 438 149 401 126 q 475 221 475 171 l 475 221 l 475 307 l 375 307 q 254 225 254 307 l 254 225 l 254 204 q 279 145 254 164 q 350 126 304 126 z m 374 775 l 374 775 q 293 790 331 775 q 228 831 256 804 q 184 894 200 857 q 168 974 168 931 l 168 974 q 184 1053 168 1017 q 228 1117 200 1090 q 293 1158 256 1143 q 374 1172 331 1172 l 374 1172 q 454 1158 417 1172 q 519 1117 492 1143 q 563 1053 547 1090 q 579 974 579 1017 l 579 974 q 563 894 579 931 q 519 831 547 857 q 454 790 492 804 q 374 775 417 775 z m 374 879 l 374 879 q 426 898 408 879 q 444 950 444 917 l 444 950 l 444 997 q 426 1049 444 1031 q 374 1068 408 1068 l 374 1068 q 321 1049 339 1068 q 303 997 303 1031 l 303 997 l 303 950 q 321 898 303 917 q 374 879 339 879 z "},"ã":{"ha":790,"x_min":47,"x_max":749,"o":"m 749 0 l 635 0 q 542 35 579 0 q 496 128 506 69 l 496 128 l 488 128 q 414 20 471 57 q 274 -17 357 -17 l 274 -17 q 106 42 164 -17 q 47 196 47 100 l 47 196 q 131 367 47 311 q 360 424 215 424 l 360 424 l 475 424 l 475 469 q 447 553 475 522 q 354 585 419 585 l 354 585 q 257 558 293 585 q 197 499 221 532 l 197 499 l 75 607 q 187 709 119 672 q 369 746 254 746 l 369 746 q 603 678 525 746 q 681 479 681 610 l 681 479 l 681 160 l 749 160 l 749 0 z m 350 126 l 350 126 q 438 149 401 126 q 475 221 475 171 l 475 221 l 475 307 l 375 307 q 254 225 254 307 l 254 225 l 254 204 q 279 145 254 164 q 350 126 304 126 z m 479 835 l 479 835 q 423 843 447 835 q 372 863 399 851 l 372 863 q 317 884 342 875 q 264 893 292 893 l 264 893 q 222 885 240 893 q 182 858 204 876 l 182 858 l 110 953 q 174 1016 135 990 q 268 1042 213 1042 l 268 1042 q 324 1033 300 1042 q 375 1014 349 1025 l 375 1014 q 431 992 406 1001 q 483 983 456 983 l 483 983 q 525 992 507 983 q 565 1018 543 1000 l 565 1018 l 638 924 q 574 860 613 886 q 479 835 535 835 z "},"æ":{"ha":1200,"x_min":47,"x_max":1150,"o":"m 475 313 l 375 313 q 287 292 319 313 q 254 231 254 271 l 254 231 l 254 211 q 353 126 254 126 l 353 126 q 438 149 401 126 q 475 221 475 171 l 475 221 l 475 313 z m 682 433 l 938 433 l 938 446 q 908 553 938 513 q 815 594 878 594 l 815 594 q 717 553 753 594 q 682 444 682 513 l 682 444 l 682 433 z m 847 147 l 847 147 q 953 174 911 147 q 1026 232 996 200 l 1026 232 l 1129 104 q 1002 15 1081 47 q 824 -17 924 -17 l 824 -17 q 644 24 719 -17 q 540 126 569 65 l 540 126 l 532 126 q 501 71 521 97 q 449 25 481 44 q 375 -6 418 6 q 275 -17 332 -17 l 275 -17 q 177 -1 219 -17 q 106 44 135 15 q 62 113 76 74 q 47 200 47 153 l 47 200 q 70 302 47 258 q 135 375 93 346 q 234 419 176 404 q 360 433 292 433 l 360 433 l 475 433 l 475 469 q 447 553 475 522 q 354 585 419 585 l 354 585 q 257 558 293 585 q 197 499 221 532 l 197 499 l 75 607 q 187 709 119 672 q 369 746 254 746 l 369 746 q 488 722 436 746 q 575 643 540 697 l 575 643 l 583 643 q 677 721 617 696 q 817 746 738 746 l 817 746 q 971 715 907 746 q 1074 633 1035 685 q 1132 515 1114 582 q 1150 374 1150 447 l 1150 374 l 1150 313 l 681 313 l 681 301 q 724 189 681 231 q 847 147 768 147 z "},"ç":{"ha":718,"x_min":50,"x_max":686,"o":"m 390 746 l 390 746 q 576 696 501 746 q 682 556 650 646 l 682 556 l 515 483 q 475 554 506 525 q 390 583 444 583 l 390 583 q 296 542 328 583 q 264 432 264 501 l 264 432 l 264 296 q 296 186 264 226 q 390 146 328 146 l 390 146 q 478 176 446 146 q 526 254 511 206 l 526 254 l 686 185 q 578 35 650 83 q 404 -17 506 -14 l 404 -17 l 392 -76 l 397 -82 q 431 -75 414 -78 q 464 -72 447 -72 l 464 -72 q 535 -94 506 -72 q 565 -168 565 -117 l 565 -168 q 550 -228 565 -204 q 509 -267 535 -251 q 450 -288 483 -282 q 382 -294 417 -294 l 382 -294 q 269 -274 310 -294 q 210 -233 228 -254 l 210 -233 l 274 -156 q 310 -184 288 -172 q 365 -196 333 -196 l 365 -196 q 409 -187 392 -196 q 426 -161 426 -179 l 426 -161 q 422 -144 426 -153 q 406 -128 418 -136 q 374 -115 394 -121 q 322 -106 354 -108 l 322 -106 l 293 -103 l 313 -10 q 117 113 185 14 q 50 365 50 211 l 50 365 q 72 523 50 453 q 138 643 94 593 q 244 719 181 693 q 390 746 308 746 z "},"ð":{"ha":838,"x_min":57,"x_max":771,"o":"m 596 1046 l 665 963 l 564 901 q 717 667 664 797 q 771 386 771 538 l 771 386 q 745 204 771 281 q 673 79 719 128 q 562 7 626 31 q 418 -17 497 -17 l 418 -17 q 266 9 333 -17 q 152 82 199 35 q 81 197 106 129 q 57 351 57 265 l 57 351 q 76 492 57 429 q 132 601 96 556 q 219 670 168 646 q 332 694 269 694 l 332 694 q 463 658 410 694 q 549 558 515 621 l 549 558 l 558 563 q 499 690 539 629 q 403 807 460 750 l 403 807 l 279 733 l 208 817 l 319 882 q 213 960 268 924 q 99 1028 157 996 l 99 1028 l 413 1028 q 447 1003 431 1017 q 481 978 464 990 l 481 978 l 596 1046 z m 414 136 l 414 136 q 519 178 481 136 q 558 300 558 221 l 558 300 l 558 375 q 519 497 558 454 q 414 539 481 539 l 414 539 q 308 497 347 539 q 269 375 269 454 l 269 375 l 269 300 q 308 178 269 221 q 414 136 347 136 z "},"é":{"ha":781,"x_min":50,"x_max":731,"o":"m 400 -17 l 400 -17 q 251 10 317 -17 q 141 87 186 38 q 73 207 96 136 q 50 365 50 278 l 50 365 q 72 522 50 451 q 138 642 94 592 q 246 719 182 692 q 392 746 310 746 l 392 746 q 547 715 482 746 q 652 633 611 685 q 712 515 693 582 q 731 374 731 447 l 731 374 l 731 313 l 263 313 l 263 301 q 301 187 263 229 q 424 144 340 144 l 424 144 q 528 170 488 144 q 603 232 568 196 l 603 232 l 706 104 q 578 15 657 47 q 400 -17 500 -17 z m 396 594 l 396 594 q 298 553 333 594 q 263 444 263 513 l 263 444 l 263 433 l 518 433 l 518 446 q 488 553 518 513 q 396 594 458 594 z m 608 1049 l 422 804 l 300 864 l 438 1133 l 608 1049 z "},"ê":{"ha":781,"x_min":50,"x_max":731,"o":"m 400 -17 l 400 -17 q 251 10 317 -17 q 141 87 186 38 q 73 207 96 136 q 50 365 50 278 l 50 365 q 72 522 50 451 q 138 642 94 592 q 246 719 182 692 q 392 746 310 746 l 392 746 q 547 715 482 746 q 652 633 611 685 q 712 515 693 582 q 731 374 731 447 l 731 374 l 731 313 l 263 313 l 263 301 q 301 187 263 229 q 424 144 340 144 l 424 144 q 528 170 488 144 q 603 232 568 196 l 603 232 l 706 104 q 578 15 657 47 q 400 -17 500 -17 z m 396 594 l 396 594 q 298 553 333 594 q 263 444 263 513 l 263 444 l 263 433 l 518 433 l 518 446 q 488 553 518 513 q 396 594 458 594 z m 314 1104 l 486 1104 l 669 883 l 568 803 l 400 963 l 232 803 l 131 883 l 314 1104 z "},"ë":{"ha":781,"x_min":50,"x_max":731,"o":"m 400 -17 l 400 -17 q 251 10 317 -17 q 141 87 186 38 q 73 207 96 136 q 50 365 50 278 l 50 365 q 72 522 50 451 q 138 642 94 592 q 246 719 182 692 q 392 746 310 746 l 392 746 q 547 715 482 746 q 652 633 611 685 q 712 515 693 582 q 731 374 731 447 l 731 374 l 731 313 l 263 313 l 263 301 q 301 187 263 229 q 424 144 340 144 l 424 144 q 528 170 488 144 q 603 232 568 196 l 603 232 l 706 104 q 578 15 657 47 q 400 -17 500 -17 z m 396 594 l 396 594 q 298 553 333 594 q 263 444 263 513 l 263 444 l 263 433 l 518 433 l 518 446 q 488 553 518 513 q 396 594 458 594 z m 247 833 l 247 833 q 160 859 185 833 q 136 921 136 885 l 136 921 l 136 956 q 160 1017 136 992 q 247 1043 185 1043 l 247 1043 q 334 1017 310 1043 q 358 956 358 992 l 358 956 l 358 921 q 334 859 358 885 q 247 833 310 833 z m 553 833 l 553 833 q 466 859 490 833 q 442 921 442 885 l 442 921 l 442 956 q 466 1017 442 992 q 553 1043 490 1043 l 553 1043 q 640 1017 615 1043 q 664 956 664 992 l 664 956 l 664 921 q 640 859 664 885 q 553 833 615 833 z "},"è":{"ha":781,"x_min":50,"x_max":731,"o":"m 400 -17 l 400 -17 q 251 10 317 -17 q 141 87 186 38 q 73 207 96 136 q 50 365 50 278 l 50 365 q 72 522 50 451 q 138 642 94 592 q 246 719 182 692 q 392 746 310 746 l 392 746 q 547 715 482 746 q 652 633 611 685 q 712 515 693 582 q 731 374 731 447 l 731 374 l 731 313 l 263 313 l 263 301 q 301 187 263 229 q 424 144 340 144 l 424 144 q 528 170 488 144 q 603 232 568 196 l 603 232 l 706 104 q 578 15 657 47 q 400 -17 500 -17 z m 396 594 l 396 594 q 298 553 333 594 q 263 444 263 513 l 263 444 l 263 433 l 518 433 l 518 446 q 488 553 518 513 q 396 594 458 594 z m 378 804 l 192 1049 l 363 1133 l 500 864 l 378 804 z "},"ı":{"ha":397,"x_min":96,"x_max":301,"o":"m 301 0 l 96 0 l 96 729 l 301 729 l 301 0 z "},"í":{"ha":397,"x_min":96,"x_max":408,"o":"m 301 0 l 96 0 l 96 729 l 301 729 l 301 0 z m 408 1049 l 222 804 l 100 864 l 238 1133 l 408 1049 z "},"î":{"ha":397,"x_min":-69,"x_max":469,"o":"m 301 0 l 96 0 l 96 729 l 301 729 l 301 0 z m 114 1104 l 286 1104 l 469 883 l 368 803 l 200 963 l 32 803 l -69 883 l 114 1104 z "},"ï":{"ha":397,"x_min":-64,"x_max":464,"o":"m 301 0 l 96 0 l 96 729 l 301 729 l 301 0 z m 47 833 l 47 833 q -40 859 -15 833 q -64 921 -64 885 l -64 921 l -64 956 q -40 1017 -64 992 q 47 1043 -15 1043 l 47 1043 q 134 1017 110 1043 q 158 956 158 992 l 158 956 l 158 921 q 134 859 158 885 q 47 833 110 833 z m 353 833 l 353 833 q 266 859 290 833 q 242 921 242 885 l 242 921 l 242 956 q 266 1017 242 992 q 353 1043 290 1043 l 353 1043 q 440 1017 415 1043 q 464 956 464 992 l 464 956 l 464 921 q 440 859 464 885 q 353 833 415 833 z "},"ì":{"ha":397,"x_min":-8,"x_max":301,"o":"m 301 0 l 96 0 l 96 729 l 301 729 l 301 0 z m 178 804 l -8 1049 l 163 1133 l 300 864 l 178 804 z "},"ĳ":{"ha":786,"x_min":79,"x_max":707,"o":"m 199 807 l 199 807 q 108 835 136 807 q 79 908 79 864 l 79 908 l 79 939 q 108 1012 79 983 q 199 1040 136 1040 l 199 1040 q 290 1012 261 1040 q 318 939 318 983 l 318 939 l 318 908 q 290 835 318 864 q 199 807 261 807 z m 96 0 l 96 729 l 301 729 l 301 0 l 96 0 z m 485 -118 l 485 729 l 690 729 l 690 -78 q 642 -226 690 -175 q 485 -278 593 -278 l 485 -278 l 376 -278 l 376 -118 l 485 -118 z m 588 807 l 588 807 q 497 835 525 807 q 468 908 468 864 l 468 908 l 468 939 q 497 1012 468 983 q 588 1040 525 1040 l 588 1040 q 678 1012 650 1040 q 707 939 707 983 l 707 939 l 707 908 q 678 835 707 864 q 588 807 650 807 z "},"ȷ":{"ha":397,"x_min":-12,"x_max":301,"o":"m -12 -278 l -12 -118 l 96 -118 l 96 729 l 301 729 l 301 -78 q 253 -226 301 -175 q 96 -278 204 -278 l 96 -278 l -12 -278 z "},"ĵ":{"ha":397,"x_min":-69,"x_max":469,"o":"m -12 -278 l -12 -118 l 96 -118 l 96 729 l 301 729 l 301 -78 q 253 -226 301 -175 q 96 -278 204 -278 l 96 -278 l -12 -278 z m 114 1104 l 286 1104 l 469 883 l 368 803 l 200 963 l 32 803 l -69 883 l 114 1104 z "},"ŀ":{"ha":622,"x_min":96,"x_max":628,"o":"m 393 0 l 300 0 q 145 51 194 0 q 96 200 96 103 l 96 200 l 96 1028 l 301 1028 l 301 160 l 393 160 l 393 0 z m 504 381 l 504 381 q 408 409 435 381 q 381 478 381 438 l 381 478 l 381 518 q 408 587 381 558 q 504 615 435 615 l 504 615 q 601 587 574 615 q 628 518 628 558 l 628 518 l 628 478 q 601 409 628 438 q 504 381 574 381 z "},"ł":{"ha":436,"x_min":-3,"x_max":454,"o":"m 401 160 l 401 0 l 308 0 q 153 51 203 0 q 104 200 104 103 l 104 200 l 104 410 l -3 375 l -3 526 l 104 561 l 104 1028 l 310 1028 l 310 628 l 454 675 l 454 524 l 310 476 l 310 160 l 401 160 z "},"ñ":{"ha":828,"x_min":96,"x_max":740,"o":"m 301 0 l 96 0 l 96 729 l 301 729 l 301 606 l 310 606 q 378 704 329 663 q 513 746 426 746 l 513 746 q 683 671 625 746 q 740 457 740 596 l 740 457 l 740 0 l 535 0 l 535 440 q 513 545 535 511 q 433 579 490 579 l 433 579 q 385 573 408 579 q 342 553 361 567 q 313 519 324 539 q 301 472 301 499 l 301 472 l 301 0 z m 522 835 l 522 835 q 466 843 490 835 q 415 863 442 851 l 415 863 q 360 884 385 875 q 307 893 335 893 l 307 893 q 265 885 283 893 q 225 858 247 876 l 225 858 l 153 953 q 217 1016 178 990 q 311 1042 256 1042 l 311 1042 q 367 1033 343 1042 q 418 1014 392 1025 l 418 1014 q 474 992 449 1001 q 526 983 499 983 l 526 983 q 568 992 550 983 q 608 1018 586 1000 l 608 1018 l 681 924 q 617 860 656 886 q 522 835 578 835 z "},"ó":{"ha":783,"x_min":50,"x_max":733,"o":"m 392 -17 l 392 -17 q 248 10 311 -17 q 141 86 185 36 q 74 207 97 136 q 50 365 50 278 l 50 365 q 74 524 50 453 q 141 644 97 594 q 248 719 185 693 q 392 746 311 746 l 392 746 q 535 719 472 746 q 642 644 599 693 q 710 524 686 594 q 733 365 733 453 l 733 365 q 710 207 733 278 q 642 86 686 136 q 535 10 599 36 q 392 -17 472 -17 z m 392 146 l 392 146 q 486 183 453 146 q 519 290 519 221 l 519 290 l 519 439 q 486 546 519 508 q 392 583 453 583 l 392 583 q 297 546 331 583 q 264 439 264 508 l 264 439 l 264 290 q 297 183 264 221 q 392 146 331 146 z m 600 1049 l 414 804 l 292 864 l 429 1133 l 600 1049 z "},"ô":{"ha":783,"x_min":50,"x_max":733,"o":"m 392 -17 l 392 -17 q 248 10 311 -17 q 141 86 185 36 q 74 207 97 136 q 50 365 50 278 l 50 365 q 74 524 50 453 q 141 644 97 594 q 248 719 185 693 q 392 746 311 746 l 392 746 q 535 719 472 746 q 642 644 599 693 q 710 524 686 594 q 733 365 733 453 l 733 365 q 710 207 733 278 q 642 86 686 136 q 535 10 599 36 q 392 -17 472 -17 z m 392 146 l 392 146 q 486 183 453 146 q 519 290 519 221 l 519 290 l 519 439 q 486 546 519 508 q 392 583 453 583 l 392 583 q 297 546 331 583 q 264 439 264 508 l 264 439 l 264 290 q 297 183 264 221 q 392 146 331 146 z m 306 1104 l 478 1104 l 661 883 l 560 803 l 392 963 l 224 803 l 122 883 l 306 1104 z "},"ö":{"ha":783,"x_min":50,"x_max":733,"o":"m 392 -17 l 392 -17 q 248 10 311 -17 q 141 86 185 36 q 74 207 97 136 q 50 365 50 278 l 50 365 q 74 524 50 453 q 141 644 97 594 q 248 719 185 693 q 392 746 311 746 l 392 746 q 535 719 472 746 q 642 644 599 693 q 710 524 686 594 q 733 365 733 453 l 733 365 q 710 207 733 278 q 642 86 686 136 q 535 10 599 36 q 392 -17 472 -17 z m 392 146 l 392 146 q 486 183 453 146 q 519 290 519 221 l 519 290 l 519 439 q 486 546 519 508 q 392 583 453 583 l 392 583 q 297 546 331 583 q 264 439 264 508 l 264 439 l 264 290 q 297 183 264 221 q 392 146 331 146 z m 239 833 l 239 833 q 152 859 176 833 q 128 921 128 885 l 128 921 l 128 956 q 152 1017 128 992 q 239 1043 176 1043 l 239 1043 q 326 1017 301 1043 q 350 956 350 992 l 350 956 l 350 921 q 326 859 350 885 q 239 833 301 833 z m 544 833 l 544 833 q 458 859 482 833 q 433 921 433 885 l 433 921 l 433 956 q 458 1017 433 992 q 544 1043 482 1043 l 544 1043 q 631 1017 607 1043 q 656 956 656 992 l 656 956 l 656 921 q 631 859 656 885 q 544 833 607 833 z "},"ò":{"ha":783,"x_min":50,"x_max":733,"o":"m 392 -17 l 392 -17 q 248 10 311 -17 q 141 86 185 36 q 74 207 97 136 q 50 365 50 278 l 50 365 q 74 524 50 453 q 141 644 97 594 q 248 719 185 693 q 392 746 311 746 l 392 746 q 535 719 472 746 q 642 644 599 693 q 710 524 686 594 q 733 365 733 453 l 733 365 q 710 207 733 278 q 642 86 686 136 q 535 10 599 36 q 392 -17 472 -17 z m 392 146 l 392 146 q 486 183 453 146 q 519 290 519 221 l 519 290 l 519 439 q 486 546 519 508 q 392 583 453 583 l 392 583 q 297 546 331 583 q 264 439 264 508 l 264 439 l 264 290 q 297 183 264 221 q 392 146 331 146 z m 369 804 l 183 1049 l 354 1133 l 492 864 l 369 804 z "},"ø":{"ha":794,"x_min":19,"x_max":775,"o":"m 131 -69 l 19 14 l 113 129 q 56 365 56 224 l 56 365 q 79 524 56 453 q 147 644 103 594 q 253 719 190 693 q 397 746 317 746 l 397 746 q 581 699 501 746 l 581 699 l 664 799 l 775 715 l 681 599 q 739 364 739 507 l 739 364 q 715 206 739 276 q 648 85 692 135 q 541 10 604 36 q 397 -17 478 -17 l 397 -17 q 298 -5 344 -17 q 214 29 251 7 l 214 29 l 131 -69 z m 397 133 l 397 133 q 497 178 461 133 q 532 297 532 222 l 532 297 l 532 433 l 308 165 q 397 133 343 133 z m 263 432 l 263 297 l 485 564 q 397 596 450 596 l 397 596 q 298 551 333 596 q 263 432 263 507 l 263 432 z "},"õ":{"ha":783,"x_min":50,"x_max":733,"o":"m 392 -17 l 392 -17 q 248 10 311 -17 q 141 86 185 36 q 74 207 97 136 q 50 365 50 278 l 50 365 q 74 524 50 453 q 141 644 97 594 q 248 719 185 693 q 392 746 311 746 l 392 746 q 535 719 472 746 q 642 644 599 693 q 710 524 686 594 q 733 365 733 453 l 733 365 q 710 207 733 278 q 642 86 686 136 q 535 10 599 36 q 392 -17 472 -17 z m 392 146 l 392 146 q 486 183 453 146 q 519 290 519 221 l 519 290 l 519 439 q 486 546 519 508 q 392 583 453 583 l 392 583 q 297 546 331 583 q 264 439 264 508 l 264 439 l 264 290 q 297 183 264 221 q 392 146 331 146 z m 497 835 l 497 835 q 441 843 465 835 q 390 863 417 851 l 390 863 q 335 884 360 875 q 282 893 310 893 l 282 893 q 240 885 258 893 q 200 858 222 876 l 200 858 l 128 953 q 192 1016 153 990 q 286 1042 231 1042 l 286 1042 q 342 1033 318 1042 q 393 1014 367 1025 l 393 1014 q 449 992 424 1001 q 501 983 474 983 l 501 983 q 543 992 525 983 q 583 1018 561 1000 l 583 1018 l 656 924 q 592 860 631 886 q 497 835 553 835 z "},"œ":{"ha":1251,"x_min":50,"x_max":1201,"o":"m 392 146 l 392 146 q 486 183 453 146 q 519 290 519 221 l 519 290 l 519 439 q 486 546 519 508 q 392 583 453 583 l 392 583 q 297 546 331 583 q 264 439 264 508 l 264 439 l 264 290 q 297 183 264 221 q 392 146 331 146 z m 732 433 l 988 433 l 988 446 q 958 553 988 513 q 865 594 928 594 l 865 594 q 767 553 803 594 q 732 444 732 513 l 732 444 l 732 433 z m 875 -17 l 875 -17 q 717 12 782 -17 q 631 86 653 40 l 631 86 l 622 86 q 537 10 594 38 q 392 -17 479 -17 l 392 -17 q 248 10 311 -17 q 141 88 185 38 q 74 210 97 139 q 50 369 50 282 l 50 369 q 140 646 50 546 q 392 746 231 746 l 392 746 q 530 722 471 746 q 622 643 589 697 l 622 643 l 631 643 q 719 719 658 692 q 868 746 781 746 l 868 746 q 1011 719 949 746 q 1116 644 1074 693 q 1180 527 1158 596 q 1201 374 1201 458 l 1201 374 l 1201 313 l 732 313 l 732 301 q 773 187 732 229 q 899 144 814 144 l 899 144 q 1003 170 963 144 q 1078 232 1043 196 l 1078 232 l 1181 104 q 1053 15 1132 47 q 875 -17 975 -17 z "},"š":{"ha":700,"x_min":36,"x_max":656,"o":"m 343 -17 l 343 -17 q 165 17 238 -17 q 36 114 93 51 l 36 114 l 157 236 q 243 168 196 193 q 350 143 290 143 l 350 143 q 435 162 411 143 q 458 213 458 181 l 458 213 q 385 274 458 264 l 385 274 l 306 283 q 60 508 60 314 l 60 508 q 80 605 60 561 q 137 680 100 649 q 226 728 174 711 q 343 746 278 746 l 343 746 q 444 738 400 746 q 522 716 488 731 q 584 680 556 701 q 640 632 613 658 l 640 632 l 522 511 q 444 566 488 546 q 354 586 400 586 l 354 586 q 279 569 301 586 q 257 525 257 553 l 257 525 q 273 480 257 496 q 333 457 289 464 l 333 457 l 415 446 q 656 226 656 414 l 656 226 q 633 129 656 174 q 570 52 611 85 q 472 1 529 19 q 343 -17 414 -17 z m 435 815 l 263 815 l 79 1036 l 181 1117 l 349 957 l 517 1117 l 618 1036 l 435 815 z "},"ß":{"ha":961,"x_min":29,"x_max":926,"o":"m 926 240 l 926 240 q 906 133 926 181 q 851 53 886 86 q 766 1 815 19 q 657 -17 717 -17 l 657 -17 q 504 8 569 -17 q 399 88 439 33 l 399 88 l 515 207 q 581 153 547 169 q 654 136 614 136 l 654 136 q 715 156 692 136 q 738 215 738 176 l 738 215 q 716 270 738 251 q 646 304 694 289 l 646 304 l 603 318 q 489 388 531 342 q 447 519 447 435 l 447 519 q 499 658 447 603 q 643 735 550 714 l 643 735 l 643 738 q 605 855 643 818 q 490 892 567 892 l 490 892 q 376 855 414 892 q 338 738 338 818 l 338 738 l 338 0 l 132 0 l 132 569 l 29 569 l 29 729 l 132 729 l 132 735 q 158 865 132 807 q 230 963 183 922 q 342 1024 276 1003 q 485 1044 407 1044 l 485 1044 q 626 1024 563 1044 q 736 964 690 1003 q 807 867 782 925 q 832 738 832 810 l 832 738 l 832 603 l 754 603 q 663 588 689 603 q 636 538 636 574 l 636 538 q 657 490 636 504 q 722 460 678 475 l 722 460 l 765 446 q 883 374 840 422 q 926 240 926 326 z "},"þ":{"ha":844,"x_min":96,"x_max":785,"o":"m 96 -278 l 96 1028 l 301 1028 l 301 607 l 308 607 q 378 707 324 668 q 504 746 433 746 l 504 746 q 714 649 643 746 q 785 365 785 551 l 785 365 q 714 81 785 179 q 504 -17 643 -17 l 504 -17 q 436 -6 468 -17 q 378 23 404 4 q 335 67 353 42 q 308 122 317 93 l 308 122 l 301 122 l 301 -278 l 96 -278 z m 436 150 l 436 150 q 533 191 494 150 q 571 301 571 232 l 571 301 l 571 428 q 533 538 571 497 q 436 579 494 579 l 436 579 q 340 551 378 579 q 301 472 301 522 l 301 472 l 301 257 q 340 178 301 207 q 436 150 378 150 z "},"ú":{"ha":828,"x_min":88,"x_max":732,"o":"m 526 0 l 526 122 l 519 122 q 494 69 510 94 q 453 25 478 44 q 394 -6 428 6 q 315 -17 360 -17 l 315 -17 q 145 58 203 -17 q 88 271 88 132 l 88 271 l 88 729 l 293 729 l 293 289 q 317 186 293 222 q 397 150 340 150 l 397 150 q 444 157 421 150 q 486 177 468 164 q 515 210 504 190 q 526 256 526 229 l 526 256 l 526 729 l 732 729 l 732 0 l 526 0 z m 619 1049 l 433 804 l 311 864 l 449 1133 l 619 1049 z "},"û":{"ha":828,"x_min":88,"x_max":732,"o":"m 526 0 l 526 122 l 519 122 q 494 69 510 94 q 453 25 478 44 q 394 -6 428 6 q 315 -17 360 -17 l 315 -17 q 145 58 203 -17 q 88 271 88 132 l 88 271 l 88 729 l 293 729 l 293 289 q 317 186 293 222 q 397 150 340 150 l 397 150 q 444 157 421 150 q 486 177 468 164 q 515 210 504 190 q 526 256 526 229 l 526 256 l 526 729 l 732 729 l 732 0 l 526 0 z m 325 1104 l 497 1104 l 681 883 l 579 803 l 411 963 l 243 803 l 142 883 l 325 1104 z "},"ü":{"ha":828,"x_min":88,"x_max":732,"o":"m 526 0 l 526 122 l 519 122 q 494 69 510 94 q 453 25 478 44 q 394 -6 428 6 q 315 -17 360 -17 l 315 -17 q 145 58 203 -17 q 88 271 88 132 l 88 271 l 88 729 l 293 729 l 293 289 q 317 186 293 222 q 397 150 340 150 l 397 150 q 444 157 421 150 q 486 177 468 164 q 515 210 504 190 q 526 256 526 229 l 526 256 l 526 729 l 732 729 l 732 0 l 526 0 z m 258 833 l 258 833 q 172 859 196 833 q 147 921 147 885 l 147 921 l 147 956 q 172 1017 147 992 q 258 1043 196 1043 l 258 1043 q 345 1017 321 1043 q 369 956 369 992 l 369 956 l 369 921 q 345 859 369 885 q 258 833 321 833 z m 564 833 l 564 833 q 477 859 501 833 q 453 921 453 885 l 453 921 l 453 956 q 477 1017 453 992 q 564 1043 501 1043 l 564 1043 q 651 1017 626 1043 q 675 956 675 992 l 675 956 l 675 921 q 651 859 675 885 q 564 833 626 833 z "},"ù":{"ha":828,"x_min":88,"x_max":732,"o":"m 526 0 l 526 122 l 519 122 q 494 69 510 94 q 453 25 478 44 q 394 -6 428 6 q 315 -17 360 -17 l 315 -17 q 145 58 203 -17 q 88 271 88 132 l 88 271 l 88 729 l 293 729 l 293 289 q 317 186 293 222 q 397 150 340 150 l 397 150 q 444 157 421 150 q 486 177 468 164 q 515 210 504 190 q 526 256 526 229 l 526 256 l 526 729 l 732 729 l 732 0 l 526 0 z m 389 804 l 203 1049 l 374 1133 l 511 864 l 389 804 z "},"ý":{"ha":742,"x_min":8,"x_max":733,"o":"m 435 389 l 542 729 l 733 729 l 453 -112 q 374 -237 425 -197 q 229 -278 324 -278 l 229 -278 l 101 -278 l 101 -118 l 239 -118 l 264 -37 l 8 729 l 213 729 l 319 389 l 372 178 l 381 178 l 435 389 z m 586 1049 l 400 804 l 278 864 l 415 1133 l 586 1049 z "},"ÿ":{"ha":742,"x_min":8,"x_max":733,"o":"m 435 389 l 542 729 l 733 729 l 453 -112 q 374 -237 425 -197 q 229 -278 324 -278 l 229 -278 l 101 -278 l 101 -118 l 239 -118 l 264 -37 l 8 729 l 213 729 l 319 389 l 372 178 l 381 178 l 435 389 z m 225 833 l 225 833 q 138 859 163 833 q 114 921 114 885 l 114 921 l 114 956 q 138 1017 114 992 q 225 1043 163 1043 l 225 1043 q 312 1017 288 1043 q 336 956 336 992 l 336 956 l 336 921 q 312 859 336 885 q 225 833 288 833 z m 531 833 l 531 833 q 444 859 468 833 q 419 921 419 885 l 419 921 l 419 956 q 444 1017 419 992 q 531 1043 468 1043 l 531 1043 q 617 1017 593 1043 q 642 956 642 992 l 642 956 l 642 921 q 617 859 642 885 q 531 833 593 833 z "},"ž":{"ha":719,"x_min":54,"x_max":665,"o":"m 665 0 l 54 0 l 54 163 l 417 569 l 67 569 l 67 729 l 656 729 l 656 568 l 292 160 l 665 160 l 665 0 z m 447 815 l 275 815 l 92 1036 l 193 1117 l 361 957 l 529 1117 l 631 1036 l 447 815 z "},"Á":{"ha":951,"x_min":28,"x_max":924,"o":"m 924 0 l 704 0 l 635 231 l 311 231 l 242 0 l 28 0 l 347 969 l 608 969 l 924 0 z m 583 410 l 475 778 l 468 778 l 361 410 l 583 410 z m 679 1272 l 493 1028 l 371 1088 l 508 1357 l 679 1272 z "},"Â":{"ha":951,"x_min":28,"x_max":924,"o":"m 924 0 l 704 0 l 635 231 l 311 231 l 242 0 l 28 0 l 347 969 l 608 969 l 924 0 z m 583 410 l 475 778 l 468 778 l 361 410 l 583 410 z m 385 1328 l 557 1328 l 740 1107 l 639 1026 l 471 1186 l 303 1026 l 201 1107 l 385 1328 z "},"Ä":{"ha":951,"x_min":28,"x_max":924,"o":"m 924 0 l 704 0 l 635 231 l 311 231 l 242 0 l 28 0 l 347 969 l 608 969 l 924 0 z m 583 410 l 475 778 l 468 778 l 361 410 l 583 410 z m 318 1057 l 318 1057 q 231 1083 256 1057 q 207 1144 207 1108 l 207 1144 l 207 1179 q 231 1241 207 1215 q 318 1267 256 1267 l 318 1267 q 405 1241 381 1267 q 429 1179 429 1215 l 429 1179 l 429 1144 q 405 1083 429 1108 q 318 1057 381 1057 z m 624 1057 l 624 1057 q 537 1083 561 1057 q 513 1144 513 1108 l 513 1144 l 513 1179 q 537 1241 513 1215 q 624 1267 561 1267 l 624 1267 q 710 1241 686 1267 q 735 1179 735 1215 l 735 1179 l 735 1144 q 710 1083 735 1108 q 624 1057 686 1057 z "},"À":{"ha":951,"x_min":28,"x_max":924,"o":"m 924 0 l 704 0 l 635 231 l 311 231 l 242 0 l 28 0 l 347 969 l 608 969 l 924 0 z m 583 410 l 475 778 l 468 778 l 361 410 l 583 410 z m 449 1028 l 263 1272 l 433 1357 l 571 1088 l 449 1028 z "},"Å":{"ha":951,"x_min":28,"x_max":924,"o":"m 924 0 l 704 0 l 635 231 l 311 231 l 242 0 l 28 0 l 347 969 l 608 969 l 924 0 z m 583 410 l 475 778 l 468 778 l 361 410 l 583 410 z m 471 999 l 471 999 q 390 1013 428 999 q 325 1054 353 1028 q 281 1117 297 1081 q 265 1197 265 1154 l 265 1197 q 281 1277 265 1240 q 325 1340 297 1314 q 390 1381 353 1367 q 471 1396 428 1396 l 471 1396 q 551 1381 514 1396 q 617 1340 589 1367 q 660 1277 644 1314 q 676 1197 676 1240 l 676 1197 q 660 1117 676 1154 q 617 1054 644 1081 q 551 1013 589 1028 q 471 999 514 999 z m 471 1103 l 471 1103 q 524 1122 506 1103 q 542 1174 542 1142 l 542 1174 l 542 1221 q 524 1272 542 1253 q 471 1292 506 1292 l 471 1292 q 418 1272 436 1292 q 400 1221 400 1253 l 400 1221 l 400 1174 q 418 1122 400 1142 q 471 1103 436 1103 z "},"Ã":{"ha":951,"x_min":28,"x_max":924,"o":"m 924 0 l 704 0 l 635 231 l 311 231 l 242 0 l 28 0 l 347 969 l 608 969 l 924 0 z m 583 410 l 475 778 l 468 778 l 361 410 l 583 410 z m 576 1058 l 576 1058 q 520 1067 544 1058 q 469 1086 496 1075 l 469 1086 q 414 1108 439 1099 q 361 1117 389 1117 l 361 1117 q 319 1108 338 1117 q 279 1082 301 1100 l 279 1082 l 207 1176 q 271 1240 232 1214 q 365 1265 310 1265 l 365 1265 q 422 1257 397 1265 q 472 1238 446 1249 l 472 1238 q 528 1216 503 1225 q 581 1207 553 1207 l 581 1207 q 622 1215 604 1207 q 663 1242 640 1224 l 663 1242 l 735 1147 q 671 1084 710 1110 q 576 1058 632 1058 z "},"Æ":{"ha":1344,"x_min":-1,"x_max":1268,"o":"m 608 0 l 608 231 l 318 231 l 210 0 l -1 0 l 472 969 l 1268 969 l 1268 782 l 818 782 l 818 583 l 1204 583 l 1204 397 l 818 397 l 818 188 l 1268 188 l 1268 0 l 608 0 z m 608 782 l 576 782 l 403 410 l 608 410 l 608 782 z "},"Ç":{"ha":904,"x_min":69,"x_max":864,"o":"m 499 799 l 499 799 q 349 738 406 799 q 293 563 293 678 l 293 563 l 293 407 q 349 231 293 292 q 499 171 406 171 l 499 171 q 623 213 576 171 q 692 315 669 256 l 692 315 l 864 215 q 722 44 810 104 q 506 -17 635 -17 l 506 -17 l 493 -76 l 499 -82 q 532 -75 515 -78 q 565 -72 549 -72 l 565 -72 q 637 -94 607 -72 q 667 -168 667 -117 l 667 -168 q 651 -228 667 -204 q 610 -267 636 -251 q 551 -288 585 -282 q 483 -294 518 -294 l 483 -294 q 370 -274 411 -294 q 311 -233 329 -254 l 311 -233 l 375 -156 q 412 -184 389 -172 q 467 -196 435 -196 l 467 -196 q 510 -187 493 -196 q 528 -161 528 -179 l 528 -161 q 524 -144 528 -153 q 508 -128 519 -136 q 476 -115 496 -121 q 424 -106 456 -108 l 424 -106 l 394 -103 l 414 -10 q 162 137 254 14 q 69 478 69 260 l 69 478 q 100 695 69 600 q 186 855 131 790 q 321 953 242 919 q 499 986 400 986 l 499 986 q 721 931 633 986 q 861 758 808 876 l 861 758 l 679 664 q 619 762 660 725 q 499 799 578 799 z "},"Đ":{"ha":975,"x_min":10,"x_max":906,"o":"m 114 0 l 114 413 l 10 413 l 10 571 l 114 571 l 114 969 l 479 969 q 654 939 575 969 q 789 848 733 908 q 875 697 844 788 q 906 485 906 606 l 906 485 q 875 273 906 364 q 789 122 844 182 q 654 31 733 61 q 479 0 575 0 l 479 0 l 114 0 z m 325 188 l 479 188 q 628 240 574 188 q 682 410 682 293 l 682 410 l 682 560 q 628 729 682 676 q 479 782 574 782 l 479 782 l 325 782 l 325 571 l 490 571 l 490 413 l 325 413 l 325 188 z "},"Ð":{"ha":975,"x_min":10,"x_max":906,"o":"m 114 0 l 114 413 l 10 413 l 10 571 l 114 571 l 114 969 l 479 969 q 654 939 575 969 q 789 848 733 908 q 875 697 844 788 q 906 485 906 606 l 906 485 q 875 273 906 364 q 789 122 844 182 q 654 31 733 61 q 479 0 575 0 l 479 0 l 114 0 z m 325 188 l 479 188 q 628 240 574 188 q 682 410 682 293 l 682 410 l 682 560 q 628 729 682 676 q 479 782 574 782 l 479 782 l 325 782 l 325 571 l 490 571 l 490 413 l 325 413 l 325 188 z "},"É":{"ha":843,"x_min":107,"x_max":767,"o":"m 767 0 l 107 0 l 107 969 l 767 969 l 767 782 l 318 782 l 318 583 l 703 583 l 703 397 l 318 397 l 318 188 l 767 188 l 767 0 z m 646 1272 l 460 1028 l 338 1088 l 475 1357 l 646 1272 z "},"Ê":{"ha":843,"x_min":107,"x_max":767,"o":"m 767 0 l 107 0 l 107 969 l 767 969 l 767 782 l 318 782 l 318 583 l 703 583 l 703 397 l 318 397 l 318 188 l 767 188 l 767 0 z m 351 1328 l 524 1328 l 707 1107 l 606 1026 l 438 1186 l 269 1026 l 168 1107 l 351 1328 z "},"Ë":{"ha":843,"x_min":107,"x_max":767,"o":"m 767 0 l 107 0 l 107 969 l 767 969 l 767 782 l 318 782 l 318 583 l 703 583 l 703 397 l 318 397 l 318 188 l 767 188 l 767 0 z m 285 1057 l 285 1057 q 198 1083 222 1057 q 174 1144 174 1108 l 174 1144 l 174 1179 q 198 1241 174 1215 q 285 1267 222 1267 l 285 1267 q 372 1241 347 1267 q 396 1179 396 1215 l 396 1179 l 396 1144 q 372 1083 396 1108 q 285 1057 347 1057 z m 590 1057 l 590 1057 q 503 1083 528 1057 q 479 1144 479 1108 l 479 1144 l 479 1179 q 503 1241 479 1215 q 590 1267 528 1267 l 590 1267 q 677 1241 653 1267 q 701 1179 701 1215 l 701 1179 l 701 1144 q 677 1083 701 1108 q 590 1057 653 1057 z "},"È":{"ha":843,"x_min":107,"x_max":767,"o":"m 767 0 l 107 0 l 107 969 l 767 969 l 767 782 l 318 782 l 318 583 l 703 583 l 703 397 l 318 397 l 318 188 l 767 188 l 767 0 z m 415 1028 l 229 1272 l 400 1357 l 538 1088 l 415 1028 z "},"Í":{"ha":600,"x_min":69,"x_max":531,"o":"m 531 0 l 69 0 l 69 168 l 194 168 l 194 801 l 69 801 l 69 969 l 531 969 l 531 801 l 406 801 l 406 168 l 531 168 l 531 0 z m 510 1272 l 324 1028 l 201 1088 l 339 1357 l 510 1272 z "},"Î":{"ha":600,"x_min":32,"x_max":571,"o":"m 531 0 l 69 0 l 69 168 l 194 168 l 194 801 l 69 801 l 69 969 l 531 969 l 531 801 l 406 801 l 406 168 l 531 168 l 531 0 z m 215 1328 l 388 1328 l 571 1107 l 469 1026 l 301 1186 l 133 1026 l 32 1107 l 215 1328 z "},"Ï":{"ha":600,"x_min":38,"x_max":565,"o":"m 531 0 l 69 0 l 69 168 l 194 168 l 194 801 l 69 801 l 69 969 l 531 969 l 531 801 l 406 801 l 406 168 l 531 168 l 531 0 z m 149 1057 l 149 1057 q 62 1083 86 1057 q 38 1144 38 1108 l 38 1144 l 38 1179 q 62 1241 38 1215 q 149 1267 86 1267 l 149 1267 q 235 1241 211 1267 q 260 1179 260 1215 l 260 1179 l 260 1144 q 235 1083 260 1108 q 149 1057 211 1057 z m 454 1057 l 454 1057 q 367 1083 392 1057 q 343 1144 343 1108 l 343 1144 l 343 1179 q 367 1241 343 1215 q 454 1267 392 1267 l 454 1267 q 541 1241 517 1267 q 565 1179 565 1215 l 565 1179 l 565 1144 q 541 1083 565 1108 q 454 1057 517 1057 z "},"Ì":{"ha":600,"x_min":69,"x_max":531,"o":"m 531 0 l 69 0 l 69 168 l 194 168 l 194 801 l 69 801 l 69 969 l 531 969 l 531 801 l 406 801 l 406 168 l 531 168 l 531 0 z m 279 1028 l 93 1272 l 264 1357 l 401 1088 l 279 1028 z "},"Ĳ":{"ha":911,"x_min":101,"x_max":810,"o":"m 476 969 l 810 969 l 810 292 q 785 164 810 221 q 713 67 760 107 q 602 6 667 28 q 458 -15 538 -15 l 458 -15 q 218 60 304 -15 q 111 257 132 135 l 111 257 l 308 296 q 358 201 319 233 q 457 169 397 169 l 457 169 q 509 177 483 169 q 555 201 535 185 q 587 242 575 217 q 599 304 599 268 l 599 304 l 599 800 l 476 800 l 476 969 z m 101 429 l 101 969 l 313 969 l 313 429 l 101 429 z "},"Ł":{"ha":750,"x_min":-10,"x_max":694,"o":"m 694 188 l 694 0 l 114 0 l 114 338 l -10 297 l -10 454 l 114 494 l 114 969 l 325 969 l 325 561 l 544 632 l 544 475 l 325 404 l 325 188 l 694 188 z "},"Ñ":{"ha":1006,"x_min":107,"x_max":899,"o":"m 668 0 l 403 458 l 310 653 l 306 653 l 306 0 l 107 0 l 107 969 l 338 969 l 603 511 l 696 317 l 700 317 l 700 969 l 899 969 l 899 0 l 668 0 z m 607 1058 l 607 1058 q 551 1067 575 1058 q 500 1086 526 1075 l 500 1086 q 444 1108 469 1099 q 392 1117 419 1117 l 392 1117 q 350 1108 368 1117 q 310 1082 332 1100 l 310 1082 l 238 1176 q 301 1240 263 1214 q 396 1265 340 1265 l 396 1265 q 452 1257 428 1265 q 503 1238 476 1249 l 503 1238 q 558 1216 533 1225 q 611 1207 583 1207 l 611 1207 q 653 1215 635 1207 q 693 1242 671 1224 l 693 1242 l 765 1147 q 701 1084 740 1110 q 607 1058 663 1058 z "},"Ó":{"ha":992,"x_min":69,"x_max":922,"o":"m 496 -17 l 496 -17 q 321 15 400 -17 q 186 110 242 47 q 100 267 131 174 q 69 485 69 361 l 69 485 q 100 702 69 608 q 186 859 131 796 q 321 954 242 922 q 496 986 400 986 l 496 986 q 671 954 592 986 q 806 859 750 922 q 892 702 861 796 q 922 485 922 608 l 922 485 q 892 267 922 361 q 806 110 861 174 q 671 15 750 47 q 496 -17 592 -17 z m 496 171 l 496 171 q 645 233 592 171 q 699 413 699 296 l 699 413 l 699 557 q 645 736 699 674 q 496 799 592 799 l 496 799 q 347 736 400 799 q 293 557 293 674 l 293 557 l 293 413 q 347 233 293 296 q 496 171 400 171 z m 704 1272 l 518 1028 l 396 1088 l 533 1357 l 704 1272 z "},"Ô":{"ha":992,"x_min":69,"x_max":922,"o":"m 496 -17 l 496 -17 q 321 15 400 -17 q 186 110 242 47 q 100 267 131 174 q 69 485 69 361 l 69 485 q 100 702 69 608 q 186 859 131 796 q 321 954 242 922 q 496 986 400 986 l 496 986 q 671 954 592 986 q 806 859 750 922 q 892 702 861 796 q 922 485 922 608 l 922 485 q 892 267 922 361 q 806 110 861 174 q 671 15 750 47 q 496 -17 592 -17 z m 496 171 l 496 171 q 645 233 592 171 q 699 413 699 296 l 699 413 l 699 557 q 645 736 699 674 q 496 799 592 799 l 496 799 q 347 736 400 799 q 293 557 293 674 l 293 557 l 293 413 q 347 233 293 296 q 496 171 400 171 z m 410 1328 l 582 1328 l 765 1107 l 664 1026 l 496 1186 l 328 1026 l 226 1107 l 410 1328 z "},"Ö":{"ha":992,"x_min":69,"x_max":922,"o":"m 496 -17 l 496 -17 q 321 15 400 -17 q 186 110 242 47 q 100 267 131 174 q 69 485 69 361 l 69 485 q 100 702 69 608 q 186 859 131 796 q 321 954 242 922 q 496 986 400 986 l 496 986 q 671 954 592 986 q 806 859 750 922 q 892 702 861 796 q 922 485 922 608 l 922 485 q 892 267 922 361 q 806 110 861 174 q 671 15 750 47 q 496 -17 592 -17 z m 496 171 l 496 171 q 645 233 592 171 q 699 413 699 296 l 699 413 l 699 557 q 645 736 699 674 q 496 799 592 799 l 496 799 q 347 736 400 799 q 293 557 293 674 l 293 557 l 293 413 q 347 233 293 296 q 496 171 400 171 z m 343 1057 l 343 1057 q 256 1083 281 1057 q 232 1144 232 1108 l 232 1144 l 232 1179 q 256 1241 232 1215 q 343 1267 281 1267 l 343 1267 q 430 1241 406 1267 q 454 1179 454 1215 l 454 1179 l 454 1144 q 430 1083 454 1108 q 343 1057 406 1057 z m 649 1057 l 649 1057 q 562 1083 586 1057 q 538 1144 538 1108 l 538 1144 l 538 1179 q 562 1241 538 1215 q 649 1267 586 1267 l 649 1267 q 735 1241 711 1267 q 760 1179 760 1215 l 760 1179 l 760 1144 q 735 1083 760 1108 q 649 1057 711 1057 z "},"Ò":{"ha":992,"x_min":69,"x_max":922,"o":"m 496 -17 l 496 -17 q 321 15 400 -17 q 186 110 242 47 q 100 267 131 174 q 69 485 69 361 l 69 485 q 100 702 69 608 q 186 859 131 796 q 321 954 242 922 q 496 986 400 986 l 496 986 q 671 954 592 986 q 806 859 750 922 q 892 702 861 796 q 922 485 922 608 l 922 485 q 892 267 922 361 q 806 110 861 174 q 671 15 750 47 q 496 -17 592 -17 z m 496 171 l 496 171 q 645 233 592 171 q 699 413 699 296 l 699 413 l 699 557 q 645 736 699 674 q 496 799 592 799 l 496 799 q 347 736 400 799 q 293 557 293 674 l 293 557 l 293 413 q 347 233 293 296 q 496 171 400 171 z m 474 1028 l 288 1272 l 458 1357 l 596 1088 l 474 1028 z "},"Ø":{"ha":992,"x_min":69,"x_max":922,"o":"m 496 -17 l 496 -17 q 288 31 379 -17 l 288 31 l 214 -78 l 86 4 l 171 129 q 96 281 122 192 q 69 485 69 369 l 69 485 q 100 702 69 608 q 186 859 131 796 q 321 954 242 922 q 496 986 400 986 l 496 986 q 704 939 613 986 l 704 939 l 778 1047 l 906 965 l 821 840 q 896 689 869 778 q 922 485 922 600 l 922 485 q 892 267 922 361 q 806 110 861 174 q 671 15 750 47 q 496 -17 592 -17 z m 283 561 l 283 408 q 300 293 283 343 l 300 293 l 610 785 q 496 814 564 814 l 496 814 q 340 749 396 814 q 283 561 283 683 l 283 561 z m 708 408 l 708 561 q 692 676 708 626 l 692 676 l 382 185 q 496 156 428 156 l 496 156 q 652 221 596 156 q 708 408 708 286 l 708 408 z "},"Õ":{"ha":992,"x_min":69,"x_max":922,"o":"m 496 -17 l 496 -17 q 321 15 400 -17 q 186 110 242 47 q 100 267 131 174 q 69 485 69 361 l 69 485 q 100 702 69 608 q 186 859 131 796 q 321 954 242 922 q 496 986 400 986 l 496 986 q 671 954 592 986 q 806 859 750 922 q 892 702 861 796 q 922 485 922 608 l 922 485 q 892 267 922 361 q 806 110 861 174 q 671 15 750 47 q 496 -17 592 -17 z m 496 171 l 496 171 q 645 233 592 171 q 699 413 699 296 l 699 413 l 699 557 q 645 736 699 674 q 496 799 592 799 l 496 799 q 347 736 400 799 q 293 557 293 674 l 293 557 l 293 413 q 347 233 293 296 q 496 171 400 171 z m 601 1058 l 601 1058 q 545 1067 569 1058 q 494 1086 521 1075 l 494 1086 q 439 1108 464 1099 q 386 1117 414 1117 l 386 1117 q 344 1108 363 1117 q 304 1082 326 1100 l 304 1082 l 232 1176 q 296 1240 257 1214 q 390 1265 335 1265 l 390 1265 q 447 1257 422 1265 q 497 1238 471 1249 l 497 1238 q 553 1216 528 1225 q 606 1207 578 1207 l 606 1207 q 647 1215 629 1207 q 688 1242 665 1224 l 688 1242 l 760 1147 q 696 1084 735 1110 q 601 1058 657 1058 z "},"Œ":{"ha":1386,"x_min":69,"x_max":1310,"o":"m 1310 0 l 656 0 q 584 -12 625 -8 q 496 -17 543 -17 l 496 -17 q 321 15 400 -17 q 186 110 242 47 q 100 267 131 174 q 69 485 69 361 l 69 485 q 100 702 69 608 q 186 859 131 796 q 321 954 242 922 q 496 986 400 986 l 496 986 q 667 969 589 986 l 667 969 l 1310 969 l 1310 782 l 860 782 l 860 583 l 1246 583 l 1246 397 l 860 397 l 860 188 l 1310 188 l 1310 0 z m 496 171 l 496 171 q 649 183 578 171 l 649 183 l 649 785 q 574 795 613 792 q 496 799 536 799 l 496 799 q 347 736 401 799 q 293 557 293 674 l 293 557 l 293 413 q 347 233 293 296 q 496 171 401 171 z "},"Š":{"ha":867,"x_min":53,"x_max":799,"o":"m 421 -17 l 421 -17 q 204 27 293 -17 q 53 140 115 71 l 53 140 l 192 281 q 435 169 290 169 l 435 169 q 550 201 513 169 q 588 286 588 233 l 588 286 q 565 353 588 326 q 475 390 543 381 l 475 390 l 379 403 q 153 496 225 422 q 82 692 82 569 l 82 692 q 107 811 82 757 q 178 904 132 865 q 292 965 225 943 q 446 986 360 986 l 446 986 q 639 951 556 986 q 782 850 722 917 l 782 850 l 642 708 q 558 774 607 749 q 433 800 508 800 l 433 800 q 328 775 363 800 q 293 706 293 750 l 293 706 q 320 633 293 656 q 408 601 347 611 l 408 601 l 504 586 q 726 494 654 563 q 799 299 799 425 l 799 299 q 774 171 799 229 q 701 71 749 113 q 582 6 653 29 q 421 -17 511 -17 z m 517 1039 l 344 1039 l 161 1260 l 263 1340 l 431 1181 l 599 1340 l 700 1260 l 517 1039 z "},"ẞ":{"ha":1015,"x_min":107,"x_max":974,"o":"m 974 300 l 974 300 q 951 174 974 232 q 888 74 929 117 q 788 8 847 32 q 656 -17 729 -17 l 656 -17 q 495 13 564 -17 q 381 93 426 42 l 381 93 l 513 228 q 574 177 542 196 q 656 158 607 158 l 656 158 q 733 190 704 158 q 761 267 761 222 l 761 267 l 761 317 q 731 390 761 361 q 628 419 700 419 l 628 419 l 494 419 l 494 582 l 675 792 l 318 792 l 318 0 l 107 0 l 107 969 l 885 969 l 885 776 l 713 576 l 713 571 q 801 551 756 568 q 885 502 847 535 q 949 419 924 469 q 974 300 974 369 z "},"Þ":{"ha":911,"x_min":107,"x_max":860,"o":"m 318 0 l 107 0 l 107 969 l 318 969 l 318 803 l 565 803 q 688 780 633 803 q 780 716 742 757 q 839 618 818 675 q 860 493 860 561 l 860 493 q 839 368 860 425 q 780 270 818 311 q 688 206 742 229 q 565 183 633 183 l 565 183 l 318 183 l 318 0 z m 318 619 l 318 367 l 540 367 q 615 391 588 367 q 642 463 642 415 l 642 463 l 642 524 q 615 595 642 571 q 540 619 588 619 l 540 619 l 318 619 z "},"Ú":{"ha":964,"x_min":101,"x_max":863,"o":"m 101 969 l 307 969 l 307 375 q 347 222 307 272 q 482 171 388 171 l 482 171 q 617 222 576 171 q 657 375 657 272 l 657 375 l 657 969 l 863 969 l 863 397 q 842 212 863 290 q 776 83 822 133 q 658 8 731 32 q 482 -17 586 -17 l 482 -17 q 306 8 378 -17 q 188 83 233 32 q 122 212 142 133 q 101 397 101 290 l 101 397 l 101 969 z m 690 1272 l 504 1028 l 382 1088 l 519 1357 l 690 1272 z "},"Û":{"ha":964,"x_min":101,"x_max":863,"o":"m 101 969 l 307 969 l 307 375 q 347 222 307 272 q 482 171 388 171 l 482 171 q 617 222 576 171 q 657 375 657 272 l 657 375 l 657 969 l 863 969 l 863 397 q 842 212 863 290 q 776 83 822 133 q 658 8 731 32 q 482 -17 586 -17 l 482 -17 q 306 8 378 -17 q 188 83 233 32 q 122 212 142 133 q 101 397 101 290 l 101 397 l 101 969 z m 396 1328 l 568 1328 l 751 1107 l 650 1026 l 482 1186 l 314 1026 l 213 1107 l 396 1328 z "},"Ü":{"ha":964,"x_min":101,"x_max":863,"o":"m 101 969 l 307 969 l 307 375 q 347 222 307 272 q 482 171 388 171 l 482 171 q 617 222 576 171 q 657 375 657 272 l 657 375 l 657 969 l 863 969 l 863 397 q 842 212 863 290 q 776 83 822 133 q 658 8 731 32 q 482 -17 586 -17 l 482 -17 q 306 8 378 -17 q 188 83 233 32 q 122 212 142 133 q 101 397 101 290 l 101 397 l 101 969 z m 329 1057 l 329 1057 q 242 1083 267 1057 q 218 1144 218 1108 l 218 1144 l 218 1179 q 242 1241 218 1215 q 329 1267 267 1267 l 329 1267 q 416 1241 392 1267 q 440 1179 440 1215 l 440 1179 l 440 1144 q 416 1083 440 1108 q 329 1057 392 1057 z m 635 1057 l 635 1057 q 548 1083 572 1057 q 524 1144 524 1108 l 524 1144 l 524 1179 q 548 1241 524 1215 q 635 1267 572 1267 l 635 1267 q 722 1241 697 1267 q 746 1179 746 1215 l 746 1179 l 746 1144 q 722 1083 746 1108 q 635 1057 697 1057 z "},"Ù":{"ha":964,"x_min":101,"x_max":863,"o":"m 101 969 l 307 969 l 307 375 q 347 222 307 272 q 482 171 388 171 l 482 171 q 617 222 576 171 q 657 375 657 272 l 657 375 l 657 969 l 863 969 l 863 397 q 842 212 863 290 q 776 83 822 133 q 658 8 731 32 q 482 -17 586 -17 l 482 -17 q 306 8 378 -17 q 188 83 233 32 q 122 212 142 133 q 101 397 101 290 l 101 397 l 101 969 z m 460 1028 l 274 1272 l 444 1357 l 582 1088 l 460 1028 z "},"Ý":{"ha":901,"x_min":13,"x_max":889,"o":"m 557 0 l 344 0 l 344 379 l 13 969 l 249 969 l 457 583 l 460 583 l 660 969 l 889 969 l 557 381 l 557 0 z m 660 1272 l 474 1028 l 351 1088 l 489 1357 l 660 1272 z "},"Ÿ":{"ha":901,"x_min":13,"x_max":889,"o":"m 557 0 l 344 0 l 344 379 l 13 969 l 249 969 l 457 583 l 460 583 l 660 969 l 889 969 l 557 381 l 557 0 z m 299 1057 l 299 1057 q 212 1083 236 1057 q 188 1144 188 1108 l 188 1144 l 188 1179 q 212 1241 188 1215 q 299 1267 236 1267 l 299 1267 q 385 1241 361 1267 q 410 1179 410 1215 l 410 1179 l 410 1144 q 385 1083 410 1108 q 299 1057 361 1057 z m 604 1057 l 604 1057 q 517 1083 542 1057 q 493 1144 493 1108 l 493 1144 l 493 1179 q 517 1241 493 1215 q 604 1267 542 1267 l 604 1267 q 691 1241 667 1267 q 715 1179 715 1215 l 715 1179 l 715 1144 q 691 1083 715 1108 q 604 1057 667 1057 z "},"Ž":{"ha":843,"x_min":54,"x_max":789,"o":"m 789 188 l 789 0 l 54 0 l 54 188 l 532 782 l 78 782 l 78 969 l 778 969 l 778 782 l 299 188 l 789 188 z m 507 1039 l 335 1039 l 151 1260 l 253 1340 l 421 1181 l 589 1340 l 690 1260 l 507 1039 z "},"µ":{"ha":836,"x_min":96,"x_max":740,"o":"m 301 -278 l 96 -278 l 96 729 l 301 729 l 301 286 q 325 185 301 219 q 404 150 349 150 l 404 150 q 452 157 429 150 q 494 177 475 164 q 524 210 513 190 q 535 256 535 231 l 535 256 l 535 729 l 740 729 l 740 0 l 535 0 l 535 122 l 528 122 q 469 24 510 65 q 367 -17 429 -17 l 367 -17 q 302 0 326 -17 q 267 42 278 17 l 267 42 l 260 42 l 301 -147 l 301 -278 z "},"∆":{"ha":950,"x_min":68,"x_max":882,"o":"m 68 0 l 68 168 l 344 969 l 606 969 l 882 168 l 882 0 l 68 0 z m 660 188 l 475 778 l 468 778 l 283 188 l 660 188 z "},"∏":{"ha":1008,"x_min":33,"x_max":975,"o":"m 383 -278 l 172 -278 l 172 782 l 33 782 l 33 969 l 975 969 l 975 782 l 836 782 l 836 -278 l 625 -278 l 625 782 l 383 782 l 383 -278 z "},"∑":{"ha":775,"x_min":68,"x_max":724,"o":"m 724 -90 l 724 -278 l 68 -278 l 68 -82 l 367 343 l 367 349 l 68 774 l 68 969 l 724 969 l 724 782 l 296 782 l 565 415 l 565 276 l 296 -90 l 724 -90 z "},"Ω":{"ha":1006,"x_min":69,"x_max":936,"o":"m 69 0 l 69 186 l 290 186 l 290 200 q 131 334 186 247 q 76 556 76 421 l 76 556 q 105 724 76 646 q 188 861 133 803 q 322 953 243 919 q 503 986 401 986 l 503 986 q 683 953 604 986 q 817 861 763 919 q 901 724 872 803 q 929 556 929 646 l 929 556 q 874 334 929 421 q 715 200 819 247 l 715 200 l 715 186 l 936 186 l 936 0 l 563 0 l 563 285 q 622 315 594 294 q 667 362 649 335 q 697 421 686 389 q 707 486 707 453 l 707 486 l 707 599 q 693 674 707 638 q 653 738 679 710 q 588 782 626 765 q 503 799 550 799 l 503 799 q 417 782 456 799 q 353 738 379 765 q 313 674 326 710 q 299 599 299 638 l 299 599 l 299 486 q 309 421 299 453 q 338 362 319 389 q 384 315 357 335 q 443 285 411 294 l 443 285 l 443 0 l 69 0 z "},"π":{"ha":910,"x_min":32,"x_max":863,"o":"m 731 569 l 731 160 l 822 160 l 822 0 l 742 0 q 580 54 635 0 q 525 213 525 108 l 525 213 l 525 569 l 349 569 l 349 0 l 143 0 l 143 569 l 32 569 l 32 729 l 863 729 l 863 569 l 731 569 z "},"ก":{"ha":889,"x_min":42,"x_max":801,"o":"m 163 0 l 163 404 l 42 453 q 78 591 47 529 q 161 696 110 653 q 283 763 213 739 q 436 786 353 786 l 436 786 q 588 763 521 786 q 703 698 656 740 q 776 595 750 656 q 801 461 801 535 l 801 461 l 801 0 l 596 0 l 596 435 q 551 574 596 524 q 418 624 506 624 l 418 624 q 303 596 351 624 q 233 526 256 568 l 233 526 l 282 508 q 350 464 332 489 q 368 389 368 439 l 368 389 l 368 0 l 163 0 z "},"ภ":{"ha":899,"x_min":60,"x_max":811,"o":"m 113 0 l 113 160 l 181 160 l 181 404 l 60 453 q 96 591 65 529 q 177 696 126 653 q 296 763 228 739 q 446 786 364 786 l 446 786 q 599 763 531 786 q 714 697 667 739 q 786 594 761 654 q 811 461 811 533 l 811 461 l 811 0 l 606 0 l 606 435 q 563 574 606 525 q 432 624 519 624 l 432 624 q 319 595 365 624 q 251 526 272 567 l 251 526 l 300 508 q 368 464 350 489 q 386 389 386 439 l 386 389 l 386 200 q 337 51 386 103 q 182 0 288 0 l 182 0 l 113 0 z "},"ฎ":{"ha":899,"x_min":60,"x_max":811,"o":"m 276 -347 l 131 -229 q 238 -128 174 -167 q 390 -90 303 -90 l 390 -90 q 526 -124 476 -90 q 597 -217 575 -158 l 597 -217 l 606 -217 l 606 435 q 563 574 606 525 q 432 624 519 624 l 432 624 q 319 596 365 624 q 251 528 272 568 l 251 528 l 300 508 q 368 464 350 489 q 386 389 386 439 l 386 389 l 386 200 q 337 51 386 103 q 182 0 288 0 l 182 0 l 113 0 l 113 160 l 181 160 l 181 404 l 60 453 q 96 591 65 529 q 177 696 126 653 q 296 763 228 739 q 446 786 364 786 l 446 786 q 599 763 531 786 q 714 697 667 739 q 786 594 761 654 q 811 461 811 533 l 811 461 l 811 -347 l 629 -347 q 567 -269 608 -303 q 460 -236 526 -236 l 460 -236 q 345 -269 394 -236 q 276 -347 296 -303 l 276 -347 z "},"ฏ":{"ha":899,"x_min":60,"x_max":811,"o":"m 181 -347 l 181 -187 l 243 -187 q 309 -163 292 -187 q 329 -97 326 -139 l 329 -97 l 469 -97 q 488 -160 472 -133 q 543 -187 503 -187 l 543 -187 q 588 -169 571 -187 q 606 -114 606 -151 l 606 -114 l 606 435 q 563 574 606 525 q 432 624 519 624 l 432 624 q 319 596 365 624 q 251 528 272 568 l 251 528 l 300 508 q 368 464 350 489 q 386 389 386 439 l 386 389 l 386 200 q 337 51 386 103 q 182 0 288 0 l 182 0 l 113 0 l 113 160 l 181 160 l 181 404 l 60 453 q 96 591 65 529 q 177 696 126 653 q 296 763 228 739 q 446 786 364 786 l 446 786 q 599 763 531 786 q 714 697 667 739 q 786 594 761 654 q 811 461 811 533 l 811 461 l 811 -119 q 755 -289 811 -231 q 596 -347 699 -347 l 596 -347 q 467 -312 517 -347 q 404 -229 417 -278 l 404 -229 l 396 -229 q 378 -274 389 -253 q 350 -312 368 -296 q 306 -337 332 -328 q 243 -347 281 -347 l 243 -347 l 181 -347 z "},"ฦ":{"ha":878,"x_min":60,"x_max":790,"o":"m 585 -278 l 585 435 q 547 575 585 526 q 421 624 508 624 l 421 624 q 314 595 358 624 q 250 526 269 567 l 250 526 l 300 508 q 342 488 325 499 q 368 464 358 478 q 382 432 378 450 q 386 389 386 414 l 386 389 l 386 200 q 337 51 386 103 q 182 0 288 0 l 182 0 l 113 0 l 113 160 l 181 160 l 181 404 l 60 453 q 94 591 65 529 q 172 696 124 653 q 284 763 219 739 q 426 786 349 786 l 426 786 q 583 762 515 786 q 697 694 651 738 q 767 590 743 650 q 790 461 790 531 l 790 461 l 790 -278 l 585 -278 z "},"ถ":{"ha":889,"x_min":42,"x_max":801,"o":"m 436 0 l 367 0 q 212 51 261 0 q 163 200 163 103 l 163 200 l 163 404 l 42 453 q 78 591 47 529 q 161 696 110 653 q 283 763 213 739 q 436 786 353 786 l 436 786 q 588 763 521 786 q 703 698 656 740 q 776 595 750 656 q 801 461 801 535 l 801 461 l 801 0 l 596 0 l 596 435 q 551 574 596 524 q 418 624 506 624 l 418 624 q 303 596 351 624 q 233 526 256 568 l 233 526 l 282 508 q 350 464 332 489 q 368 389 368 439 l 368 389 l 368 160 l 436 160 l 436 0 z "},"ฤ":{"ha":874,"x_min":42,"x_max":786,"o":"m 581 -278 l 581 435 q 539 574 581 525 q 410 624 497 624 l 410 624 q 299 595 344 624 q 233 526 253 567 l 233 526 l 282 508 q 350 464 332 489 q 368 389 368 439 l 368 389 l 368 160 l 436 160 l 436 0 l 367 0 q 212 51 261 0 q 163 200 163 103 l 163 200 l 163 404 l 42 453 q 78 591 47 529 q 158 696 108 653 q 274 763 207 739 q 422 786 342 786 l 422 786 q 576 763 508 786 q 691 696 644 739 q 762 593 738 653 q 786 461 786 533 l 786 461 l 786 -278 l 581 -278 z "},"ญ":{"ha":1283,"x_min":42,"x_max":1196,"o":"m 881 -17 l 881 -17 q 644 60 724 -17 q 564 275 564 136 l 564 275 l 564 435 q 526 575 564 526 q 401 624 489 624 l 401 624 q 295 596 339 624 q 232 528 251 568 l 232 528 l 282 508 q 350 464 332 489 q 368 389 368 439 l 368 389 l 368 160 l 436 160 l 436 0 l 367 0 q 212 51 261 0 q 163 200 163 103 l 163 200 l 163 404 l 42 453 q 76 591 47 529 q 153 696 106 653 q 265 763 201 739 q 406 786 329 786 l 406 786 q 563 761 494 786 q 676 692 631 736 q 746 590 722 649 q 769 461 769 531 l 769 461 l 769 290 q 794 188 769 226 q 881 150 819 150 l 881 150 q 966 189 942 150 q 990 290 990 228 l 990 290 l 990 769 l 1196 769 l 1196 275 q 1116 60 1196 136 q 881 -17 1036 -17 z m 1196 -347 l 740 -347 q 609 -307 654 -347 q 564 -189 564 -267 l 564 -189 l 564 -75 l 726 -75 l 726 -197 l 1196 -197 l 1196 -347 z "},"ฌ":{"ha":1307,"x_min":42,"x_max":1219,"o":"m 996 -17 l 996 -17 q 917 -5 951 -17 q 860 27 883 7 q 820 74 836 47 q 794 129 804 100 l 794 129 l 788 129 l 788 0 l 582 0 l 582 435 q 540 574 582 525 q 411 624 499 624 l 411 624 q 300 596 346 624 q 233 528 254 568 l 233 528 l 282 508 q 350 464 332 489 q 368 389 368 439 l 368 389 l 368 160 l 436 160 l 436 0 l 367 0 q 212 51 261 0 q 163 200 163 103 l 163 200 l 163 404 l 42 453 q 77 591 47 529 q 157 696 107 653 q 274 763 207 739 q 422 786 342 786 l 422 786 q 576 763 508 786 q 691 696 644 739 q 763 593 738 653 q 788 461 788 533 l 788 461 l 788 269 q 798 218 788 240 q 826 181 808 196 q 865 158 843 165 q 908 150 886 150 l 908 150 q 965 165 943 150 q 997 201 986 179 q 1010 251 1007 224 q 1014 304 1014 278 l 1014 304 l 1014 769 l 1219 769 l 1219 286 q 1163 62 1219 140 q 996 -17 1106 -17 z "},"ณ":{"ha":1324,"x_min":42,"x_max":1275,"o":"m 790 -17 l 790 -17 q 623 60 681 -17 q 563 278 565 136 l 563 278 l 563 435 q 525 575 563 526 q 400 624 488 624 l 400 624 q 294 596 338 624 q 232 528 251 568 l 232 528 l 282 508 q 350 464 332 489 q 368 389 368 439 l 368 389 l 368 160 l 436 160 l 436 0 l 367 0 q 212 51 261 0 q 163 200 163 103 l 163 200 l 163 404 l 42 453 q 76 591 47 529 q 153 696 106 653 q 264 763 200 739 q 404 786 328 786 l 404 786 q 561 761 493 786 q 675 692 629 736 q 744 590 721 649 q 768 461 768 531 l 768 461 l 768 304 q 773 244 768 272 q 790 196 778 217 q 823 163 801 175 q 878 150 844 150 l 878 150 q 963 181 925 150 q 1001 269 1001 211 l 1001 269 l 1001 769 l 1207 769 l 1207 160 l 1275 160 l 1275 0 l 1151 0 q 1024 143 1028 0 l 1024 143 l 1014 143 q 985 83 1003 111 q 941 32 968 54 q 876 -3 914 10 q 790 -17 839 -17 z "},"ข":{"ha":792,"x_min":57,"x_max":704,"o":"m 394 -17 l 394 -17 q 260 0 321 -17 q 156 51 199 17 q 89 138 113 86 q 65 260 65 189 l 65 260 q 71 328 65 299 q 85 381 76 357 q 106 422 94 404 q 126 456 117 440 l 126 456 q 160 522 146 486 q 175 592 175 557 l 175 592 l 175 601 l 57 601 l 57 769 l 211 769 q 332 734 290 769 q 374 639 374 699 l 374 639 l 374 633 q 363 551 374 593 q 325 457 351 510 l 325 457 q 292 385 306 418 q 279 301 279 353 l 279 301 l 279 264 q 308 181 279 211 q 390 151 338 151 l 390 151 q 473 180 443 151 q 503 261 503 208 l 503 261 l 503 769 l 704 769 l 704 292 q 623 65 704 147 q 394 -17 542 -17 z "},"ช":{"ha":786,"x_min":57,"x_max":721,"o":"m 394 -17 l 394 -17 q 260 0 321 -17 q 156 51 199 17 q 89 138 113 86 q 65 260 65 189 l 65 260 q 71 328 65 299 q 85 381 76 357 q 105 422 94 404 q 126 456 115 440 l 126 456 q 160 522 146 486 q 175 592 175 557 l 175 592 l 175 601 l 57 601 l 57 769 l 211 769 q 332 734 290 769 q 374 639 374 699 l 374 639 l 374 633 q 363 551 374 593 q 325 457 351 510 l 325 457 q 292 385 306 418 q 279 301 279 353 l 279 301 l 279 264 q 308 181 279 211 q 390 151 338 151 l 390 151 q 473 180 443 151 q 503 261 503 208 l 503 261 l 503 368 q 489 451 503 422 q 428 481 475 481 l 428 481 l 419 481 l 419 633 l 442 633 q 498 651 475 633 q 521 715 521 669 l 521 715 l 521 803 l 721 803 l 721 733 q 715 683 721 707 q 692 638 708 658 q 648 601 676 617 q 576 578 619 586 l 576 578 l 576 568 q 681 482 646 544 q 717 307 717 419 l 717 307 q 694 172 717 232 q 629 69 671 111 q 528 6 588 28 q 394 -17 468 -17 z "},"ฃ":{"ha":847,"x_min":24,"x_max":760,"o":"m 450 -17 l 450 -17 q 315 0 376 -17 q 211 51 254 17 q 144 138 168 86 q 121 260 121 189 l 121 260 q 145 385 121 335 q 206 481 169 436 l 206 481 q 258 549 240 524 q 275 603 275 575 l 275 603 q 260 640 275 626 q 224 654 246 654 l 224 654 q 170 629 186 654 q 150 558 154 604 l 150 558 l 24 558 l 24 779 l 163 779 l 163 676 l 169 676 q 222 756 185 726 q 318 786 258 786 l 318 786 q 413 751 376 786 q 450 653 450 717 l 450 653 q 444 601 450 625 q 430 553 439 576 q 408 506 421 531 q 382 456 396 482 l 382 456 q 350 391 365 422 q 335 306 335 360 l 335 306 l 335 264 q 364 181 335 211 q 446 151 393 151 l 446 151 q 528 180 499 151 q 558 261 558 208 l 558 261 l 558 769 l 760 769 l 760 292 q 678 65 760 147 q 450 -17 597 -17 z "},"ซ":{"ha":842,"x_min":24,"x_max":776,"o":"m 450 -17 l 450 -17 q 315 0 376 -17 q 211 51 254 17 q 144 138 168 86 q 121 260 121 189 l 121 260 q 145 385 121 335 q 206 481 169 436 l 206 481 q 258 549 240 524 q 275 603 275 575 l 275 603 q 260 640 275 626 q 224 654 246 654 l 224 654 q 170 629 186 654 q 150 558 154 604 l 150 558 l 24 558 l 24 779 l 163 779 l 163 676 l 169 676 q 222 756 185 726 q 318 786 258 786 l 318 786 q 413 751 376 786 q 450 653 450 717 l 450 653 q 444 601 450 625 q 430 553 439 576 q 408 506 421 531 q 382 456 396 482 l 382 456 q 350 391 365 422 q 335 306 335 360 l 335 306 l 335 264 q 364 181 335 211 q 446 151 393 151 l 446 151 q 528 180 499 151 q 558 261 558 208 l 558 261 l 558 368 q 544 451 558 422 q 483 481 531 481 l 483 481 l 475 481 l 475 633 l 497 633 q 553 651 531 633 q 576 715 576 669 l 576 715 l 576 803 l 776 803 l 776 733 q 770 683 776 707 q 748 638 764 658 q 703 601 732 617 q 632 578 675 586 l 632 578 l 632 568 q 737 482 701 544 q 772 307 772 419 l 772 307 q 749 172 772 232 q 685 69 726 111 q 583 6 643 28 q 450 -17 524 -17 z "},"ฆ":{"ha":913,"x_min":38,"x_max":825,"o":"m 578 -17 l 578 -17 q 491 -4 528 -17 q 427 28 454 8 q 383 75 400 49 q 356 129 365 101 l 356 129 l 349 129 l 349 0 l 143 0 l 143 269 q 149 338 143 308 q 164 392 154 368 q 188 438 174 417 q 219 481 201 458 l 219 481 q 272 549 254 524 q 289 603 289 575 l 289 603 q 274 640 289 626 q 238 654 260 654 l 238 654 q 184 629 200 654 q 164 558 168 604 l 164 558 l 38 558 l 38 779 l 176 779 l 176 676 l 183 676 q 235 756 199 726 q 332 786 272 786 l 332 786 q 427 751 390 786 q 464 653 464 717 l 464 653 q 458 601 464 625 q 444 553 453 576 q 422 506 435 531 q 396 456 410 482 l 396 456 q 364 391 379 422 q 349 306 349 360 l 349 306 l 349 269 q 361 218 349 240 q 394 181 374 196 q 440 158 414 165 q 490 150 465 150 l 490 150 q 555 163 529 150 q 594 197 581 175 q 614 246 608 218 q 619 304 619 274 l 619 304 l 619 769 l 825 769 l 825 286 q 763 62 825 140 q 578 -17 700 -17 z "},"ฑ":{"ha":914,"x_min":38,"x_max":826,"o":"m 143 0 l 143 269 q 149 338 143 308 q 164 392 154 368 q 188 438 174 417 q 219 481 201 458 l 219 481 q 272 549 254 524 q 289 603 289 575 l 289 603 q 274 640 289 626 q 238 654 260 654 l 238 654 q 184 629 200 654 q 164 558 168 604 l 164 558 l 38 558 l 38 779 l 176 779 l 176 676 l 183 676 q 235 756 199 726 q 332 786 272 786 l 332 786 q 406 761 381 786 q 431 690 431 736 l 431 690 q 426 649 431 671 l 426 649 l 433 647 q 520 751 476 717 q 632 786 564 786 l 632 786 q 777 722 728 786 q 826 539 826 657 l 826 539 l 826 0 l 621 0 l 621 493 q 618 540 621 518 q 607 581 615 563 q 584 609 599 599 q 544 619 569 619 l 544 619 q 503 604 524 619 q 463 565 482 589 q 427 511 444 540 q 396 456 410 482 l 396 456 q 364 391 379 422 q 349 306 349 360 l 349 306 l 349 0 l 143 0 z "},"ค":{"ha":931,"x_min":88,"x_max":843,"o":"m 88 0 l 88 460 q 114 594 88 535 q 189 697 140 654 q 308 763 238 740 q 465 786 378 786 l 465 786 q 623 763 553 786 q 742 697 693 740 q 817 594 790 654 q 843 460 843 535 l 843 460 l 843 0 l 638 0 l 638 450 q 592 578 638 533 q 465 624 546 624 l 465 624 q 339 578 385 624 q 293 450 293 533 l 293 450 l 293 285 l 300 285 q 319 344 306 315 q 356 394 333 372 q 411 430 379 417 q 486 443 443 443 l 486 443 l 522 443 l 522 251 l 471 251 q 337 228 381 251 q 293 140 293 204 l 293 140 l 293 0 l 88 0 z "},"ศ":{"ha":1000,"x_min":88,"x_max":997,"o":"m 88 0 l 88 460 q 114 594 88 535 q 189 697 140 654 q 308 763 238 740 q 465 786 378 786 l 465 786 q 710 722 614 786 l 710 722 q 828 810 726 810 l 828 810 l 997 810 l 997 640 l 797 640 l 797 632 q 843 460 843 558 l 843 460 l 843 0 l 638 0 l 638 450 q 592 578 638 533 q 465 624 546 624 l 465 624 q 339 578 385 624 q 293 450 293 533 l 293 450 l 293 285 l 300 285 q 319 344 306 315 q 356 394 333 372 q 411 430 379 417 q 486 443 443 443 l 486 443 l 522 443 l 522 251 l 471 251 q 337 228 381 251 q 293 140 293 204 l 293 140 l 293 0 l 88 0 z "},"ฅ":{"ha":960,"x_min":88,"x_max":872,"o":"m 88 0 l 88 563 q 142 727 88 668 q 288 786 196 786 l 288 786 q 413 750 361 786 q 475 647 464 714 l 475 647 l 485 647 q 547 750 496 714 q 672 786 597 786 l 672 786 q 818 727 764 786 q 872 563 872 668 l 872 563 l 872 0 l 671 0 l 671 535 q 611 617 671 617 l 611 617 q 562 589 576 617 q 540 517 547 561 l 540 517 l 418 517 q 397 589 411 561 q 349 617 383 617 l 349 617 q 289 535 289 617 l 289 535 l 289 264 l 296 264 q 315 323 301 294 q 352 374 329 351 q 407 409 375 396 q 482 422 439 422 l 482 422 l 518 422 l 518 231 l 467 231 q 333 207 376 231 q 289 119 289 183 l 289 119 l 289 0 l 88 0 z "},"ง":{"ha":764,"x_min":17,"x_max":708,"o":"m 257 0 l 17 550 l 217 550 l 383 163 l 390 163 q 467 204 439 163 q 494 321 494 246 l 494 321 l 494 449 q 465 565 494 524 q 385 607 436 607 l 385 607 l 333 607 l 333 769 l 389 769 q 523 743 464 769 q 623 667 582 717 q 686 547 664 618 q 708 385 708 475 l 708 385 q 687 223 708 294 q 624 102 665 151 q 524 26 583 53 q 392 0 465 0 l 392 0 l 257 0 z "},"จ":{"ha":788,"x_min":8,"x_max":732,"o":"m 258 0 l 154 283 l 81 283 l 81 443 l 186 443 q 268 422 239 443 q 314 354 297 401 l 314 354 l 385 153 l 422 153 q 492 198 465 153 q 518 325 518 243 l 518 325 l 518 453 q 473 578 518 533 q 346 624 428 624 l 346 624 q 267 611 301 624 q 207 581 233 599 q 163 543 181 564 q 133 506 144 522 l 133 506 l 8 617 q 62 681 31 650 q 135 735 93 711 q 232 772 178 758 q 356 786 286 786 l 356 786 q 513 759 443 786 q 632 681 583 732 q 706 556 681 629 q 732 389 732 482 l 732 389 q 710 225 732 297 q 647 103 688 153 q 548 26 606 53 q 418 0 490 0 l 418 0 l 258 0 z "},"ฐ":{"ha":882,"x_min":8,"x_max":869,"o":"m 258 0 l 154 283 l 81 283 l 81 443 l 186 443 q 268 422 239 443 q 314 354 297 401 l 314 354 l 385 153 l 422 153 q 492 198 465 153 q 518 325 518 243 l 518 325 l 518 453 q 473 578 518 533 q 346 624 428 624 l 346 624 q 267 611 301 624 q 207 581 233 599 q 163 543 181 564 q 133 506 144 522 l 133 506 l 8 617 q 62 681 31 650 q 135 735 93 711 q 232 772 178 758 q 356 786 286 786 l 356 786 q 481 770 424 786 q 582 724 538 754 l 582 724 q 621 789 590 768 q 700 810 651 810 l 700 810 l 869 810 l 869 640 l 669 640 l 669 632 q 732 389 732 533 l 732 389 q 710 225 732 297 q 647 103 688 153 q 548 26 606 53 q 418 0 490 0 l 418 0 l 258 0 z m 60 -347 l 60 -187 l 124 -187 q 190 -163 172 -187 q 210 -97 207 -139 l 210 -97 l 350 -97 q 368 -160 353 -133 q 424 -187 383 -187 l 424 -187 q 469 -169 451 -187 q 486 -114 486 -151 l 486 -114 l 486 -58 l 692 -58 l 692 -110 q 636 -286 692 -225 q 476 -347 581 -347 l 476 -347 q 347 -312 397 -347 q 285 -229 297 -278 l 285 -229 l 276 -229 q 259 -274 269 -253 q 231 -312 249 -296 q 187 -337 213 -328 q 124 -347 161 -347 l 124 -347 l 60 -347 z "},"ฉ":{"ha":844,"x_min":26,"x_max":810,"o":"m 331 -17 l 331 -17 q 146 62 208 -17 q 83 286 83 140 l 83 286 l 83 346 l 289 346 l 289 304 q 294 246 289 274 q 311 197 299 218 q 347 163 324 175 q 406 150 369 150 l 406 150 q 451 158 428 150 q 492 181 474 165 q 524 218 511 196 q 536 269 536 240 l 536 269 l 536 475 q 528 534 536 507 q 502 581 521 561 q 451 613 483 601 q 372 624 419 624 l 372 624 q 240 587 290 624 q 158 504 190 550 l 158 504 l 26 619 q 87 689 53 658 q 164 741 121 719 q 262 774 207 763 q 388 786 317 786 l 388 786 q 653 709 564 786 q 742 482 742 632 l 742 482 l 742 160 l 810 160 l 810 0 l 686 0 q 557 143 561 0 l 557 143 l 547 143 q 517 83 536 111 q 470 32 497 54 q 408 -3 443 10 q 331 -17 374 -17 z "},"ด":{"ha":879,"x_min":56,"x_max":792,"o":"m 400 -17 l 400 -17 q 256 11 319 -17 q 147 90 192 39 q 79 216 103 142 q 56 385 56 290 l 56 385 q 82 551 56 476 q 158 677 108 625 q 276 758 207 729 q 432 786 346 786 l 432 786 q 581 763 514 786 q 694 697 647 740 q 766 593 740 654 q 792 456 792 532 l 792 456 l 792 0 l 586 0 l 586 446 q 545 577 586 531 q 431 624 504 624 l 431 624 q 313 574 356 624 q 271 438 271 525 l 271 438 l 271 335 q 424 146 271 146 l 424 146 q 448 147 438 146 q 469 150 458 147 l 469 150 l 493 -8 q 444 -15 472 -14 q 400 -17 417 -17 z "},"ต":{"ha":940,"x_min":56,"x_max":853,"o":"m 415 -17 l 415 -17 q 149 84 242 -17 q 56 388 56 185 l 56 388 q 117 685 56 583 q 301 786 179 786 l 301 786 q 412 750 369 786 q 465 647 454 714 l 465 647 l 475 647 q 535 750 486 714 q 658 786 583 786 l 658 786 q 799 727 746 786 q 853 563 853 668 l 853 563 l 853 0 l 647 0 l 647 533 q 632 596 647 575 q 590 617 617 617 l 590 617 q 544 589 558 617 q 525 517 531 561 l 525 517 l 403 517 q 385 589 397 561 q 340 617 372 617 l 340 617 q 287 579 303 617 q 271 469 271 542 l 271 469 l 271 318 q 279 250 271 281 q 308 198 288 219 q 361 165 328 176 q 446 153 394 153 l 446 153 q 493 158 469 153 l 493 158 l 517 -6 q 471 -14 501 -11 q 415 -17 440 -17 z "},"ฒ":{"ha":1333,"x_min":56,"x_max":1246,"o":"m 388 -17 l 388 -17 q 142 84 228 -17 q 56 388 56 185 l 56 388 q 114 685 56 583 q 293 786 172 786 l 293 786 q 390 750 350 786 q 442 647 431 714 l 442 647 l 451 647 q 510 750 463 714 q 624 786 557 786 l 624 786 q 765 729 717 786 q 814 563 814 672 l 814 563 l 814 269 q 824 218 814 240 q 851 181 835 196 q 890 158 868 165 q 933 150 911 150 l 933 150 q 988 163 967 150 q 1020 197 1008 175 q 1036 246 1032 218 q 1040 304 1040 274 l 1040 304 l 1040 769 l 1246 769 l 1246 286 q 1189 62 1246 140 q 1021 -17 1132 -17 l 1021 -17 q 943 -5 976 -17 q 885 27 910 7 q 845 74 861 47 q 819 129 829 100 l 819 129 l 814 129 l 814 0 l 613 0 l 613 553 q 600 602 613 588 q 567 617 588 617 l 567 617 q 522 589 536 617 q 506 517 508 561 l 506 517 l 383 517 q 370 589 381 561 q 332 617 360 617 l 332 617 q 285 578 300 617 q 271 469 271 540 l 271 469 l 271 318 q 278 250 271 281 q 301 198 285 219 q 347 165 318 176 q 418 153 375 153 l 418 153 q 465 158 442 153 l 465 158 l 489 -6 q 443 -14 474 -11 q 388 -17 413 -17 z "},"ท":{"ha":871,"x_min":96,"x_max":783,"o":"m 96 0 l 96 769 l 301 769 l 301 640 l 308 640 q 336 696 318 669 q 381 742 354 722 q 446 774 408 763 q 533 786 483 786 l 533 786 q 720 708 657 786 q 783 483 783 629 l 783 483 l 783 0 l 578 0 l 578 465 q 548 580 578 540 q 447 619 518 619 l 447 619 q 394 612 419 619 q 347 589 368 604 q 314 551 326 574 q 301 500 301 529 l 301 500 l 301 0 l 96 0 z "},"ธ":{"ha":779,"x_min":68,"x_max":728,"o":"m 82 0 l 82 292 l 265 292 l 265 153 l 531 153 l 531 258 q 503 335 531 313 q 411 363 476 357 l 411 363 l 68 390 l 68 503 q 155 712 68 638 q 408 786 242 786 l 408 786 q 595 757 518 786 q 728 679 672 728 l 728 679 l 631 547 q 533 606 594 583 q 394 628 471 628 l 394 628 q 288 600 325 628 q 250 526 250 572 l 250 526 l 438 510 q 563 490 508 503 q 653 449 617 476 q 709 380 690 422 q 728 274 728 338 l 728 274 l 728 200 q 678 51 728 103 q 525 0 629 0 l 525 0 l 82 0 z "},"บ":{"ha":863,"x_min":88,"x_max":775,"o":"m 432 -17 l 432 -17 q 288 6 351 -17 q 179 68 224 28 q 111 167 135 108 q 88 296 88 225 l 88 296 l 88 769 l 293 769 l 293 306 q 330 188 293 229 q 432 146 367 146 l 432 146 q 533 188 497 146 q 569 306 569 229 l 569 306 l 569 769 l 775 769 l 775 296 q 751 167 775 225 q 683 68 728 108 q 575 6 639 28 q 432 -17 511 -17 z "},"ป":{"ha":863,"x_min":88,"x_max":775,"o":"m 432 -17 l 432 -17 q 288 6 351 -17 q 179 68 224 28 q 111 167 135 108 q 88 296 88 225 l 88 296 l 88 769 l 293 769 l 293 306 q 330 188 293 229 q 432 146 367 146 l 432 146 q 533 188 497 146 q 569 306 569 229 l 569 306 l 569 1038 l 775 1038 l 775 296 q 751 167 775 225 q 683 68 728 108 q 575 6 639 28 q 432 -17 511 -17 z "},"ษ":{"ha":942,"x_min":88,"x_max":882,"o":"m 440 -17 l 440 -17 q 293 6 358 -17 q 182 68 228 28 q 112 167 136 108 q 88 296 88 225 l 88 296 l 88 769 l 293 769 l 293 306 q 331 188 293 229 q 440 146 369 146 l 440 146 q 549 188 511 146 q 588 306 588 229 l 588 306 l 588 340 l 507 340 q 361 465 361 340 l 361 465 l 361 558 l 519 558 l 519 479 l 588 479 l 588 769 l 793 769 l 793 479 l 882 479 l 882 340 l 793 340 l 793 296 q 769 167 793 225 q 699 68 744 108 q 588 6 653 28 q 440 -17 522 -17 z "},"ม":{"ha":865,"x_min":96,"x_max":778,"o":"m 531 -17 l 531 -17 q 444 -4 481 -17 q 380 28 407 8 q 335 75 353 49 q 308 129 318 101 l 308 129 l 301 129 l 301 0 l 96 0 l 96 769 l 301 769 l 301 269 q 314 218 301 240 q 347 181 326 196 q 392 158 367 165 q 443 150 418 150 l 443 150 q 508 163 482 150 q 547 197 533 175 q 567 246 561 218 q 572 304 572 274 l 572 304 l 572 769 l 778 769 l 778 286 q 715 62 778 140 q 531 -17 653 -17 z "},"น":{"ha":876,"x_min":88,"x_max":831,"o":"m 331 -17 l 331 -17 q 149 62 211 -17 q 88 286 88 140 l 88 286 l 88 769 l 293 769 l 293 304 q 299 242 293 271 q 318 194 304 214 q 356 162 332 174 q 417 150 381 150 l 417 150 q 467 158 442 150 q 513 181 493 165 q 544 218 532 196 q 557 269 557 240 l 557 269 l 557 769 l 763 769 l 763 160 l 831 160 l 831 0 l 707 0 q 578 143 582 0 l 578 143 l 568 143 q 538 83 557 111 q 491 32 519 54 q 423 -3 463 10 q 331 -17 383 -17 z "},"ผ":{"ha":971,"x_min":60,"x_max":883,"o":"m 292 -17 l 292 -17 q 178 12 224 -17 q 107 92 133 40 q 70 218 81 144 q 60 382 60 292 l 60 382 q 135 667 60 564 q 360 769 211 769 l 360 769 l 404 769 l 404 601 l 381 601 q 299 565 322 601 q 275 467 275 529 l 275 467 l 275 271 q 288 180 275 213 q 336 147 301 147 l 336 147 q 380 169 365 147 q 394 226 394 190 l 394 226 l 394 360 l 563 360 l 563 226 q 578 169 563 190 q 621 147 593 147 l 621 147 q 663 167 649 147 q 678 221 678 186 l 678 221 l 678 769 l 883 769 l 883 200 q 831 42 883 101 q 685 -17 779 -17 l 685 -17 q 547 25 596 -17 q 486 128 497 67 l 486 128 l 476 128 q 417 25 465 67 q 292 -17 369 -17 z "},"ฝ":{"ha":971,"x_min":60,"x_max":883,"o":"m 292 -17 l 292 -17 q 178 12 224 -17 q 107 92 133 40 q 70 218 81 144 q 60 382 60 292 l 60 382 q 135 667 60 564 q 360 769 211 769 l 360 769 l 404 769 l 404 601 l 381 601 q 299 565 322 601 q 275 467 275 529 l 275 467 l 275 271 q 288 180 275 213 q 336 147 301 147 l 336 147 q 380 169 365 147 q 394 226 394 190 l 394 226 l 394 360 l 563 360 l 563 226 q 578 169 563 190 q 621 147 593 147 l 621 147 q 663 167 649 147 q 678 221 678 186 l 678 221 l 678 1038 l 883 1038 l 883 200 q 831 42 883 101 q 685 -17 779 -17 l 685 -17 q 547 25 596 -17 q 486 128 497 67 l 486 128 l 476 128 q 417 25 465 67 q 292 -17 369 -17 z "},"พ":{"ha":1036,"x_min":75,"x_max":961,"o":"m 178 0 l 75 769 l 263 769 l 299 368 l 307 242 l 318 242 l 346 368 l 450 769 l 586 769 l 690 368 l 718 242 l 728 242 l 732 368 l 774 769 l 961 769 l 857 0 l 639 0 l 539 451 l 519 560 l 515 560 l 493 451 l 392 0 l 178 0 z "},"ฟ":{"ha":1036,"x_min":75,"x_max":999,"o":"m 178 0 l 75 769 l 263 769 l 299 368 l 307 242 l 318 242 l 346 368 l 450 769 l 586 769 l 690 368 l 718 242 l 728 242 l 732 368 l 801 1038 l 999 1038 l 857 0 l 639 0 l 539 451 l 519 560 l 515 560 l 493 451 l 392 0 l 178 0 z "},"ย":{"ha":835,"x_min":56,"x_max":747,"o":"m 385 -17 l 385 -17 q 147 42 233 -17 q 61 210 61 101 l 61 210 q 101 324 61 276 q 203 390 140 371 l 203 390 l 203 399 q 94 467 133 417 q 56 586 56 517 l 56 586 q 72 667 56 631 q 119 731 89 704 q 191 772 149 757 q 283 786 233 786 l 283 786 q 356 780 315 786 q 429 756 397 774 l 429 756 l 386 608 q 353 622 369 618 q 319 625 338 625 l 319 625 q 263 606 288 625 q 239 551 239 588 l 239 551 q 336 475 239 475 l 336 475 l 408 475 l 408 339 l 336 339 q 286 319 306 339 q 267 265 267 299 l 267 265 l 267 239 q 299 169 267 192 q 392 146 331 146 l 392 146 q 501 184 461 146 q 542 296 542 222 l 542 296 l 542 769 l 747 769 l 747 269 q 722 151 747 204 q 649 61 696 99 q 535 3 601 24 q 385 -17 468 -17 z "},"ร":{"ha":767,"x_min":57,"x_max":706,"o":"m 381 -17 l 381 -17 q 192 19 269 -17 q 57 121 115 56 l 57 121 l 181 240 q 273 169 221 196 q 390 142 325 142 l 390 142 q 483 163 454 142 q 513 217 513 183 l 513 217 q 489 269 513 253 q 425 290 465 285 l 425 290 l 346 300 q 152 374 219 315 q 85 536 85 432 l 85 536 q 106 640 85 594 q 167 719 128 686 q 262 769 207 751 q 383 786 317 786 l 383 786 q 483 778 439 786 q 565 756 528 771 q 632 718 601 740 q 692 667 663 696 l 692 667 l 571 547 q 489 606 538 583 q 388 628 440 628 l 388 628 q 304 607 331 628 q 278 553 278 586 l 278 553 q 299 499 278 519 q 374 472 321 479 l 374 472 l 453 461 q 559 436 513 453 q 638 392 606 419 q 688 326 671 365 q 706 233 706 288 l 706 233 q 682 133 706 179 q 616 54 658 88 q 513 2 574 21 q 381 -17 453 -17 z "},"ล":{"ha":833,"x_min":47,"x_max":746,"o":"m 311 -14 l 311 -14 q 134 41 200 -14 q 68 213 68 96 l 68 213 q 131 381 68 321 q 311 440 193 440 l 311 440 l 540 440 l 540 481 q 503 587 540 550 q 383 624 467 624 l 383 624 q 313 614 343 624 q 257 588 282 604 q 213 552 232 572 q 178 510 193 532 l 178 510 l 47 624 q 181 742 100 699 q 397 786 261 786 l 397 786 q 658 710 571 786 q 746 488 746 635 l 746 488 l 746 0 l 540 0 l 540 310 l 385 310 q 276 221 276 310 l 276 221 l 276 197 q 299 128 276 154 q 364 103 321 103 l 364 103 q 381 103 372 103 q 397 106 389 103 l 397 106 l 411 -4 q 392 -9 404 -7 q 366 -12 381 -11 q 337 -13 351 -12 q 311 -14 322 -14 z "},"ส":{"ha":889,"x_min":47,"x_max":899,"o":"m 311 -14 l 311 -14 q 134 41 200 -14 q 68 213 68 96 l 68 213 q 131 381 68 321 q 311 440 193 440 l 311 440 l 540 440 l 540 481 q 503 587 540 550 q 383 624 467 624 l 383 624 q 313 614 343 624 q 257 588 282 604 q 213 552 232 572 q 178 510 193 532 l 178 510 l 47 624 q 181 742 100 699 q 397 786 261 786 l 397 786 q 629 731 542 786 l 629 731 q 670 790 640 771 q 746 810 700 810 l 746 810 l 899 810 l 899 640 l 715 640 l 715 635 q 746 488 746 575 l 746 488 l 746 0 l 540 0 l 540 310 l 385 310 q 276 221 276 310 l 276 221 l 276 197 q 299 128 276 154 q 364 103 321 103 l 364 103 q 381 103 372 103 q 397 106 389 103 l 397 106 l 411 -4 q 392 -9 404 -7 q 366 -12 381 -11 q 337 -13 351 -12 q 311 -14 322 -14 z "},"ว":{"ha":733,"x_min":22,"x_max":678,"o":"m 339 -17 l 339 -17 q 218 -1 275 -17 q 117 46 161 14 l 117 46 l 193 190 q 249 160 217 175 q 328 146 281 146 l 328 146 q 428 191 394 146 q 463 313 463 236 l 463 313 l 463 456 q 429 578 463 532 q 329 624 396 624 l 329 624 q 235 592 269 624 q 189 514 200 560 l 189 514 l 22 586 q 138 733 57 681 q 339 786 219 786 l 339 786 q 484 758 421 786 q 590 677 547 729 q 656 551 633 625 q 678 386 678 478 l 678 386 q 656 219 678 294 q 590 92 633 144 q 484 12 547 40 q 339 -17 421 -17 z "},"อ":{"ha":829,"x_min":51,"x_max":774,"o":"m 404 -17 l 404 -17 q 268 3 331 -17 q 160 59 206 24 q 90 143 115 94 q 64 250 64 192 l 64 250 l 64 318 q 95 408 64 375 q 189 442 126 442 l 189 442 l 356 442 l 356 290 l 249 290 l 249 268 q 290 173 249 206 q 411 140 332 140 l 411 140 q 520 188 482 140 q 558 319 558 236 l 558 319 l 558 447 q 514 577 558 531 q 389 624 469 624 l 389 624 q 316 614 350 624 q 255 589 282 604 q 208 555 228 574 q 176 519 188 536 l 176 519 l 51 631 q 181 741 94 696 q 397 786 268 786 l 397 786 q 555 759 485 786 q 674 680 625 732 q 748 553 722 628 q 774 385 774 479 l 774 385 q 749 216 774 290 q 676 90 724 142 q 559 10 628 38 q 404 -17 490 -17 z "},"ฮ":{"ha":911,"x_min":51,"x_max":913,"o":"m 404 -17 l 404 -17 q 268 3 331 -17 q 160 59 206 24 q 90 143 115 94 q 64 250 64 192 l 64 250 l 64 318 q 95 408 64 375 q 189 442 126 442 l 189 442 l 356 442 l 356 290 l 249 290 l 249 268 q 290 173 249 206 q 411 140 332 140 l 411 140 q 520 188 482 140 q 558 319 558 236 l 558 319 l 558 447 q 514 577 558 531 q 389 624 469 624 l 389 624 q 316 614 350 624 q 255 589 282 604 q 208 555 228 574 q 176 519 188 536 l 176 519 l 51 631 q 181 741 94 696 q 397 786 268 786 l 397 786 q 624 722 532 786 l 624 722 q 663 788 632 767 q 742 810 693 810 l 742 810 l 913 810 l 913 640 l 711 640 l 711 631 q 774 385 774 532 l 774 385 q 749 216 774 290 q 676 90 724 142 q 559 10 628 38 q 404 -17 490 -17 z "},"ห":{"ha":864,"x_min":96,"x_max":793,"o":"m 96 0 l 96 769 l 301 769 l 301 556 l 478 579 q 535 606 518 585 q 558 678 553 628 l 558 678 l 568 769 l 781 769 l 771 671 q 721 562 764 607 q 597 510 678 517 l 597 510 l 597 503 q 682 467 650 494 q 733 402 714 439 q 759 325 751 365 q 769 253 767 285 l 769 253 l 793 0 l 582 0 l 561 267 q 524 377 556 339 q 435 408 492 415 l 435 408 l 301 392 l 301 0 l 96 0 z "},"ฬ":{"ha":946,"x_min":96,"x_max":864,"o":"m 96 0 l 96 769 l 299 769 l 299 403 l 290 214 l 299 214 l 415 365 l 528 365 l 644 214 l 653 214 l 646 403 l 646 550 q 632 598 646 581 q 578 615 618 615 l 578 615 l 531 615 l 531 769 l 593 769 q 643 783 625 769 q 661 838 661 797 l 661 838 l 661 950 l 864 950 l 864 861 q 738 715 864 738 l 738 715 l 738 706 q 824 649 799 688 q 849 547 849 610 l 849 547 l 849 0 l 649 0 l 472 218 l 294 0 l 96 0 z "},"า":{"ha":721,"x_min":36,"x_max":633,"o":"m 428 0 l 428 510 q 401 593 428 563 q 311 624 374 624 l 311 624 q 217 598 251 624 q 158 539 182 572 l 158 539 l 36 647 q 147 749 81 713 q 326 786 213 786 l 326 786 q 556 718 478 786 q 633 519 633 650 l 633 519 l 633 0 l 428 0 z "},"ๅ":{"ha":721,"x_min":36,"x_max":633,"o":"m 428 -278 l 428 510 q 401 593 428 563 q 311 624 374 624 l 311 624 q 217 598 251 624 q 158 539 182 572 l 158 539 l 36 647 q 147 749 81 713 q 326 786 213 786 l 326 786 q 556 718 478 786 q 633 519 633 650 l 633 519 l 633 -278 l 428 -278 z "},"ำ":{"ha":721,"x_min":-422,"x_max":633,"o":"m 428 0 l 428 510 q 401 593 428 563 q 311 624 374 624 l 311 624 q 217 598 251 624 q 158 539 182 572 l 158 539 l 36 647 q 147 749 81 713 q 326 786 213 786 l 326 786 q 556 718 478 786 q 633 519 633 650 l 633 519 l 633 0 l 428 0 z m -231 960 l -231 960 q -187 974 -203 960 q -172 1017 -172 988 l -172 1017 l -172 1031 q -187 1074 -172 1060 q -231 1088 -203 1088 l -231 1088 q -274 1074 -258 1088 q -289 1031 -289 1060 l -289 1031 l -289 1017 q -274 974 -289 988 q -231 960 -258 960 z m -231 844 l -231 844 q -310 858 -275 844 q -371 897 -346 872 q -409 953 -396 921 q -422 1024 -422 986 l -422 1024 q -409 1094 -422 1061 q -371 1151 -396 1126 q -310 1189 -346 1175 q -231 1203 -275 1203 l -231 1203 q -152 1189 -187 1203 q -92 1151 -117 1175 q -53 1094 -67 1126 q -39 1024 -39 1061 l -39 1024 q -53 953 -39 986 q -92 897 -67 921 q -152 858 -117 872 q -231 844 -187 844 z "},"เ":{"ha":453,"x_min":115,"x_max":417,"o":"m 417 0 l 319 0 q 165 51 214 0 q 115 200 115 103 l 115 200 l 115 769 l 321 769 l 321 160 l 417 160 l 417 0 z "},"แ":{"ha":840,"x_min":115,"x_max":804,"o":"m 417 0 l 319 0 q 165 51 214 0 q 115 200 115 103 l 115 200 l 115 769 l 321 769 l 321 160 l 417 160 l 417 0 z m 804 0 l 707 0 q 552 51 601 0 q 503 200 503 103 l 503 200 l 503 769 l 708 769 l 708 160 l 804 160 l 804 0 z "},"โ":{"ha":453,"x_min":-71,"x_max":538,"o":"m 417 0 l 319 0 q 165 51 214 0 q 115 200 115 103 l 115 200 l 115 857 l -71 933 l -71 978 q -48 1101 -71 1046 q 17 1194 -25 1156 q 119 1253 60 1232 q 253 1274 179 1274 l 253 1274 q 424 1242 357 1274 q 538 1153 490 1210 l 538 1153 l 418 1040 q 357 1090 397 1068 q 258 1113 317 1113 l 258 1113 q 151 1088 196 1113 q 101 1014 107 1064 l 101 1014 l 235 961 q 303 917 285 942 q 321 842 321 892 l 321 842 l 321 160 l 417 160 l 417 0 z "},"ใ":{"ha":453,"x_min":-71,"x_max":492,"o":"m 417 0 l 319 0 q 165 51 214 0 q 115 200 115 103 l 115 200 l 115 707 q 126 767 115 740 q 152 817 136 794 q 188 859 168 840 q 228 897 208 878 l 228 897 q 276 953 256 925 q 296 1021 296 982 l 296 1021 q 272 1089 296 1065 q 204 1113 247 1113 l 204 1113 q 126 1082 156 1113 q 78 994 96 1051 l 78 994 l -71 1078 q -33 1151 -57 1115 q 26 1213 -10 1186 q 110 1257 61 1240 q 226 1274 160 1274 l 226 1274 q 332 1258 283 1274 q 416 1213 381 1243 q 472 1141 451 1183 q 492 1044 492 1099 l 492 1044 q 465 942 492 986 q 406 861 438 899 l 406 861 q 347 789 374 824 q 321 714 321 754 l 321 714 l 321 160 l 417 160 l 417 0 z "},"ไ":{"ha":453,"x_min":-49,"x_max":457,"o":"m 417 0 l 319 0 q 165 51 214 0 q 115 200 115 103 l 115 200 l 115 913 q 156 1035 115 993 q 250 1090 196 1076 l 250 1090 l 250 1097 l -49 1097 l -49 1257 l 457 1257 l 457 1097 l 438 1097 q 352 1064 383 1097 q 321 969 321 1031 l 321 969 l 321 160 l 417 160 l 417 0 z "},"ะ":{"ha":565,"x_min":88,"x_max":478,"o":"m 478 110 l 264 110 q 133 150 178 110 q 88 268 88 190 l 88 268 l 88 354 l 258 354 l 258 278 l 478 278 l 478 110 z m 478 450 l 264 450 q 133 490 178 450 q 88 608 88 531 l 88 608 l 88 694 l 258 694 l 258 618 l 478 618 l 478 450 z "},"":{"ha":982,"x_min":88,"x_max":894,"o":"m 464 110 l 264 110 q 133 150 178 110 q 88 268 88 190 l 88 268 l 88 354 l 258 354 l 258 278 l 464 278 l 464 110 z m 464 450 l 264 450 q 133 490 178 450 q 88 608 88 531 l 88 608 l 88 694 l 258 694 l 258 618 l 464 618 l 464 450 z m 894 235 l 694 235 q 563 275 608 235 q 518 393 518 315 l 518 393 l 518 479 l 689 479 l 689 403 l 894 403 l 894 235 z "},"๐":{"ha":819,"x_min":60,"x_max":760,"o":"m 410 146 l 410 146 q 509 180 472 146 q 546 276 546 214 l 546 276 l 546 426 q 509 523 546 489 q 410 557 472 557 l 410 557 q 310 523 347 557 q 274 426 274 489 l 274 426 l 274 276 q 310 180 274 214 q 410 146 347 146 z m 410 -17 l 410 -17 q 263 9 328 -17 q 153 82 199 35 q 84 197 108 129 q 60 351 60 265 l 60 351 q 84 505 60 436 q 153 621 108 574 q 263 694 199 668 q 410 719 328 719 l 410 719 q 556 694 490 719 q 666 621 621 668 q 735 505 711 574 q 760 351 760 436 l 760 351 q 735 197 760 265 q 666 82 711 129 q 556 9 621 35 q 410 -17 490 -17 z "},"๑":{"ha":769,"x_min":42,"x_max":710,"o":"m 253 -65 l 229 100 q 357 119 306 104 q 440 161 408 135 q 483 225 471 188 q 496 308 496 263 l 496 308 l 496 400 q 459 516 496 475 q 360 557 422 557 l 360 557 q 274 528 307 557 q 240 458 240 500 l 240 458 l 240 433 q 242 406 240 419 q 251 381 244 392 q 269 363 257 369 q 303 356 282 356 l 303 356 q 321 356 314 356 q 339 357 328 356 l 339 357 l 350 213 q 317 206 339 208 q 276 203 294 203 l 276 203 q 104 263 167 203 q 42 446 42 324 l 42 446 q 65 559 42 508 q 130 645 88 610 q 233 700 172 681 q 369 719 294 719 l 369 719 q 512 694 449 719 q 619 621 575 668 q 686 506 663 574 q 710 356 710 439 l 710 356 q 679 177 710 253 q 590 50 649 101 q 447 -30 532 -1 q 253 -65 363 -58 l 253 -65 z "},"๒":{"ha":1158,"x_min":96,"x_max":1071,"o":"m 583 -17 l 583 -17 q 318 13 415 -17 q 172 90 221 43 q 109 195 122 138 q 96 308 96 253 l 96 308 l 96 842 l 301 842 l 301 313 q 313 241 301 272 q 349 188 324 210 l 349 188 q 408 156 372 168 q 497 144 444 144 l 497 144 l 669 144 q 758 156 722 144 q 818 188 794 168 l 818 188 q 854 241 843 210 q 865 313 865 272 l 865 313 l 865 506 q 853 542 865 532 q 826 553 842 553 l 826 553 q 794 532 807 553 q 781 461 782 511 l 781 461 l 653 461 q 640 533 653 513 q 607 553 626 553 l 607 553 q 575 538 585 553 q 565 500 565 522 l 565 500 l 565 440 q 579 388 565 410 q 633 367 593 367 l 633 367 q 655 368 647 367 q 667 372 663 369 l 667 372 l 681 250 q 643 242 667 244 q 594 239 619 239 l 594 239 q 426 301 478 239 q 374 479 374 363 l 374 479 q 418 658 374 596 q 557 719 463 719 l 557 719 q 667 684 626 719 q 715 603 707 649 l 715 603 l 726 603 q 776 684 736 649 q 886 719 817 719 l 886 719 q 1026 665 981 719 q 1071 510 1071 610 l 1071 510 l 1071 308 q 1058 195 1071 253 q 995 90 1044 138 q 849 13 946 43 q 583 -17 751 -17 z "},"๓":{"ha":1029,"x_min":56,"x_max":942,"o":"m 388 -17 l 388 -17 q 142 83 228 -17 q 56 378 56 182 l 56 378 q 72 520 56 457 q 121 628 88 583 q 205 696 154 672 q 325 719 256 719 l 325 719 q 397 708 367 719 q 450 680 428 697 q 485 642 472 663 q 503 603 497 621 l 503 603 l 514 603 q 533 642 519 621 q 569 680 546 663 q 628 708 593 697 q 711 719 663 719 l 711 719 q 883 657 824 719 q 942 474 942 594 l 942 474 l 942 0 l 736 0 l 736 460 q 717 530 736 507 q 667 553 699 553 l 667 553 q 616 530 635 553 q 597 460 597 507 l 597 460 l 597 271 l 410 271 l 410 460 q 346 553 410 553 l 346 553 q 289 517 307 553 q 271 424 271 482 l 271 424 l 271 318 q 278 250 271 281 q 301 198 285 219 q 347 165 318 176 q 418 153 375 153 l 418 153 q 465 158 442 153 l 465 158 l 489 -6 q 443 -14 474 -11 q 388 -17 413 -17 z "},"๔":{"ha":769,"x_min":60,"x_max":729,"o":"m 729 0 l 438 0 q 154 87 249 0 q 60 340 60 174 l 60 340 q 84 478 60 424 q 146 568 108 533 q 228 622 183 603 q 315 654 274 642 l 315 654 l 458 697 q 506 716 488 707 q 529 754 525 725 l 529 754 l 543 842 l 725 842 l 710 713 q 702 672 707 692 q 683 636 697 653 q 642 604 668 619 q 571 576 615 589 l 571 576 l 406 529 q 307 476 339 510 q 275 369 275 442 l 275 369 l 275 297 q 281 246 275 269 q 305 203 288 222 q 354 174 322 185 q 438 164 386 164 l 438 164 l 583 164 l 583 171 q 519 188 550 176 q 463 218 488 199 q 424 265 439 238 q 410 332 410 293 l 410 332 l 410 343 q 460 442 410 406 q 614 478 510 478 l 614 478 l 707 478 l 707 318 l 618 318 l 618 289 q 625 247 618 268 q 645 206 632 225 q 679 176 658 188 q 729 164 700 164 l 729 164 l 729 0 z "},"๕":{"ha":769,"x_min":60,"x_max":729,"o":"m 729 0 l 438 0 q 154 87 249 0 q 60 340 60 174 l 60 340 q 72 444 60 400 q 106 520 85 488 q 156 574 128 553 q 215 610 185 596 l 215 610 q 165 653 183 625 q 147 721 147 682 l 147 721 q 194 837 147 794 q 321 879 242 879 l 321 879 q 440 842 396 879 q 485 742 485 804 l 485 742 q 478 697 485 721 l 478 697 l 483 699 q 518 715 504 706 q 536 754 532 725 l 536 754 l 549 842 l 725 842 l 710 713 q 702 672 707 692 q 683 636 697 653 q 642 604 668 619 q 571 576 615 589 l 571 576 l 406 529 q 307 476 339 510 q 275 369 275 442 l 275 369 l 275 297 q 281 246 275 269 q 305 203 288 222 q 354 174 322 185 q 438 164 386 164 l 438 164 l 583 164 l 583 171 q 519 188 550 176 q 463 218 488 199 q 424 265 439 238 q 410 332 410 293 l 410 332 l 410 343 q 460 442 410 406 q 614 478 510 478 l 614 478 l 707 478 l 707 318 l 618 318 l 618 289 q 625 247 618 268 q 645 206 632 225 q 679 176 658 188 q 729 164 700 164 l 729 164 l 729 0 z m 319 651 l 319 651 q 382 710 382 651 l 382 710 l 382 724 q 319 782 382 782 l 319 782 q 257 724 257 782 l 257 724 l 257 710 q 319 651 257 651 z "},"๖":{"ha":769,"x_min":0,"x_max":710,"o":"m 358 -17 l 358 -17 q 165 33 246 -17 q 44 192 83 83 l 44 192 l 203 263 q 253 179 221 213 q 346 146 285 146 l 346 146 q 455 181 415 146 q 494 279 494 217 l 494 279 l 494 428 q 460 524 494 490 q 368 557 426 557 l 368 557 q 281 526 315 557 q 235 446 246 496 l 235 446 l 65 454 l 0 842 l 189 842 l 225 557 l 233 557 q 299 676 249 632 q 438 719 350 719 l 438 719 q 551 694 500 719 q 637 622 601 669 q 691 508 672 575 q 710 356 710 440 l 710 356 q 685 200 710 269 q 615 83 661 131 q 504 9 569 35 q 358 -17 439 -17 z "},"๗":{"ha":1188,"x_min":56,"x_max":1100,"o":"m 360 -17 l 360 -17 q 135 83 214 -17 q 56 378 56 182 l 56 378 q 105 633 56 546 q 267 719 154 719 l 267 719 q 377 684 336 719 q 426 603 418 649 l 426 603 l 438 603 q 486 684 447 649 q 596 719 525 719 l 596 719 q 739 660 692 719 q 786 489 786 601 l 786 489 l 786 150 l 796 150 q 894 301 894 150 l 894 301 l 894 842 l 1100 842 l 1100 285 q 1023 75 1100 150 q 796 0 946 0 l 796 0 l 585 0 l 585 493 q 572 540 585 526 q 542 553 558 553 l 542 553 q 506 532 518 553 q 492 461 493 511 l 492 461 l 364 461 q 351 533 364 513 q 319 553 339 553 l 319 553 q 284 531 297 553 q 271 451 271 510 l 271 451 l 271 318 q 298 197 271 242 q 390 153 325 153 l 390 153 q 438 158 414 153 l 438 158 l 461 -6 q 415 -14 446 -11 q 360 -17 385 -17 z "},"๘":{"ha":879,"x_min":56,"x_max":838,"o":"m 290 -17 l 290 -17 q 117 63 179 -17 q 56 310 56 143 l 56 310 q 79 469 56 407 q 140 571 103 532 q 222 628 176 610 q 313 654 268 646 l 313 654 l 551 697 q 603 717 588 704 q 622 754 619 729 l 622 754 l 635 842 l 817 842 l 803 713 q 771 623 799 656 q 664 576 743 590 l 664 576 l 403 529 q 303 476 336 517 q 271 347 271 435 l 271 347 l 271 261 q 283 176 271 206 q 332 147 296 147 l 332 147 q 376 170 365 147 q 388 239 388 193 l 388 239 l 388 279 l 528 279 l 528 239 q 540 169 528 193 q 589 146 553 146 l 589 146 q 633 163 617 146 q 649 207 649 179 l 649 207 l 649 268 q 639 300 649 286 q 604 314 629 314 l 604 314 q 597 314 601 314 q 585 311 592 314 l 585 311 l 572 440 q 603 447 583 444 q 643 450 624 450 l 643 450 q 782 398 726 450 q 838 239 838 346 l 838 239 q 781 49 838 114 q 624 -17 724 -17 l 624 -17 q 556 -8 583 -17 q 509 17 528 1 q 478 54 490 33 q 460 100 467 75 l 460 100 l 450 100 q 401 17 439 51 q 290 -17 364 -17 z "},"๙":{"ha":975,"x_min":56,"x_max":1015,"o":"m 347 -14 l 347 -14 q 131 82 207 -14 q 56 379 56 178 l 56 379 q 123 629 56 539 q 322 719 190 719 l 322 719 q 464 672 403 719 q 563 514 525 625 l 563 514 l 569 517 q 560 588 560 554 l 560 588 q 594 686 560 653 q 674 719 628 719 l 674 719 q 760 676 735 719 q 785 557 786 632 l 785 557 l 792 557 l 825 842 l 1015 842 l 950 454 l 781 446 q 761 521 781 490 q 700 551 742 551 l 700 551 q 651 533 669 551 q 632 474 632 514 l 632 474 q 644 406 632 444 l 644 406 l 776 0 l 565 0 l 431 432 q 388 526 410 500 q 331 551 367 551 l 331 551 q 281 523 296 551 q 267 450 267 494 l 267 450 l 267 268 q 290 183 267 215 q 371 150 313 150 l 371 150 q 390 150 382 150 q 417 153 399 150 l 417 153 l 421 -10 q 385 -13 406 -12 q 347 -14 365 -14 z "},"":{"ha":397,"x_min":96,"x_max":301,"o":"m 96 0 l 96 769 l 301 769 l 301 0 l 96 0 z "},"":{"ha":726,"x_min":96,"x_max":631,"o":"m 96 0 l 96 769 l 301 769 l 301 0 l 96 0 z m 425 0 l 425 769 l 631 769 l 631 0 l 425 0 z "},"ฯ":{"ha":828,"x_min":40,"x_max":732,"o":"m 526 0 l 526 576 l 519 576 q 494 523 511 549 q 450 477 478 497 q 383 444 422 457 q 292 432 343 432 l 292 432 q 40 693 40 432 l 40 693 l 40 769 l 246 769 l 246 721 q 270 631 246 665 q 364 596 294 596 l 364 596 l 382 596 q 433 600 407 596 q 479 617 458 604 q 513 656 500 631 q 526 721 526 681 l 526 721 l 526 769 l 732 769 l 732 0 l 526 0 z "},"":{"ha":879,"x_min":40,"x_max":821,"o":"m 526 0 l 526 208 l 397 208 q 251 333 251 208 l 251 333 l 251 419 l 410 419 l 410 347 l 526 347 l 526 611 l 519 611 q 442 516 494 550 q 293 482 390 482 l 293 482 q 110 535 179 482 q 40 697 40 588 l 40 697 l 40 769 l 246 769 l 246 731 q 270 656 246 688 q 364 624 294 624 l 364 624 l 382 624 q 433 628 407 624 q 479 645 458 633 q 513 678 500 657 q 526 731 526 699 l 526 731 l 526 769 l 732 769 l 732 347 l 821 347 l 821 208 l 732 208 l 732 0 l 526 0 z "},"๚":{"ha":1157,"x_min":40,"x_max":1061,"o":"m 526 0 l 526 576 l 519 576 q 494 523 511 549 q 450 477 478 497 q 383 444 422 457 q 292 432 343 432 l 292 432 q 40 693 40 432 l 40 693 l 40 769 l 246 769 l 246 721 q 270 631 246 665 q 364 596 294 596 l 364 596 l 382 596 q 433 600 407 596 q 479 617 458 604 q 513 656 500 631 q 526 721 526 681 l 526 721 l 526 769 l 732 769 l 732 0 l 526 0 z m 856 0 l 856 769 l 1061 769 l 1061 0 l 856 0 z "},"":{"ha":1208,"x_min":40,"x_max":1150,"o":"m 526 0 l 526 208 l 397 208 q 251 333 251 208 l 251 333 l 251 419 l 410 419 l 410 347 l 526 347 l 526 611 l 519 611 q 442 515 493 549 q 293 482 390 482 l 293 482 q 110 535 179 482 q 40 697 40 588 l 40 697 l 40 769 l 246 769 l 246 731 q 270 656 246 688 q 364 624 294 624 l 364 624 l 382 624 q 433 628 407 624 q 479 645 458 633 q 513 678 500 657 q 526 731 526 699 l 526 731 l 526 769 l 732 769 l 732 347 l 856 347 l 856 769 l 1061 769 l 1061 347 l 1150 347 l 1150 208 l 1061 208 l 1061 0 l 856 0 l 856 208 l 732 208 l 732 0 l 526 0 z "},"":{"ha":1486,"x_min":40,"x_max":1390,"o":"m 526 0 l 526 576 l 519 576 q 494 523 511 549 q 450 477 478 497 q 383 444 422 457 q 292 432 343 432 l 292 432 q 40 693 40 432 l 40 693 l 40 769 l 246 769 l 246 721 q 270 631 246 665 q 364 596 294 596 l 364 596 l 382 596 q 433 600 407 596 q 479 617 458 604 q 513 656 500 631 q 526 721 526 681 l 526 721 l 526 769 l 732 769 l 732 0 l 526 0 z m 856 0 l 856 769 l 1061 769 l 1061 0 l 856 0 z m 1185 0 l 1185 769 l 1390 769 l 1390 0 l 1185 0 z "},"":{"ha":925,"x_min":68,"x_max":857,"o":"m 463 146 l 463 146 q 592 198 546 146 q 639 346 639 250 l 639 346 l 639 424 q 592 572 639 519 q 463 624 546 624 l 463 624 q 333 572 379 624 q 286 424 286 519 l 286 424 l 286 346 q 333 198 286 250 q 463 146 379 146 z m 231 888 l 231 1175 l 417 1175 l 417 888 l 231 888 z m 463 -17 l 463 -17 q 298 11 371 -17 q 174 91 225 39 q 96 217 124 143 q 68 385 68 292 l 68 385 q 96 552 68 478 q 174 678 124 626 q 298 758 225 731 q 463 786 371 786 l 463 786 q 627 758 554 786 q 751 678 700 731 q 829 552 801 626 q 857 385 857 478 l 857 385 q 829 217 857 292 q 751 91 801 143 q 627 11 700 39 q 463 -17 554 -17 z m 508 888 l 508 1175 l 694 1175 l 694 888 l 508 888 z "},"๏":{"ha":925,"x_min":68,"x_max":857,"o":"m 464 263 l 464 263 q 369 292 399 263 q 340 368 340 322 l 340 368 l 340 401 q 369 477 340 447 q 463 507 399 507 l 463 507 q 556 477 528 507 q 585 401 585 447 l 585 401 l 585 368 q 556 292 585 322 q 464 263 528 263 z m 463 144 l 463 144 q 613 197 558 144 q 667 346 667 250 l 667 346 l 667 424 q 613 572 667 519 q 463 625 558 625 l 463 625 q 313 572 367 625 q 258 424 258 519 l 258 424 l 258 346 q 313 197 258 250 q 463 144 367 144 z m 463 -17 l 463 -17 q 298 11 371 -17 q 174 91 225 39 q 96 217 124 143 q 68 385 68 292 l 68 385 q 96 552 68 478 q 174 678 124 626 q 298 758 225 731 q 463 786 371 786 l 463 786 q 627 758 554 786 q 751 678 700 731 q 829 552 801 626 q 857 385 857 478 l 857 385 q 829 217 857 292 q 751 91 801 143 q 627 11 700 39 q 463 -17 554 -17 z "},"":{"ha":925,"x_min":68,"x_max":857,"o":"m 464 263 l 464 263 q 369 292 399 263 q 340 368 340 322 l 340 368 l 340 401 q 369 477 340 447 q 463 507 399 507 l 463 507 q 556 477 528 507 q 585 401 585 447 l 585 401 l 585 368 q 556 292 585 322 q 464 263 528 263 z m 463 144 l 463 144 q 613 197 558 144 q 667 346 667 250 l 667 346 l 667 424 q 613 572 667 519 q 463 625 558 625 l 463 625 q 313 572 367 625 q 258 424 258 519 l 258 424 l 258 346 q 313 197 258 250 q 463 144 367 144 z m 463 -17 l 463 -17 q 298 11 371 -17 q 174 91 225 39 q 96 217 124 143 q 68 385 68 292 l 68 385 q 96 552 68 478 q 174 678 124 626 q 298 758 225 731 q 463 786 371 786 l 463 786 q 627 758 554 786 q 751 678 700 731 q 829 552 801 626 q 857 385 857 478 l 857 385 q 829 217 857 292 q 751 91 801 143 q 627 11 700 39 q 463 -17 554 -17 z m 369 888 l 369 1175 l 556 1175 l 556 888 l 369 888 z "},"":{"ha":925,"x_min":68,"x_max":857,"o":"m 464 263 l 464 263 q 369 292 399 263 q 340 368 340 322 l 340 368 l 340 401 q 369 477 340 447 q 463 507 399 507 l 463 507 q 556 477 528 507 q 585 401 585 447 l 585 401 l 585 368 q 556 292 585 322 q 464 263 528 263 z m 463 144 l 463 144 q 613 197 558 144 q 667 346 667 250 l 667 346 l 667 424 q 613 572 667 519 q 463 625 558 625 l 463 625 q 313 572 367 625 q 258 424 258 519 l 258 424 l 258 346 q 313 197 258 250 q 463 144 367 144 z m 463 -17 l 463 -17 q 298 11 371 -17 q 174 91 225 39 q 96 217 124 143 q 68 385 68 292 l 68 385 q 96 552 68 478 q 174 678 124 626 q 298 758 225 731 q 463 786 371 786 l 463 786 q 627 758 554 786 q 751 678 700 731 q 829 552 801 626 q 857 385 857 478 l 857 385 q 829 217 857 292 q 751 91 801 143 q 627 11 700 39 q 463 -17 554 -17 z m 231 888 l 231 1175 l 417 1175 l 417 888 l 231 888 z m 508 888 l 508 1175 l 694 1175 l 694 888 l 508 888 z "},"ๆ":{"ha":835,"x_min":38,"x_max":739,"o":"m 533 -278 l 533 572 q 522 609 533 599 q 494 619 511 619 l 494 619 q 460 599 474 619 q 446 528 447 578 l 446 528 l 317 528 q 304 599 317 579 q 272 619 292 619 l 272 619 q 239 604 249 619 q 229 567 229 589 l 229 567 l 229 507 q 244 454 229 475 q 300 433 258 433 l 300 433 q 332 438 319 433 l 332 438 l 344 301 q 313 294 333 297 q 274 292 293 292 l 274 292 q 102 356 167 292 q 38 556 38 421 l 38 556 q 83 727 38 668 q 224 786 129 786 l 224 786 q 333 751 293 786 q 382 669 374 715 l 382 669 l 393 669 q 443 751 403 715 q 553 786 483 786 l 553 786 q 693 731 647 786 q 739 569 739 675 l 739 569 l 739 -278 l 533 -278 z "},"๛":{"ha":2025,"x_min":68,"x_max":1957,"o":"m 472 -17 l 472 -17 q 176 85 285 -17 q 68 385 68 186 l 68 385 q 96 560 68 485 q 173 685 124 635 q 290 760 222 735 q 436 786 357 786 l 436 786 q 610 751 540 786 q 714 668 679 715 l 714 668 l 601 549 q 544 601 581 578 q 450 624 508 624 l 450 624 q 328 576 375 624 q 282 442 282 529 l 282 442 l 282 328 q 332 193 282 240 q 479 146 382 146 l 479 146 q 605 168 547 146 q 706 251 663 190 q 780 420 750 313 q 822 697 810 528 l 822 697 l 1022 697 l 1129 358 l 1133 358 l 1221 638 l 1376 638 l 1450 403 l 1454 403 l 1515 597 l 1671 597 q 1686 523 1675 558 q 1719 461 1697 488 q 1776 419 1742 435 q 1863 403 1811 403 l 1863 403 l 1957 403 l 1957 232 l 1856 232 q 1774 239 1810 232 q 1708 263 1738 246 q 1655 307 1679 279 q 1608 376 1631 335 l 1608 376 l 1604 376 l 1531 143 l 1374 143 l 1300 376 l 1296 376 l 1208 99 l 1053 99 l 947 433 l 943 433 q 870 204 917 292 q 762 67 824 117 q 626 1 700 18 q 472 -17 551 -17 z "},"":{"ha":2025,"x_min":68,"x_max":1957,"o":"m 1553 -17 l 1553 -17 q 1399 1 1474 -17 q 1263 67 1325 18 q 1155 204 1201 117 q 1082 433 1108 292 l 1082 433 l 1078 433 l 972 99 l 817 99 l 729 376 l 725 376 l 651 143 l 494 143 l 421 376 l 417 376 q 370 307 394 335 q 317 263 346 279 q 251 239 288 246 q 169 232 215 232 l 169 232 l 68 232 l 68 403 l 163 403 q 249 419 214 403 q 306 461 283 435 q 339 523 328 488 q 354 597 350 558 l 354 597 l 510 597 l 571 403 l 575 403 l 649 638 l 804 638 l 892 358 l 896 358 l 1003 697 l 1203 697 q 1245 420 1215 528 q 1319 251 1275 313 q 1420 168 1363 190 q 1546 146 1478 146 l 1546 146 q 1693 193 1643 146 q 1743 328 1743 240 l 1743 328 l 1743 442 q 1697 576 1743 529 q 1575 624 1650 624 l 1575 624 q 1481 601 1517 624 q 1424 549 1444 578 l 1424 549 l 1311 668 q 1415 751 1346 715 q 1589 786 1485 786 l 1589 786 q 1735 760 1668 786 q 1852 685 1803 735 q 1929 560 1901 635 q 1957 385 1957 485 l 1957 385 q 1849 85 1957 186 q 1553 -17 1740 -17 z "},"":{"ha":1064,"x_min":74,"x_max":990,"o":"m 546 -15 l 546 -15 q 196 76 318 -15 q 74 363 74 168 l 74 363 q 98 500 74 436 q 182 615 122 564 q 341 703 242 667 q 590 757 440 739 l 590 757 l 590 761 l 228 851 l 228 1001 l 571 1088 l 571 1090 l 311 1156 l 311 1276 q 425 1301 381 1289 q 495 1330 469 1313 q 531 1374 521 1347 q 540 1443 540 1401 l 540 1443 l 540 1482 l 713 1482 l 713 1431 q 699 1339 713 1375 q 661 1281 686 1303 q 602 1248 636 1258 q 526 1233 568 1238 l 526 1233 l 526 1231 l 783 1167 l 783 1017 l 440 931 l 440 928 l 847 826 l 847 642 q 578 621 686 639 q 406 573 471 603 q 315 504 342 543 q 288 422 288 465 l 288 422 l 288 313 q 353 183 288 219 q 546 147 419 147 l 546 147 q 661 158 614 147 q 738 191 708 169 q 779 243 767 213 q 792 313 792 274 l 792 313 l 792 349 q 770 414 792 389 q 717 450 749 439 l 717 450 l 836 594 q 950 490 910 556 q 990 331 990 424 l 990 331 q 965 195 990 258 q 885 85 939 132 q 747 12 831 39 q 546 -15 663 -15 z "},"":{"ha":857,"x_min":181,"x_max":579,"o":"m 340 -699 l 197 -547 l 374 -368 l 374 1322 l 181 1322 l 181 1482 l 375 1482 q 530 1431 481 1482 q 579 1282 579 1379 l 579 1282 l 579 -343 q 578 -394 579 -372 q 570 -435 576 -415 q 552 -474 564 -456 q 518 -515 540 -493 l 518 -515 l 340 -699 z "},"":{"ha":2306,"x_min":42,"x_max":2264,"o":"m 1050 -740 l 1050 276 l 42 276 l 42 465 l 1050 465 l 1050 1482 l 1256 1482 l 1256 465 l 2264 465 l 2264 276 l 1256 276 l 1256 -740 l 1050 -740 z "},"☸":{"ha":1378,"x_min":69,"x_max":1308,"o":"m 610 -124 l 613 -32 q 369 49 472 -18 l 369 49 l 303 -24 l 199 81 l 264 142 q 194 259 219 194 q 160 396 168 324 l 160 396 l 69 393 l 69 540 l 160 538 q 194 674 168 610 q 264 792 219 739 l 264 792 l 199 853 l 303 957 l 369 885 q 613 965 472 951 l 613 965 l 610 1057 l 768 1057 l 765 965 q 1008 885 906 951 l 1008 885 l 1075 957 l 1179 853 l 1114 792 q 1184 674 1158 739 q 1218 538 1210 610 l 1218 538 l 1308 540 l 1308 393 l 1218 396 q 1184 259 1210 324 q 1114 142 1158 194 l 1114 142 l 1179 81 l 1075 -24 l 1008 49 q 765 -32 906 -18 l 765 -32 l 768 -124 l 610 -124 z m 382 253 l 522 383 l 514 406 l 324 401 q 382 253 336 317 l 382 253 z m 514 528 l 522 550 l 382 681 q 324 532 336 617 l 324 532 l 514 528 z m 618 119 l 626 293 l 604 301 l 481 165 q 618 119 536 132 l 618 119 z m 604 632 l 626 640 l 618 814 q 481 768 536 801 l 481 768 l 604 632 z m 689 403 l 689 403 q 736 422 721 403 q 751 467 751 442 l 751 467 q 736 511 751 492 q 689 531 721 531 l 689 531 q 642 511 657 531 q 626 467 626 492 l 626 467 q 642 422 626 442 q 689 403 657 403 z m 751 293 l 760 119 q 897 165 840 132 l 897 165 l 774 301 l 751 293 z m 774 632 l 897 768 q 760 814 840 801 l 760 814 l 751 640 l 774 632 z m 856 383 l 996 253 q 1054 401 1042 317 l 1054 401 l 864 406 l 856 383 z m 864 528 l 1054 532 q 996 681 1042 617 l 996 681 l 856 550 l 864 528 z "},"◌":{"ha":992,"x_min":42,"x_max":950,"o":"m 175 150 l 175 150 q 131 169 149 150 q 113 213 113 188 l 113 213 q 131 257 113 239 q 175 275 149 275 l 175 275 q 219 257 201 275 q 238 213 238 239 l 238 213 q 219 169 238 188 q 175 150 201 150 z m 104 322 l 104 322 q 60 341 78 322 q 42 385 42 360 l 42 385 q 60 428 42 410 q 104 447 78 447 l 104 447 q 149 428 131 447 q 167 385 167 410 l 167 385 q 149 341 167 360 q 104 322 131 322 z m 175 494 l 175 494 q 131 513 149 494 q 113 557 113 531 l 113 557 q 131 601 113 582 q 175 619 149 619 l 175 619 q 219 601 201 619 q 238 557 238 582 l 238 557 q 219 513 238 531 q 175 494 201 494 z m 313 15 l 313 15 q 268 34 286 15 q 250 78 250 53 l 250 78 q 268 122 250 104 q 313 140 286 140 l 313 140 q 357 122 339 140 q 375 78 375 104 l 375 78 q 357 34 375 53 q 313 15 339 15 z m 313 629 l 313 629 q 268 647 286 629 q 250 692 250 665 l 250 692 q 268 735 250 717 q 313 754 286 754 l 313 754 q 357 735 339 754 q 375 692 375 717 l 375 692 q 357 647 375 665 q 313 629 339 629 z m 496 -32 l 496 -32 q 451 -13 469 -32 q 433 31 433 6 l 433 31 q 451 75 433 57 q 496 93 469 93 l 496 93 q 540 75 522 93 q 558 31 558 57 l 558 31 q 540 -13 558 6 q 496 -32 522 -32 z m 496 676 l 496 676 q 451 694 469 676 q 433 739 433 713 l 433 739 q 451 783 433 764 q 496 801 469 801 l 496 801 q 540 783 522 801 q 558 739 558 764 l 558 739 q 540 694 558 713 q 496 676 522 676 z m 679 15 l 679 15 q 635 34 653 15 q 617 78 617 53 l 617 78 q 635 122 617 104 q 679 140 653 140 l 679 140 q 724 122 706 140 q 742 78 742 104 l 742 78 q 724 34 742 53 q 679 15 706 15 z m 679 629 l 679 629 q 635 647 653 629 q 617 692 617 665 l 617 692 q 635 735 617 717 q 679 754 653 754 l 679 754 q 724 735 706 754 q 742 692 742 717 l 742 692 q 724 647 742 665 q 679 629 706 629 z m 817 150 l 817 150 q 772 169 790 150 q 754 213 754 188 l 754 213 q 772 257 754 239 q 817 275 790 275 l 817 275 q 861 257 843 275 q 879 213 879 239 l 879 213 q 861 169 879 188 q 817 150 843 150 z m 888 322 l 888 322 q 843 341 861 322 q 825 385 825 360 l 825 385 q 843 428 825 410 q 888 447 861 447 l 888 447 q 932 428 914 447 q 950 385 950 410 l 950 385 q 932 341 950 360 q 888 322 914 322 z m 817 494 l 817 494 q 772 513 790 494 q 754 557 754 531 l 754 557 q 772 601 754 582 q 817 619 790 619 l 817 619 q 861 601 843 619 q 879 557 879 582 l 879 557 q 861 513 879 531 q 817 494 843 494 z "},"⁰":{"ha":514,"x_min":35,"x_max":479,"o":"m 257 449 l 257 449 q 90 518 144 449 q 35 714 35 588 l 35 714 q 90 909 35 840 q 257 978 144 978 l 257 978 q 424 909 369 978 q 479 714 479 840 l 479 714 q 424 518 479 588 q 257 449 369 449 z m 257 565 l 257 565 q 310 589 297 565 q 324 661 324 613 l 324 661 l 324 767 q 310 838 324 815 q 257 861 297 861 l 257 861 q 203 838 217 861 q 190 767 190 815 l 190 767 l 190 661 q 203 589 190 613 q 257 565 217 565 z "},"¹":{"ha":478,"x_min":11,"x_max":450,"o":"m 450 457 l 68 457 l 68 567 l 197 567 l 197 858 l 189 858 l 104 743 l 11 810 l 129 969 l 338 969 l 338 567 l 450 567 l 450 457 z "},"²":{"ha":482,"x_min":31,"x_max":447,"o":"m 447 572 l 447 457 l 46 457 l 46 579 l 197 694 q 241 728 224 714 q 269 756 258 743 q 285 782 281 769 q 290 810 290 794 l 290 810 l 290 811 q 270 849 290 839 q 231 858 250 858 l 231 858 q 178 840 196 858 q 154 796 161 821 l 154 796 l 31 842 q 103 939 50 900 q 244 978 157 978 l 244 978 q 390 933 339 978 q 442 819 442 889 l 442 819 q 428 754 442 783 q 393 701 415 725 q 342 656 371 676 q 283 618 314 635 l 283 618 l 201 572 l 447 572 z "},"³":{"ha":479,"x_min":6,"x_max":439,"o":"m 163 775 l 210 775 q 264 786 247 775 q 281 813 281 797 l 281 813 l 281 818 q 265 853 281 838 q 218 868 249 868 l 218 868 q 159 853 189 868 q 107 808 129 838 l 107 808 l 21 890 q 103 956 57 933 q 222 978 149 978 l 222 978 q 376 939 321 978 q 431 838 431 900 l 431 838 q 399 760 431 789 q 325 725 368 731 l 325 725 l 325 719 q 408 681 378 711 q 439 601 439 650 l 439 601 q 378 490 439 531 q 221 449 318 449 l 221 449 q 82 479 131 449 q 6 553 33 510 l 6 553 l 111 633 q 153 580 126 601 q 221 558 179 558 l 221 558 q 272 574 253 558 q 290 614 290 589 l 290 614 l 290 617 q 267 651 290 640 q 206 661 243 661 l 206 661 l 163 661 l 163 775 z "},"⁴":{"ha":481,"x_min":24,"x_max":454,"o":"m 390 457 l 254 457 l 254 554 l 24 554 l 24 672 l 231 969 l 390 969 l 390 660 l 454 660 l 454 554 l 390 554 l 390 457 z m 254 660 l 254 817 l 244 817 l 133 660 l 254 660 z "},"⁵":{"ha":496,"x_min":33,"x_max":464,"o":"m 429 969 l 429 849 l 175 849 l 165 707 l 172 707 q 211 776 188 750 q 292 803 235 803 l 292 803 q 358 792 326 803 q 413 759 390 781 q 450 707 436 738 q 464 638 464 676 l 464 638 q 407 502 464 556 q 242 449 350 449 l 242 449 q 107 479 156 449 q 33 553 58 510 l 33 553 l 136 633 q 177 581 153 603 q 242 558 201 558 l 242 558 q 296 578 278 558 q 314 628 314 597 l 314 628 l 314 633 q 296 676 314 660 q 247 692 278 692 l 247 692 q 197 680 218 692 q 168 660 175 668 l 168 660 l 53 675 l 74 969 l 429 969 z "},"⁶":{"ha":494,"x_min":32,"x_max":464,"o":"m 249 449 l 249 449 q 88 506 144 449 q 32 656 32 563 l 32 656 q 49 755 32 708 q 94 842 67 801 q 158 914 122 882 q 229 969 193 946 l 229 969 l 428 969 q 258 840 321 897 q 181 718 194 783 l 181 718 l 189 715 q 226 769 200 743 q 306 794 251 794 l 306 794 q 418 751 372 794 q 464 635 464 708 l 464 635 q 406 501 464 553 q 249 449 349 449 z m 247 553 l 247 553 q 315 617 315 553 l 315 617 l 315 631 q 249 692 315 692 l 249 692 q 198 676 217 692 q 179 631 179 660 l 179 631 l 179 617 q 247 553 179 553 z "},"⁷":{"ha":451,"x_min":24,"x_max":425,"o":"m 263 457 l 113 457 l 285 858 l 143 858 l 143 765 l 24 765 l 24 969 l 425 969 l 425 850 l 263 457 z "},"⁸":{"ha":492,"x_min":35,"x_max":457,"o":"m 246 449 l 246 449 q 90 490 146 449 q 35 599 35 532 l 35 599 q 64 676 35 644 q 142 719 93 707 l 142 719 l 142 725 q 77 767 103 739 q 51 839 51 794 l 51 839 q 101 938 51 899 q 246 978 150 978 l 246 978 q 392 938 342 978 q 442 839 442 899 l 442 839 q 416 767 442 794 q 351 725 390 739 l 351 725 l 351 719 q 428 676 400 707 q 457 599 457 644 l 457 599 q 401 490 457 532 q 246 449 346 449 z m 246 763 l 246 763 q 294 776 278 763 q 310 813 310 790 l 310 813 l 310 824 q 294 861 310 847 q 246 875 278 875 l 246 875 q 199 861 215 875 q 182 824 182 847 l 182 824 l 182 813 q 199 776 182 790 q 246 763 215 763 z m 246 551 l 246 551 q 294 565 278 551 q 310 601 310 579 l 310 601 l 310 615 q 294 651 310 638 q 246 665 278 665 l 246 665 q 199 651 214 665 q 183 615 183 638 l 183 615 l 183 601 q 199 565 183 579 q 246 551 215 551 z "},"⁹":{"ha":494,"x_min":29,"x_max":461,"o":"m 461 771 l 461 771 q 444 672 461 718 q 399 585 426 625 q 335 513 371 544 q 264 457 300 481 l 264 457 l 65 457 q 235 586 172 529 q 313 708 299 643 l 313 708 l 304 711 q 289 683 297 697 q 267 657 281 668 q 233 638 253 646 q 188 631 214 631 l 188 631 q 75 674 121 631 q 29 792 29 718 l 29 792 q 87 926 29 874 q 244 978 144 978 l 244 978 q 405 921 349 978 q 461 771 461 864 z m 244 735 l 244 735 q 295 751 276 735 q 314 796 314 767 l 314 796 l 314 810 q 246 874 314 874 l 246 874 q 176 810 176 874 l 176 810 l 176 796 q 244 735 176 735 z "},"₀":{"ha":514,"x_min":35,"x_max":479,"o":"m 257 -8 l 257 -8 q 90 61 144 -8 q 35 257 35 131 l 35 257 q 90 452 35 383 q 257 521 144 521 l 257 521 q 424 452 369 521 q 479 257 479 383 l 479 257 q 424 61 479 131 q 257 -8 369 -8 z m 257 108 l 257 108 q 310 132 297 108 q 324 204 324 156 l 324 204 l 324 310 q 310 381 324 358 q 257 404 297 404 l 257 404 q 203 381 217 404 q 190 310 190 358 l 190 310 l 190 204 q 203 132 190 156 q 257 108 217 108 z "},"₁":{"ha":478,"x_min":11,"x_max":450,"o":"m 450 0 l 68 0 l 68 110 l 197 110 l 197 401 l 189 401 l 104 286 l 11 353 l 129 513 l 338 513 l 338 110 l 450 110 l 450 0 z "},"₂":{"ha":482,"x_min":31,"x_max":447,"o":"m 447 115 l 447 0 l 46 0 l 46 122 l 197 238 q 241 272 224 257 q 269 299 258 286 q 285 325 281 313 q 290 353 290 338 l 290 353 l 290 354 q 270 392 290 382 q 231 401 250 401 l 231 401 q 178 383 196 401 q 154 339 161 364 l 154 339 l 31 385 q 103 482 50 443 q 244 521 157 521 l 244 521 q 390 476 339 521 q 442 363 442 432 l 442 363 q 428 297 442 326 q 393 244 415 268 q 342 199 371 219 q 283 161 314 178 l 283 161 l 201 115 l 447 115 z "},"₃":{"ha":479,"x_min":6,"x_max":439,"o":"m 163 318 l 215 318 q 267 332 253 318 q 281 361 281 346 l 281 361 l 281 367 q 265 399 281 386 q 218 411 249 411 l 218 411 q 159 396 189 411 q 107 351 129 381 l 107 351 l 21 433 q 103 499 57 476 q 222 521 149 521 l 222 521 q 376 482 321 521 q 431 381 431 443 l 431 381 q 399 303 431 332 q 325 268 368 274 l 325 268 l 325 263 q 408 224 378 254 q 439 144 439 193 l 439 144 q 378 33 439 74 q 221 -8 318 -8 l 221 -8 q 82 22 131 -8 q 6 96 33 53 l 6 96 l 111 176 q 153 123 126 144 q 221 101 179 101 l 221 101 q 272 113 253 101 q 290 149 290 124 l 290 149 l 290 154 q 269 191 290 178 q 210 204 247 204 l 210 204 l 163 204 l 163 318 z "},"₄":{"ha":481,"x_min":24,"x_max":454,"o":"m 390 0 l 254 0 l 254 97 l 24 97 l 24 215 l 231 513 l 390 513 l 390 203 l 454 203 l 454 97 l 390 97 l 390 0 z m 254 203 l 254 360 l 244 360 l 133 203 l 254 203 z "},"₅":{"ha":496,"x_min":33,"x_max":464,"o":"m 429 392 l 175 392 l 165 250 l 172 250 q 211 319 188 293 q 292 346 235 346 l 292 346 q 358 335 326 346 q 413 302 390 324 q 450 250 436 281 q 464 181 464 219 l 464 181 q 407 45 464 99 q 242 -8 350 -8 l 242 -8 q 107 22 156 -8 q 33 96 58 53 l 33 96 l 136 176 q 177 124 153 146 q 242 101 201 101 l 242 101 q 296 121 278 101 q 314 171 314 140 l 314 171 l 314 176 q 296 219 314 203 q 247 235 278 235 l 247 235 q 197 223 218 235 q 168 203 175 211 l 168 203 l 53 218 l 74 513 l 429 513 l 429 392 z "},"₆":{"ha":494,"x_min":32,"x_max":464,"o":"m 249 -8 l 249 -8 q 88 49 144 -8 q 32 199 32 106 l 32 199 q 49 298 32 251 q 94 385 67 344 q 158 457 122 425 q 229 513 193 489 l 229 513 l 428 513 q 258 383 321 440 q 181 261 194 326 l 181 261 l 189 258 q 226 312 200 286 q 306 338 251 338 l 306 338 q 418 294 372 338 q 464 178 464 251 l 464 178 q 406 44 464 96 q 249 -8 349 -8 z m 247 96 l 247 96 q 315 160 315 96 l 315 160 l 315 174 q 249 235 315 235 l 249 235 q 198 219 217 235 q 179 174 179 203 l 179 174 l 179 160 q 247 96 179 96 z "},"₇":{"ha":451,"x_min":24,"x_max":425,"o":"m 263 0 l 113 0 l 285 401 l 143 401 l 143 308 l 24 308 l 24 513 l 425 513 l 425 393 l 263 0 z "},"₈":{"ha":492,"x_min":35,"x_max":457,"o":"m 246 -8 l 246 -8 q 90 33 146 -8 q 35 142 35 75 l 35 142 q 64 219 35 188 q 142 263 93 250 l 142 263 l 142 268 q 77 310 103 282 q 51 382 51 338 l 51 382 q 101 481 51 442 q 246 521 150 521 l 246 521 q 392 481 342 521 q 442 382 442 442 l 442 382 q 416 310 442 338 q 351 268 390 282 l 351 268 l 351 263 q 428 219 400 250 q 457 142 457 188 l 457 142 q 401 33 457 75 q 246 -8 346 -8 z m 246 94 l 246 94 q 294 108 278 94 q 310 144 310 122 l 310 144 l 310 158 q 294 194 310 181 q 246 208 278 208 l 246 208 q 199 194 214 208 q 183 158 183 181 l 183 158 l 183 144 q 199 108 183 122 q 246 94 215 94 z m 246 306 l 246 306 q 294 319 278 306 q 310 356 310 333 l 310 356 l 310 367 q 294 404 310 390 q 246 418 278 418 l 246 418 q 199 404 215 418 q 182 367 182 390 l 182 367 l 182 356 q 199 319 182 333 q 246 306 215 306 z "},"₉":{"ha":494,"x_min":29,"x_max":461,"o":"m 461 314 l 461 314 q 444 215 461 261 q 399 128 426 168 q 335 56 371 88 q 264 0 300 24 l 264 0 l 65 0 q 235 129 172 72 q 313 251 299 186 l 313 251 l 304 254 q 289 226 297 240 q 267 200 281 211 q 233 181 253 189 q 188 174 214 174 l 188 174 q 75 217 121 174 q 29 335 29 261 l 29 335 q 87 469 29 417 q 244 521 144 521 l 244 521 q 405 464 349 521 q 461 314 461 407 z m 244 278 l 244 278 q 295 294 276 278 q 314 339 314 310 l 314 339 l 314 353 q 246 417 314 417 l 246 417 q 176 353 176 417 l 176 353 l 176 339 q 244 278 176 278 z "},"½":{"ha":1193,"x_min":11,"x_max":1158,"o":"m 450 457 l 68 457 l 68 567 l 197 567 l 197 858 l 189 858 l 104 743 l 11 810 l 129 969 l 338 969 l 338 567 l 450 567 l 450 457 z m 308 0 l 158 0 l 893 969 l 1043 969 l 308 0 z m 1158 115 l 1158 0 l 757 0 l 757 122 l 908 238 q 952 272 935 257 q 981 299 969 286 q 997 325 992 313 q 1001 353 1001 338 l 1001 353 l 1001 354 q 981 392 1001 382 q 942 401 961 401 l 942 401 q 890 383 907 401 q 865 339 872 364 l 865 339 l 742 385 q 815 482 761 443 q 956 521 868 521 l 956 521 q 1101 476 1050 521 q 1153 363 1153 432 l 1153 363 q 1140 297 1153 326 q 1104 244 1126 268 q 1053 199 1082 219 q 994 161 1025 178 l 994 161 l 913 115 l 1158 115 z "},"⅓":{"ha":1196,"x_min":11,"x_max":1156,"o":"m 450 457 l 68 457 l 68 567 l 197 567 l 197 858 l 189 858 l 104 743 l 11 810 l 129 969 l 338 969 l 338 567 l 450 567 l 450 457 z m 308 0 l 158 0 l 893 969 l 1043 969 l 308 0 z m 879 318 l 932 318 q 983 332 969 318 q 997 361 997 346 l 997 361 l 997 367 q 981 399 997 386 q 935 411 965 411 l 935 411 q 876 396 906 411 q 824 351 846 381 l 824 351 l 738 433 q 819 499 774 476 q 939 521 865 521 l 939 521 q 1092 482 1038 521 q 1147 381 1147 443 l 1147 381 q 1116 303 1147 332 q 1042 268 1085 274 l 1042 268 l 1042 263 q 1125 224 1094 254 q 1156 144 1156 193 l 1156 144 q 1095 33 1156 74 q 938 -8 1035 -8 l 938 -8 q 799 22 847 -8 q 722 96 750 53 l 722 96 l 828 176 q 869 123 843 144 q 938 101 896 101 l 938 101 q 988 113 969 101 q 1007 149 1007 124 l 1007 149 l 1007 154 q 985 191 1007 178 q 926 204 964 204 l 926 204 l 879 204 l 879 318 z "},"⅔":{"ha":1193,"x_min":31,"x_max":1153,"o":"m 447 572 l 447 457 l 46 457 l 46 579 l 197 694 q 241 728 224 714 q 269 756 258 743 q 285 782 281 769 q 290 810 290 794 l 290 810 l 290 811 q 270 849 290 839 q 231 858 250 858 l 231 858 q 178 840 196 858 q 154 796 161 821 l 154 796 l 31 842 q 103 939 50 900 q 244 978 157 978 l 244 978 q 390 933 339 978 q 442 819 442 889 l 442 819 q 428 754 442 783 q 393 701 415 725 q 342 656 371 676 q 283 618 314 635 l 283 618 l 201 572 l 447 572 z m 306 0 l 156 0 l 890 969 l 1040 969 l 306 0 z m 876 318 l 929 318 q 981 332 967 318 q 994 361 994 346 l 994 361 l 994 367 q 978 399 994 386 q 932 411 963 411 l 932 411 q 873 396 903 411 q 821 351 843 381 l 821 351 l 735 433 q 817 499 771 476 q 936 521 863 521 l 936 521 q 1090 482 1035 521 q 1144 381 1144 443 l 1144 381 q 1113 303 1144 332 q 1039 268 1082 274 l 1039 268 l 1039 263 q 1122 224 1092 254 q 1153 144 1153 193 l 1153 144 q 1092 33 1153 74 q 935 -8 1032 -8 l 935 -8 q 796 22 844 -8 q 719 96 747 53 l 719 96 l 825 176 q 867 123 840 144 q 935 101 893 101 l 935 101 q 985 113 967 101 q 1004 149 1004 124 l 1004 149 l 1004 154 q 983 191 1004 178 q 924 204 961 204 l 924 204 l 876 204 l 876 318 z "},"¼":{"ha":1163,"x_min":11,"x_max":1136,"o":"m 450 457 l 68 457 l 68 567 l 197 567 l 197 858 l 189 858 l 104 743 l 11 810 l 129 969 l 338 969 l 338 567 l 450 567 l 450 457 z m 308 0 l 158 0 l 893 969 l 1043 969 l 308 0 z m 1072 0 l 936 0 l 936 97 l 706 97 l 706 215 l 913 513 l 1072 513 l 1072 203 l 1136 203 l 1136 97 l 1072 97 l 1072 0 z m 936 203 l 936 360 l 926 360 l 815 203 l 936 203 z "},"¾":{"ha":1150,"x_min":6,"x_max":1124,"o":"m 163 775 l 210 775 q 264 786 247 775 q 281 813 281 797 l 281 813 l 281 818 q 265 853 281 838 q 218 868 249 868 l 218 868 q 159 853 189 868 q 107 808 129 838 l 107 808 l 21 890 q 103 956 57 933 q 222 978 149 978 l 222 978 q 376 939 321 978 q 431 838 431 900 l 431 838 q 399 760 431 789 q 325 725 368 731 l 325 725 l 325 719 q 408 681 378 711 q 439 601 439 650 l 439 601 q 378 490 439 531 q 221 449 318 449 l 221 449 q 82 479 131 449 q 6 553 33 510 l 6 553 l 111 633 q 153 580 126 601 q 221 558 179 558 l 221 558 q 272 574 253 558 q 290 614 290 589 l 290 614 l 290 617 q 267 651 290 640 q 206 661 243 661 l 206 661 l 163 661 l 163 775 z m 296 0 l 146 0 l 881 969 l 1031 969 l 296 0 z m 1060 0 l 924 0 l 924 97 l 693 97 l 693 215 l 900 513 l 1060 513 l 1060 203 l 1124 203 l 1124 97 l 1060 97 l 1060 0 z m 924 203 l 924 360 l 914 360 l 803 203 l 924 203 z "},"⅕":{"ha":1206,"x_min":11,"x_max":1174,"o":"m 450 457 l 68 457 l 68 567 l 197 567 l 197 858 l 189 858 l 104 743 l 11 810 l 129 969 l 338 969 l 338 567 l 450 567 l 450 457 z m 308 0 l 158 0 l 893 969 l 1043 969 l 308 0 z m 1139 392 l 885 392 l 875 250 l 882 250 q 921 319 897 293 q 1001 346 944 346 l 1001 346 q 1068 335 1036 346 q 1123 302 1100 324 q 1160 250 1146 281 q 1174 181 1174 219 l 1174 181 q 1117 45 1174 99 q 951 -8 1060 -8 l 951 -8 q 817 22 865 -8 q 743 96 768 53 l 743 96 l 846 176 q 887 124 863 146 q 951 101 911 101 l 951 101 q 1006 121 988 101 q 1024 171 1024 140 l 1024 171 l 1024 176 q 1006 219 1024 203 q 957 235 988 235 l 957 235 q 906 223 928 235 q 878 203 885 211 l 878 203 l 763 218 l 783 513 l 1139 513 l 1139 392 z "},"⅖":{"ha":1203,"x_min":31,"x_max":1171,"o":"m 447 572 l 447 457 l 46 457 l 46 579 l 197 694 q 241 728 224 714 q 269 756 258 743 q 285 782 281 769 q 290 810 290 794 l 290 810 l 290 811 q 270 849 290 839 q 231 858 250 858 l 231 858 q 178 840 196 858 q 154 796 161 821 l 154 796 l 31 842 q 103 939 50 900 q 244 978 157 978 l 244 978 q 390 933 339 978 q 442 819 442 889 l 442 819 q 428 754 442 783 q 393 701 415 725 q 342 656 371 676 q 283 618 314 635 l 283 618 l 201 572 l 447 572 z m 306 0 l 156 0 l 890 969 l 1040 969 l 306 0 z m 1136 392 l 882 392 l 872 250 l 879 250 q 918 319 894 293 q 999 346 942 346 l 999 346 q 1065 335 1033 346 q 1120 302 1097 324 q 1157 250 1143 281 q 1171 181 1171 219 l 1171 181 q 1114 45 1171 99 q 949 -8 1057 -8 l 949 -8 q 814 22 863 -8 q 740 96 765 53 l 740 96 l 843 176 q 884 124 860 146 q 949 101 908 101 l 949 101 q 1003 121 985 101 q 1021 171 1021 140 l 1021 171 l 1021 176 q 1003 219 1021 203 q 954 235 985 235 l 954 235 q 903 223 925 235 q 875 203 882 211 l 875 203 l 760 218 l 781 513 l 1136 513 l 1136 392 z "},"⅗":{"ha":1193,"x_min":6,"x_max":1161,"o":"m 163 775 l 210 775 q 264 786 247 775 q 281 813 281 797 l 281 813 l 281 818 q 265 853 281 838 q 218 868 249 868 l 218 868 q 159 853 189 868 q 107 808 129 838 l 107 808 l 21 890 q 103 956 57 933 q 222 978 149 978 l 222 978 q 376 939 321 978 q 431 838 431 900 l 431 838 q 399 760 431 789 q 325 725 368 731 l 325 725 l 325 719 q 408 681 378 711 q 439 601 439 650 l 439 601 q 378 490 439 531 q 221 449 318 449 l 221 449 q 82 479 131 449 q 6 553 33 510 l 6 553 l 111 633 q 153 580 126 601 q 221 558 179 558 l 221 558 q 272 574 253 558 q 290 614 290 589 l 290 614 l 290 617 q 267 651 290 640 q 206 661 243 661 l 206 661 l 163 661 l 163 775 z m 296 0 l 146 0 l 881 969 l 1031 969 l 296 0 z m 1126 392 l 872 392 l 863 250 l 869 250 q 908 319 885 293 q 989 346 932 346 l 989 346 q 1056 335 1024 346 q 1110 302 1088 324 q 1147 250 1133 281 q 1161 181 1161 219 l 1161 181 q 1104 45 1161 99 q 939 -8 1047 -8 l 939 -8 q 804 22 853 -8 q 731 96 756 53 l 731 96 l 833 176 q 874 124 850 146 q 939 101 899 101 l 939 101 q 993 121 975 101 q 1011 171 1011 140 l 1011 171 l 1011 176 q 993 219 1011 203 q 944 235 975 235 l 944 235 q 894 223 915 235 q 865 203 872 211 l 865 203 l 750 218 l 771 513 l 1126 513 l 1126 392 z "},"⅘":{"ha":1201,"x_min":24,"x_max":1169,"o":"m 390 457 l 254 457 l 254 554 l 24 554 l 24 672 l 231 969 l 390 969 l 390 660 l 454 660 l 454 554 l 390 554 l 390 457 z m 254 660 l 254 817 l 244 817 l 133 660 l 254 660 z m 304 0 l 154 0 l 889 969 l 1039 969 l 304 0 z m 1135 392 l 881 392 l 871 250 l 878 250 q 917 319 893 293 q 997 346 940 346 l 997 346 q 1064 335 1032 346 q 1119 302 1096 324 q 1156 250 1142 281 q 1169 181 1169 219 l 1169 181 q 1113 45 1169 99 q 947 -8 1056 -8 l 947 -8 q 813 22 861 -8 q 739 96 764 53 l 739 96 l 842 176 q 883 124 858 146 q 947 101 907 101 l 947 101 q 1001 121 983 101 q 1019 171 1019 140 l 1019 171 l 1019 176 q 1001 219 1019 203 q 953 235 983 235 l 953 235 q 902 223 924 235 q 874 203 881 211 l 874 203 l 758 218 l 779 513 l 1135 513 l 1135 392 z "},"⅙":{"ha":1149,"x_min":11,"x_max":1118,"o":"m 450 457 l 68 457 l 68 567 l 197 567 l 197 858 l 189 858 l 104 743 l 11 810 l 129 969 l 338 969 l 338 567 l 450 567 l 450 457 z m 308 0 l 158 0 l 893 969 l 1043 969 l 308 0 z m 903 -8 l 903 -8 q 742 49 799 -8 q 686 199 686 106 l 686 199 q 703 298 686 251 q 749 385 721 344 q 812 457 776 425 q 883 513 847 489 l 883 513 l 1082 513 q 912 383 975 440 q 835 261 849 326 l 835 261 l 843 258 q 880 312 854 286 q 960 338 906 338 l 960 338 q 1072 294 1026 338 q 1118 178 1118 251 l 1118 178 q 1060 44 1118 96 q 903 -8 1003 -8 z m 901 96 l 901 96 q 969 160 969 96 l 969 160 l 969 174 q 903 235 969 235 l 903 235 q 852 219 871 235 q 833 174 833 203 l 833 174 l 833 160 q 901 96 833 96 z "},"⅚":{"ha":1153,"x_min":33,"x_max":1122,"o":"m 429 969 l 429 849 l 175 849 l 165 707 l 172 707 q 211 776 188 750 q 292 803 235 803 l 292 803 q 358 792 326 803 q 413 759 390 781 q 450 707 436 738 q 464 638 464 676 l 464 638 q 407 502 464 556 q 242 449 350 449 l 242 449 q 107 479 156 449 q 33 553 58 510 l 33 553 l 136 633 q 177 581 153 603 q 242 558 201 558 l 242 558 q 296 578 278 558 q 314 628 314 597 l 314 628 l 314 633 q 296 676 314 660 q 247 692 278 692 l 247 692 q 197 680 218 692 q 168 660 175 668 l 168 660 l 53 675 l 74 969 l 429 969 z m 313 0 l 163 0 l 897 969 l 1047 969 l 313 0 z m 907 -8 l 907 -8 q 747 49 803 -8 q 690 199 690 106 l 690 199 q 708 298 690 251 q 753 385 725 344 q 816 457 781 425 q 888 513 851 489 l 888 513 l 1086 513 q 916 383 979 440 q 839 261 853 326 l 839 261 l 847 258 q 884 312 858 286 q 964 338 910 338 l 964 338 q 1076 294 1031 338 q 1122 178 1122 251 l 1122 178 q 1065 44 1122 96 q 907 -8 1007 -8 z m 906 96 l 906 96 q 974 160 974 96 l 974 160 l 974 174 q 907 235 974 235 l 907 235 q 856 219 875 235 q 838 174 838 203 l 838 174 l 838 160 q 906 96 838 96 z "},"⅐":{"ha":1182,"x_min":11,"x_max":1156,"o":"m 450 457 l 68 457 l 68 567 l 197 567 l 197 858 l 189 858 l 104 743 l 11 810 l 129 969 l 338 969 l 338 567 l 450 567 l 450 457 z m 308 0 l 158 0 l 893 969 l 1043 969 l 308 0 z m 993 0 l 843 0 l 1015 401 l 874 401 l 874 308 l 754 308 l 754 513 l 1156 513 l 1156 393 l 993 0 z "},"⅛":{"ha":1194,"x_min":11,"x_max":1160,"o":"m 450 457 l 68 457 l 68 567 l 197 567 l 197 858 l 189 858 l 104 743 l 11 810 l 129 969 l 338 969 l 338 567 l 450 567 l 450 457 z m 308 0 l 158 0 l 893 969 l 1043 969 l 308 0 z m 949 -8 l 949 -8 q 793 33 849 -8 q 738 142 738 75 l 738 142 q 767 219 738 188 q 844 263 796 250 l 844 263 l 844 268 q 780 310 806 282 q 754 382 754 338 l 754 382 q 803 481 754 442 q 949 521 853 521 l 949 521 q 1094 481 1044 521 q 1144 382 1144 442 l 1144 382 q 1119 310 1144 338 q 1054 268 1093 282 l 1054 268 l 1054 263 q 1131 219 1103 250 q 1160 142 1160 188 l 1160 142 q 1104 33 1160 75 q 949 -8 1049 -8 z m 949 94 l 949 94 q 997 108 981 94 q 1013 144 1013 122 l 1013 144 l 1013 158 q 997 194 1013 181 q 949 208 981 208 l 949 208 q 901 194 917 208 q 886 158 886 181 l 886 158 l 886 144 q 902 108 886 122 q 949 94 918 94 z m 949 306 l 949 306 q 997 319 981 306 q 1013 356 1013 333 l 1013 356 l 1013 367 q 997 404 1013 390 q 949 418 981 418 l 949 418 q 901 404 918 418 q 885 367 885 390 l 885 367 l 885 356 q 901 319 885 333 q 949 306 918 306 z "},"⅜":{"ha":1182,"x_min":6,"x_max":1147,"o":"m 163 775 l 210 775 q 264 786 247 775 q 281 813 281 797 l 281 813 l 281 818 q 265 853 281 838 q 218 868 249 868 l 218 868 q 159 853 189 868 q 107 808 129 838 l 107 808 l 21 890 q 103 956 57 933 q 222 978 149 978 l 222 978 q 376 939 321 978 q 431 838 431 900 l 431 838 q 399 760 431 789 q 325 725 368 731 l 325 725 l 325 719 q 408 681 378 711 q 439 601 439 650 l 439 601 q 378 490 439 531 q 221 449 318 449 l 221 449 q 82 479 131 449 q 6 553 33 510 l 6 553 l 111 633 q 153 580 126 601 q 221 558 179 558 l 221 558 q 272 574 253 558 q 290 614 290 589 l 290 614 l 290 617 q 267 651 290 640 q 206 661 243 661 l 206 661 l 163 661 l 163 775 z m 296 0 l 146 0 l 881 969 l 1031 969 l 296 0 z m 936 -8 l 936 -8 q 781 33 836 -8 q 725 142 725 75 l 725 142 q 754 219 725 188 q 832 263 783 250 l 832 263 l 832 268 q 767 310 793 282 q 742 382 742 338 l 742 382 q 791 481 742 442 q 936 521 840 521 l 936 521 q 1082 481 1032 521 q 1132 382 1132 442 l 1132 382 q 1106 310 1132 338 q 1042 268 1081 282 l 1042 268 l 1042 263 q 1119 219 1090 250 q 1147 142 1147 188 l 1147 142 q 1092 33 1147 75 q 936 -8 1036 -8 z m 936 94 l 936 94 q 984 108 968 94 q 1000 144 1000 122 l 1000 144 l 1000 158 q 984 194 1000 181 q 936 208 968 208 l 936 208 q 889 194 904 208 q 874 158 874 181 l 874 158 l 874 144 q 890 108 874 122 q 936 94 906 94 z m 936 306 l 936 306 q 984 319 968 306 q 1000 356 1000 333 l 1000 356 l 1000 367 q 984 404 1000 390 q 936 418 968 418 l 936 418 q 889 404 906 418 q 872 367 872 390 l 872 367 l 872 356 q 889 319 872 333 q 936 306 906 306 z "},"⅝":{"ha":1199,"x_min":33,"x_max":1164,"o":"m 429 969 l 429 849 l 175 849 l 165 707 l 172 707 q 211 776 188 750 q 292 803 235 803 l 292 803 q 358 792 326 803 q 413 759 390 781 q 450 707 436 738 q 464 638 464 676 l 464 638 q 407 502 464 556 q 242 449 350 449 l 242 449 q 107 479 156 449 q 33 553 58 510 l 33 553 l 136 633 q 177 581 153 603 q 242 558 201 558 l 242 558 q 296 578 278 558 q 314 628 314 597 l 314 628 l 314 633 q 296 676 314 660 q 247 692 278 692 l 247 692 q 197 680 218 692 q 168 660 175 668 l 168 660 l 53 675 l 74 969 l 429 969 z m 313 0 l 163 0 l 897 969 l 1047 969 l 313 0 z m 953 -8 l 953 -8 q 797 33 853 -8 q 742 142 742 75 l 742 142 q 771 219 742 188 q 849 263 800 250 l 849 263 l 849 268 q 784 310 810 282 q 758 382 758 338 l 758 382 q 808 481 758 442 q 953 521 857 521 l 953 521 q 1099 481 1049 521 q 1149 382 1149 442 l 1149 382 q 1123 310 1149 338 q 1058 268 1097 282 l 1058 268 l 1058 263 q 1135 219 1107 250 q 1164 142 1164 188 l 1164 142 q 1108 33 1164 75 q 953 -8 1053 -8 z m 953 94 l 953 94 q 1001 108 985 94 q 1017 144 1017 122 l 1017 144 l 1017 158 q 1001 194 1017 181 q 953 208 985 208 l 953 208 q 906 194 921 208 q 890 158 890 181 l 890 158 l 890 144 q 906 108 890 122 q 953 94 922 94 z m 953 306 l 953 306 q 1001 319 985 306 q 1017 356 1017 333 l 1017 356 l 1017 367 q 1001 404 1017 390 q 953 418 985 418 l 953 418 q 906 404 922 418 q 889 367 889 390 l 889 367 l 889 356 q 906 319 889 333 q 953 306 922 306 z "},"⅞":{"ha":1133,"x_min":24,"x_max":1099,"o":"m 263 457 l 113 457 l 285 858 l 143 858 l 143 765 l 24 765 l 24 969 l 425 969 l 425 850 l 263 457 z m 247 0 l 97 0 l 832 969 l 982 969 l 247 0 z m 888 -8 l 888 -8 q 732 33 788 -8 q 676 142 676 75 l 676 142 q 706 219 676 188 q 783 263 735 250 l 783 263 l 783 268 q 719 310 744 282 q 693 382 693 338 l 693 382 q 742 481 693 442 q 888 521 792 521 l 888 521 q 1033 481 983 521 q 1083 382 1083 442 l 1083 382 q 1058 310 1083 338 q 993 268 1032 282 l 993 268 l 993 263 q 1070 219 1042 250 q 1099 142 1099 188 l 1099 142 q 1043 33 1099 75 q 888 -8 988 -8 z m 888 94 l 888 94 q 935 108 919 94 q 951 144 951 122 l 951 144 l 951 158 q 935 194 951 181 q 888 208 919 208 l 888 208 q 840 194 856 208 q 825 158 825 181 l 825 158 l 825 144 q 841 108 825 122 q 888 94 857 94 z m 888 306 l 888 306 q 935 319 919 306 q 951 356 951 333 l 951 356 l 951 367 q 935 404 951 390 q 888 418 919 418 l 888 418 q 840 404 857 418 q 824 367 824 390 l 824 367 l 824 356 q 840 319 824 333 q 888 306 857 306 z "},"⅑":{"ha":1204,"x_min":11,"x_max":1171,"o":"m 450 457 l 68 457 l 68 567 l 197 567 l 197 858 l 189 858 l 104 743 l 11 810 l 129 969 l 338 969 l 338 567 l 450 567 l 450 457 z m 308 0 l 158 0 l 893 969 l 1043 969 l 308 0 z m 1171 314 l 1171 314 q 1153 215 1171 261 q 1108 128 1136 168 q 1045 56 1081 88 q 974 0 1010 24 l 974 0 l 775 0 q 945 129 882 72 q 1022 251 1008 186 l 1022 251 l 1014 254 q 999 226 1007 240 q 976 200 990 211 q 943 181 963 189 q 897 174 924 174 l 897 174 q 785 217 831 174 q 739 335 739 261 l 739 335 q 797 469 739 417 q 954 521 854 521 l 954 521 q 1115 464 1058 521 q 1171 314 1171 407 z m 954 278 l 954 278 q 1005 294 986 278 q 1024 339 1024 310 l 1024 339 l 1024 353 q 956 417 1024 417 l 956 417 q 886 353 886 417 l 886 353 l 886 339 q 954 278 886 278 z "}}}
